%TF.GenerationSoftware,KiCad,Pcbnew,(6.0.0-0)*%
%TF.CreationDate,2022-02-19T21:54:15+03:00*%
%TF.ProjectId,CopterCat_cm4,436f7074-6572-4436-9174-5f636d342e6b,rev?*%
%TF.SameCoordinates,Original*%
%TF.FileFunction,Profile,NP*%
%FSLAX46Y46*%
G04 Gerber Fmt 4.6, Leading zero omitted, Abs format (unit mm)*
G04 Created by KiCad (PCBNEW (6.0.0-0)) date 2022-02-19 21:54:15*
%MOMM*%
%LPD*%
G01*
G04 APERTURE LIST*
%TA.AperFunction,Profile*%
%ADD10C,0.100000*%
%TD*%
%ADD11C,0.150000*%
G04 APERTURE END LIST*
D10*
X244000000Y-135500000D02*
X211000000Y-135500000D01*
X211000000Y-80500000D02*
X244000000Y-80500000D01*
X207500000Y-132000000D02*
X207500000Y-84000000D01*
X247500000Y-132000000D02*
X247500000Y-84000000D01*
X247500000Y-84000000D02*
G75*
G03*
X244000000Y-80500000I-3499999J1D01*
G01*
X211000000Y-80500000D02*
G75*
G03*
X207500000Y-84000000I-1J-3499999D01*
G01*
X244000000Y-135500000D02*
G75*
G03*
X247500000Y-132000000I1J3499999D01*
G01*
X207500000Y-132000000D02*
G75*
G03*
X211000000Y-135500000I3499999J-1D01*
G01*
D11*
X241559523Y-137802380D02*
X242178571Y-137802380D01*
X241845238Y-138183333D01*
X241988095Y-138183333D01*
X242083333Y-138230952D01*
X242130952Y-138278571D01*
X242178571Y-138373809D01*
X242178571Y-138611904D01*
X242130952Y-138707142D01*
X242083333Y-138754761D01*
X241988095Y-138802380D01*
X241702380Y-138802380D01*
X241607142Y-138754761D01*
X241559523Y-138707142D01*
X242607142Y-138707142D02*
X242654761Y-138754761D01*
X242607142Y-138802380D01*
X242559523Y-138754761D01*
X242607142Y-138707142D01*
X242607142Y-138802380D01*
X243559523Y-137802380D02*
X243083333Y-137802380D01*
X243035714Y-138278571D01*
X243083333Y-138230952D01*
X243178571Y-138183333D01*
X243416666Y-138183333D01*
X243511904Y-138230952D01*
X243559523Y-138278571D01*
X243607142Y-138373809D01*
X243607142Y-138611904D01*
X243559523Y-138707142D01*
X243511904Y-138754761D01*
X243416666Y-138802380D01*
X243178571Y-138802380D01*
X243083333Y-138754761D01*
X243035714Y-138707142D01*
X244226190Y-137802380D02*
X244321428Y-137802380D01*
X244416666Y-137850000D01*
X244464285Y-137897619D01*
X244511904Y-137992857D01*
X244559523Y-138183333D01*
X244559523Y-138421428D01*
X244511904Y-138611904D01*
X244464285Y-138707142D01*
X244416666Y-138754761D01*
X244321428Y-138802380D01*
X244226190Y-138802380D01*
X244130952Y-138754761D01*
X244083333Y-138707142D01*
X244035714Y-138611904D01*
X243988095Y-138421428D01*
X243988095Y-138183333D01*
X244035714Y-137992857D01*
X244083333Y-137897619D01*
X244130952Y-137850000D01*
X244226190Y-137802380D01*
X245178571Y-137802380D02*
X245273809Y-137802380D01*
X245369047Y-137850000D01*
X245416666Y-137897619D01*
X245464285Y-137992857D01*
X245511904Y-138183333D01*
X245511904Y-138421428D01*
X245464285Y-138611904D01*
X245416666Y-138707142D01*
X245369047Y-138754761D01*
X245273809Y-138802380D01*
X245178571Y-138802380D01*
X245083333Y-138754761D01*
X245035714Y-138707142D01*
X244988095Y-138611904D01*
X244940476Y-138421428D01*
X244940476Y-138183333D01*
X244988095Y-137992857D01*
X245035714Y-137897619D01*
X245083333Y-137850000D01*
X245178571Y-137802380D01*
X246130952Y-137802380D02*
X246226190Y-137802380D01*
X246321428Y-137850000D01*
X246369047Y-137897619D01*
X246416666Y-137992857D01*
X246464285Y-138183333D01*
X246464285Y-138421428D01*
X246416666Y-138611904D01*
X246369047Y-138707142D01*
X246321428Y-138754761D01*
X246226190Y-138802380D01*
X246130952Y-138802380D01*
X246035714Y-138754761D01*
X245988095Y-138707142D01*
X245940476Y-138611904D01*
X245892857Y-138421428D01*
X245892857Y-138183333D01*
X245940476Y-137992857D01*
X245988095Y-137897619D01*
X246035714Y-137850000D01*
X246130952Y-137802380D01*
X247654761Y-138802380D02*
X247654761Y-138135714D01*
X247654761Y-138230952D02*
X247702380Y-138183333D01*
X247797619Y-138135714D01*
X247940476Y-138135714D01*
X248035714Y-138183333D01*
X248083333Y-138278571D01*
X248083333Y-138802380D01*
X248083333Y-138278571D02*
X248130952Y-138183333D01*
X248226190Y-138135714D01*
X248369047Y-138135714D01*
X248464285Y-138183333D01*
X248511904Y-138278571D01*
X248511904Y-138802380D01*
X248988095Y-138802380D02*
X248988095Y-138135714D01*
X248988095Y-138230952D02*
X249035714Y-138183333D01*
X249130952Y-138135714D01*
X249273809Y-138135714D01*
X249369047Y-138183333D01*
X249416666Y-138278571D01*
X249416666Y-138802380D01*
X249416666Y-138278571D02*
X249464285Y-138183333D01*
X249559523Y-138135714D01*
X249702380Y-138135714D01*
X249797619Y-138183333D01*
X249845238Y-138278571D01*
X249845238Y-138802380D01*
D10*
X244000000Y-136000000D02*
X244000000Y-140086420D01*
X247500000Y-136000000D02*
X247500000Y-140086420D01*
X244000000Y-139500000D02*
X245126504Y-140086421D01*
X244000000Y-139500000D02*
X245126504Y-138913579D01*
X247500000Y-139500000D02*
X246373496Y-138913579D01*
X247500000Y-139500000D02*
X246373496Y-140086421D01*
D11*
X250302380Y-137940476D02*
X250302380Y-137321428D01*
X250683333Y-137654761D01*
X250683333Y-137511904D01*
X250730952Y-137416666D01*
X250778571Y-137369047D01*
X250873809Y-137321428D01*
X251111904Y-137321428D01*
X251207142Y-137369047D01*
X251254761Y-137416666D01*
X251302380Y-137511904D01*
X251302380Y-137797619D01*
X251254761Y-137892857D01*
X251207142Y-137940476D01*
X251207142Y-136892857D02*
X251254761Y-136845238D01*
X251302380Y-136892857D01*
X251254761Y-136940476D01*
X251207142Y-136892857D01*
X251302380Y-136892857D01*
X250302380Y-135940476D02*
X250302380Y-136416666D01*
X250778571Y-136464285D01*
X250730952Y-136416666D01*
X250683333Y-136321428D01*
X250683333Y-136083333D01*
X250730952Y-135988095D01*
X250778571Y-135940476D01*
X250873809Y-135892857D01*
X251111904Y-135892857D01*
X251207142Y-135940476D01*
X251254761Y-135988095D01*
X251302380Y-136083333D01*
X251302380Y-136321428D01*
X251254761Y-136416666D01*
X251207142Y-136464285D01*
X250302380Y-135273809D02*
X250302380Y-135178571D01*
X250350000Y-135083333D01*
X250397619Y-135035714D01*
X250492857Y-134988095D01*
X250683333Y-134940476D01*
X250921428Y-134940476D01*
X251111904Y-134988095D01*
X251207142Y-135035714D01*
X251254761Y-135083333D01*
X251302380Y-135178571D01*
X251302380Y-135273809D01*
X251254761Y-135369047D01*
X251207142Y-135416666D01*
X251111904Y-135464285D01*
X250921428Y-135511904D01*
X250683333Y-135511904D01*
X250492857Y-135464285D01*
X250397619Y-135416666D01*
X250350000Y-135369047D01*
X250302380Y-135273809D01*
X250302380Y-134321428D02*
X250302380Y-134226190D01*
X250350000Y-134130952D01*
X250397619Y-134083333D01*
X250492857Y-134035714D01*
X250683333Y-133988095D01*
X250921428Y-133988095D01*
X251111904Y-134035714D01*
X251207142Y-134083333D01*
X251254761Y-134130952D01*
X251302380Y-134226190D01*
X251302380Y-134321428D01*
X251254761Y-134416666D01*
X251207142Y-134464285D01*
X251111904Y-134511904D01*
X250921428Y-134559523D01*
X250683333Y-134559523D01*
X250492857Y-134511904D01*
X250397619Y-134464285D01*
X250350000Y-134416666D01*
X250302380Y-134321428D01*
X250302380Y-133369047D02*
X250302380Y-133273809D01*
X250350000Y-133178571D01*
X250397619Y-133130952D01*
X250492857Y-133083333D01*
X250683333Y-133035714D01*
X250921428Y-133035714D01*
X251111904Y-133083333D01*
X251207142Y-133130952D01*
X251254761Y-133178571D01*
X251302380Y-133273809D01*
X251302380Y-133369047D01*
X251254761Y-133464285D01*
X251207142Y-133511904D01*
X251111904Y-133559523D01*
X250921428Y-133607142D01*
X250683333Y-133607142D01*
X250492857Y-133559523D01*
X250397619Y-133511904D01*
X250350000Y-133464285D01*
X250302380Y-133369047D01*
X251302380Y-131845238D02*
X250635714Y-131845238D01*
X250730952Y-131845238D02*
X250683333Y-131797619D01*
X250635714Y-131702380D01*
X250635714Y-131559523D01*
X250683333Y-131464285D01*
X250778571Y-131416666D01*
X251302380Y-131416666D01*
X250778571Y-131416666D02*
X250683333Y-131369047D01*
X250635714Y-131273809D01*
X250635714Y-131130952D01*
X250683333Y-131035714D01*
X250778571Y-130988095D01*
X251302380Y-130988095D01*
X251302380Y-130511904D02*
X250635714Y-130511904D01*
X250730952Y-130511904D02*
X250683333Y-130464285D01*
X250635714Y-130369047D01*
X250635714Y-130226190D01*
X250683333Y-130130952D01*
X250778571Y-130083333D01*
X251302380Y-130083333D01*
X250778571Y-130083333D02*
X250683333Y-130035714D01*
X250635714Y-129940476D01*
X250635714Y-129797619D01*
X250683333Y-129702380D01*
X250778571Y-129654761D01*
X251302380Y-129654761D01*
D10*
X248000000Y-135500000D02*
X252586420Y-135500000D01*
X248000000Y-132000000D02*
X252586420Y-132000000D01*
X252000000Y-135500000D02*
X252586421Y-134373496D01*
X252000000Y-135500000D02*
X251413579Y-134373496D01*
X252000000Y-132000000D02*
X251413579Y-133126504D01*
X252000000Y-132000000D02*
X252586421Y-133126504D01*
D11*
X223357142Y-140635714D02*
X223357142Y-141302380D01*
X223119047Y-140254761D02*
X222880952Y-140969047D01*
X223500000Y-140969047D01*
X224071428Y-140302380D02*
X224166666Y-140302380D01*
X224261904Y-140350000D01*
X224309523Y-140397619D01*
X224357142Y-140492857D01*
X224404761Y-140683333D01*
X224404761Y-140921428D01*
X224357142Y-141111904D01*
X224309523Y-141207142D01*
X224261904Y-141254761D01*
X224166666Y-141302380D01*
X224071428Y-141302380D01*
X223976190Y-141254761D01*
X223928571Y-141207142D01*
X223880952Y-141111904D01*
X223833333Y-140921428D01*
X223833333Y-140683333D01*
X223880952Y-140492857D01*
X223928571Y-140397619D01*
X223976190Y-140350000D01*
X224071428Y-140302380D01*
X224833333Y-141207142D02*
X224880952Y-141254761D01*
X224833333Y-141302380D01*
X224785714Y-141254761D01*
X224833333Y-141207142D01*
X224833333Y-141302380D01*
X225500000Y-140302380D02*
X225595238Y-140302380D01*
X225690476Y-140350000D01*
X225738095Y-140397619D01*
X225785714Y-140492857D01*
X225833333Y-140683333D01*
X225833333Y-140921428D01*
X225785714Y-141111904D01*
X225738095Y-141207142D01*
X225690476Y-141254761D01*
X225595238Y-141302380D01*
X225500000Y-141302380D01*
X225404761Y-141254761D01*
X225357142Y-141207142D01*
X225309523Y-141111904D01*
X225261904Y-140921428D01*
X225261904Y-140683333D01*
X225309523Y-140492857D01*
X225357142Y-140397619D01*
X225404761Y-140350000D01*
X225500000Y-140302380D01*
X226452380Y-140302380D02*
X226547619Y-140302380D01*
X226642857Y-140350000D01*
X226690476Y-140397619D01*
X226738095Y-140492857D01*
X226785714Y-140683333D01*
X226785714Y-140921428D01*
X226738095Y-141111904D01*
X226690476Y-141207142D01*
X226642857Y-141254761D01*
X226547619Y-141302380D01*
X226452380Y-141302380D01*
X226357142Y-141254761D01*
X226309523Y-141207142D01*
X226261904Y-141111904D01*
X226214285Y-140921428D01*
X226214285Y-140683333D01*
X226261904Y-140492857D01*
X226309523Y-140397619D01*
X226357142Y-140350000D01*
X226452380Y-140302380D01*
X227404761Y-140302380D02*
X227500000Y-140302380D01*
X227595238Y-140350000D01*
X227642857Y-140397619D01*
X227690476Y-140492857D01*
X227738095Y-140683333D01*
X227738095Y-140921428D01*
X227690476Y-141111904D01*
X227642857Y-141207142D01*
X227595238Y-141254761D01*
X227500000Y-141302380D01*
X227404761Y-141302380D01*
X227309523Y-141254761D01*
X227261904Y-141207142D01*
X227214285Y-141111904D01*
X227166666Y-140921428D01*
X227166666Y-140683333D01*
X227214285Y-140492857D01*
X227261904Y-140397619D01*
X227309523Y-140350000D01*
X227404761Y-140302380D01*
X228357142Y-140302380D02*
X228452380Y-140302380D01*
X228547619Y-140350000D01*
X228595238Y-140397619D01*
X228642857Y-140492857D01*
X228690476Y-140683333D01*
X228690476Y-140921428D01*
X228642857Y-141111904D01*
X228595238Y-141207142D01*
X228547619Y-141254761D01*
X228452380Y-141302380D01*
X228357142Y-141302380D01*
X228261904Y-141254761D01*
X228214285Y-141207142D01*
X228166666Y-141111904D01*
X228119047Y-140921428D01*
X228119047Y-140683333D01*
X228166666Y-140492857D01*
X228214285Y-140397619D01*
X228261904Y-140350000D01*
X228357142Y-140302380D01*
X229880952Y-141302380D02*
X229880952Y-140635714D01*
X229880952Y-140730952D02*
X229928571Y-140683333D01*
X230023809Y-140635714D01*
X230166666Y-140635714D01*
X230261904Y-140683333D01*
X230309523Y-140778571D01*
X230309523Y-141302380D01*
X230309523Y-140778571D02*
X230357142Y-140683333D01*
X230452380Y-140635714D01*
X230595238Y-140635714D01*
X230690476Y-140683333D01*
X230738095Y-140778571D01*
X230738095Y-141302380D01*
X231214285Y-141302380D02*
X231214285Y-140635714D01*
X231214285Y-140730952D02*
X231261904Y-140683333D01*
X231357142Y-140635714D01*
X231500000Y-140635714D01*
X231595238Y-140683333D01*
X231642857Y-140778571D01*
X231642857Y-141302380D01*
X231642857Y-140778571D02*
X231690476Y-140683333D01*
X231785714Y-140635714D01*
X231928571Y-140635714D01*
X232023809Y-140683333D01*
X232071428Y-140778571D01*
X232071428Y-141302380D01*
D10*
X207500000Y-136000000D02*
X207500000Y-142586420D01*
X247500000Y-136000000D02*
X247500000Y-142586420D01*
X207500000Y-142000000D02*
X222115476Y-142000000D01*
X232884524Y-142000000D02*
X247500000Y-142000000D01*
X207500000Y-142000000D02*
X208626504Y-142586421D01*
X207500000Y-142000000D02*
X208626504Y-141413579D01*
X247500000Y-142000000D02*
X246373496Y-141413579D01*
X247500000Y-142000000D02*
X246373496Y-142586421D01*
D11*
X254802380Y-112095238D02*
X254802380Y-112571428D01*
X255278571Y-112619047D01*
X255230952Y-112571428D01*
X255183333Y-112476190D01*
X255183333Y-112238095D01*
X255230952Y-112142857D01*
X255278571Y-112095238D01*
X255373809Y-112047619D01*
X255611904Y-112047619D01*
X255707142Y-112095238D01*
X255754761Y-112142857D01*
X255802380Y-112238095D01*
X255802380Y-112476190D01*
X255754761Y-112571428D01*
X255707142Y-112619047D01*
X254802380Y-111142857D02*
X254802380Y-111619047D01*
X255278571Y-111666666D01*
X255230952Y-111619047D01*
X255183333Y-111523809D01*
X255183333Y-111285714D01*
X255230952Y-111190476D01*
X255278571Y-111142857D01*
X255373809Y-111095238D01*
X255611904Y-111095238D01*
X255707142Y-111142857D01*
X255754761Y-111190476D01*
X255802380Y-111285714D01*
X255802380Y-111523809D01*
X255754761Y-111619047D01*
X255707142Y-111666666D01*
X255707142Y-110666666D02*
X255754761Y-110619047D01*
X255802380Y-110666666D01*
X255754761Y-110714285D01*
X255707142Y-110666666D01*
X255802380Y-110666666D01*
X254802380Y-110000000D02*
X254802380Y-109904761D01*
X254850000Y-109809523D01*
X254897619Y-109761904D01*
X254992857Y-109714285D01*
X255183333Y-109666666D01*
X255421428Y-109666666D01*
X255611904Y-109714285D01*
X255707142Y-109761904D01*
X255754761Y-109809523D01*
X255802380Y-109904761D01*
X255802380Y-110000000D01*
X255754761Y-110095238D01*
X255707142Y-110142857D01*
X255611904Y-110190476D01*
X255421428Y-110238095D01*
X255183333Y-110238095D01*
X254992857Y-110190476D01*
X254897619Y-110142857D01*
X254850000Y-110095238D01*
X254802380Y-110000000D01*
X254802380Y-109047619D02*
X254802380Y-108952380D01*
X254850000Y-108857142D01*
X254897619Y-108809523D01*
X254992857Y-108761904D01*
X255183333Y-108714285D01*
X255421428Y-108714285D01*
X255611904Y-108761904D01*
X255707142Y-108809523D01*
X255754761Y-108857142D01*
X255802380Y-108952380D01*
X255802380Y-109047619D01*
X255754761Y-109142857D01*
X255707142Y-109190476D01*
X255611904Y-109238095D01*
X255421428Y-109285714D01*
X255183333Y-109285714D01*
X254992857Y-109238095D01*
X254897619Y-109190476D01*
X254850000Y-109142857D01*
X254802380Y-109047619D01*
X254802380Y-108095238D02*
X254802380Y-108000000D01*
X254850000Y-107904761D01*
X254897619Y-107857142D01*
X254992857Y-107809523D01*
X255183333Y-107761904D01*
X255421428Y-107761904D01*
X255611904Y-107809523D01*
X255707142Y-107857142D01*
X255754761Y-107904761D01*
X255802380Y-108000000D01*
X255802380Y-108095238D01*
X255754761Y-108190476D01*
X255707142Y-108238095D01*
X255611904Y-108285714D01*
X255421428Y-108333333D01*
X255183333Y-108333333D01*
X254992857Y-108285714D01*
X254897619Y-108238095D01*
X254850000Y-108190476D01*
X254802380Y-108095238D01*
X254802380Y-107142857D02*
X254802380Y-107047619D01*
X254850000Y-106952380D01*
X254897619Y-106904761D01*
X254992857Y-106857142D01*
X255183333Y-106809523D01*
X255421428Y-106809523D01*
X255611904Y-106857142D01*
X255707142Y-106904761D01*
X255754761Y-106952380D01*
X255802380Y-107047619D01*
X255802380Y-107142857D01*
X255754761Y-107238095D01*
X255707142Y-107285714D01*
X255611904Y-107333333D01*
X255421428Y-107380952D01*
X255183333Y-107380952D01*
X254992857Y-107333333D01*
X254897619Y-107285714D01*
X254850000Y-107238095D01*
X254802380Y-107142857D01*
X255802380Y-105619047D02*
X255135714Y-105619047D01*
X255230952Y-105619047D02*
X255183333Y-105571428D01*
X255135714Y-105476190D01*
X255135714Y-105333333D01*
X255183333Y-105238095D01*
X255278571Y-105190476D01*
X255802380Y-105190476D01*
X255278571Y-105190476D02*
X255183333Y-105142857D01*
X255135714Y-105047619D01*
X255135714Y-104904761D01*
X255183333Y-104809523D01*
X255278571Y-104761904D01*
X255802380Y-104761904D01*
X255802380Y-104285714D02*
X255135714Y-104285714D01*
X255230952Y-104285714D02*
X255183333Y-104238095D01*
X255135714Y-104142857D01*
X255135714Y-104000000D01*
X255183333Y-103904761D01*
X255278571Y-103857142D01*
X255802380Y-103857142D01*
X255278571Y-103857142D02*
X255183333Y-103809523D01*
X255135714Y-103714285D01*
X255135714Y-103571428D01*
X255183333Y-103476190D01*
X255278571Y-103428571D01*
X255802380Y-103428571D01*
D10*
X248000000Y-135500000D02*
X257086420Y-135500000D01*
X248000000Y-80500000D02*
X257086420Y-80500000D01*
X256500000Y-135500000D02*
X256500000Y-113384524D01*
X256500000Y-102615476D02*
X256500000Y-80500000D01*
X256500000Y-135500000D02*
X257086421Y-134373496D01*
X256500000Y-135500000D02*
X255913579Y-134373496D01*
X256500000Y-80500000D02*
X255913579Y-81626504D01*
X256500000Y-80500000D02*
X257086421Y-81626504D01*
M02*
