%TF.GenerationSoftware,KiCad,Pcbnew,(6.0.0-0)*%
%TF.CreationDate,2022-02-19T21:54:14+03:00*%
%TF.ProjectId,CopterCat_cm4,436f7074-6572-4436-9174-5f636d342e6b,rev?*%
%TF.SameCoordinates,Original*%
%TF.FileFunction,Paste,Bot*%
%TF.FilePolarity,Positive*%
%FSLAX46Y46*%
G04 Gerber Fmt 4.6, Leading zero omitted, Abs format (unit mm)*
G04 Created by KiCad (PCBNEW (6.0.0-0)) date 2022-02-19 21:54:14*
%MOMM*%
%LPD*%
G01*
G04 APERTURE LIST*
G04 Aperture macros list*
%AMRoundRect*
0 Rectangle with rounded corners*
0 $1 Rounding radius*
0 $2 $3 $4 $5 $6 $7 $8 $9 X,Y pos of 4 corners*
0 Add a 4 corners polygon primitive as box body*
4,1,4,$2,$3,$4,$5,$6,$7,$8,$9,$2,$3,0*
0 Add four circle primitives for the rounded corners*
1,1,$1+$1,$2,$3*
1,1,$1+$1,$4,$5*
1,1,$1+$1,$6,$7*
1,1,$1+$1,$8,$9*
0 Add four rect primitives between the rounded corners*
20,1,$1+$1,$2,$3,$4,$5,0*
20,1,$1+$1,$4,$5,$6,$7,0*
20,1,$1+$1,$6,$7,$8,$9,0*
20,1,$1+$1,$8,$9,$2,$3,0*%
G04 Aperture macros list end*
%ADD10C,0.010000*%
%ADD11RoundRect,0.140000X-0.140000X-0.170000X0.140000X-0.170000X0.140000X0.170000X-0.140000X0.170000X0*%
%ADD12RoundRect,0.140000X-0.170000X0.140000X-0.170000X-0.140000X0.170000X-0.140000X0.170000X0.140000X0*%
%ADD13R,0.225000X0.663000*%
%ADD14R,0.225000X0.563000*%
%ADD15R,0.563000X0.225000*%
%ADD16R,0.425000X0.400000*%
%ADD17R,1.150000X0.950000*%
%ADD18R,0.750000X0.300000*%
%ADD19C,0.200000*%
%ADD20RoundRect,0.150000X-0.700000X0.150000X-0.700000X-0.150000X0.700000X-0.150000X0.700000X0.150000X0*%
%ADD21RoundRect,0.250000X-1.100000X0.250000X-1.100000X-0.250000X1.100000X-0.250000X1.100000X0.250000X0*%
%ADD22RoundRect,0.135000X0.135000X0.185000X-0.135000X0.185000X-0.135000X-0.185000X0.135000X-0.185000X0*%
%ADD23RoundRect,0.135000X-0.135000X-0.185000X0.135000X-0.185000X0.135000X0.185000X-0.135000X0.185000X0*%
%ADD24RoundRect,0.140000X0.170000X-0.140000X0.170000X0.140000X-0.170000X0.140000X-0.170000X-0.140000X0*%
%ADD25R,0.809800X0.220000*%
%ADD26R,0.220000X0.809800*%
%ADD27R,4.000000X4.000000*%
%ADD28RoundRect,0.135000X-0.185000X0.135000X-0.185000X-0.135000X0.185000X-0.135000X0.185000X0.135000X0*%
%ADD29RoundRect,0.087500X0.087500X-0.187500X0.087500X0.187500X-0.087500X0.187500X-0.087500X-0.187500X0*%
%ADD30RoundRect,0.087500X0.187500X-0.087500X0.187500X0.087500X-0.187500X0.087500X-0.187500X-0.087500X0*%
%ADD31RoundRect,0.135000X0.185000X-0.135000X0.185000X0.135000X-0.185000X0.135000X-0.185000X-0.135000X0*%
%ADD32R,0.450000X0.600000*%
%ADD33RoundRect,0.140000X0.140000X0.170000X-0.140000X0.170000X-0.140000X-0.170000X0.140000X-0.170000X0*%
%ADD34R,0.800000X1.000000*%
%ADD35RoundRect,0.250000X0.450000X0.425000X-0.450000X0.425000X-0.450000X-0.425000X0.450000X-0.425000X0*%
%ADD36RoundRect,0.150000X0.650000X0.150000X-0.650000X0.150000X-0.650000X-0.150000X0.650000X-0.150000X0*%
%ADD37R,0.900000X0.800000*%
%ADD38RoundRect,0.150000X0.700000X-0.150000X0.700000X0.150000X-0.700000X0.150000X-0.700000X-0.150000X0*%
%ADD39RoundRect,0.250000X1.100000X-0.250000X1.100000X0.250000X-1.100000X0.250000X-1.100000X-0.250000X0*%
%ADD40R,0.650000X0.400000*%
%ADD41R,3.850000X1.200000*%
%ADD42R,1.450000X1.500000*%
%ADD43R,0.550000X1.150000*%
%ADD44R,0.750000X1.450000*%
%ADD45R,1.650000X0.550000*%
%ADD46RoundRect,0.625000X-0.875000X0.625000X-0.875000X-0.625000X0.875000X-0.625000X0.875000X0.625000X0*%
%ADD47R,0.590000X0.350000*%
%ADD48R,0.350000X0.590000*%
%ADD49R,0.600000X1.450000*%
%ADD50R,0.300000X1.450000*%
%ADD51RoundRect,0.041300X0.253700X-0.778700X0.253700X0.778700X-0.253700X0.778700X-0.253700X-0.778700X0*%
%ADD52RoundRect,0.031500X-0.273500X-0.143500X0.273500X-0.143500X0.273500X0.143500X-0.273500X0.143500X0*%
%ADD53RoundRect,0.031500X-0.143500X-0.273500X0.143500X-0.273500X0.143500X0.273500X-0.143500X0.273500X0*%
%ADD54RoundRect,0.147500X0.147500X0.172500X-0.147500X0.172500X-0.147500X-0.172500X0.147500X-0.172500X0*%
%ADD55R,0.300000X1.300000*%
%ADD56R,1.800000X2.200000*%
%ADD57RoundRect,0.250000X0.425000X-0.450000X0.425000X0.450000X-0.425000X0.450000X-0.425000X-0.450000X0*%
G04 APERTURE END LIST*
D10*
%TO.C,ANT1*%
X208312500Y-93015000D02*
X208562500Y-93015000D01*
X208562500Y-93015000D02*
X208562500Y-92755000D01*
X208562500Y-92755000D02*
X208312500Y-92755000D01*
X208312500Y-92755000D02*
X208312500Y-93015000D01*
G36*
X208562500Y-93015000D02*
G01*
X208312500Y-93015000D01*
X208312500Y-92755000D01*
X208562500Y-92755000D01*
X208562500Y-93015000D01*
G37*
X208562500Y-93015000D02*
X208312500Y-93015000D01*
X208312500Y-92755000D01*
X208562500Y-92755000D01*
X208562500Y-93015000D01*
X208662500Y-93015000D02*
X208912500Y-93015000D01*
X208912500Y-93015000D02*
X208912500Y-92755000D01*
X208912500Y-92755000D02*
X208662500Y-92755000D01*
X208662500Y-92755000D02*
X208662500Y-93015000D01*
G36*
X208912500Y-93015000D02*
G01*
X208662500Y-93015000D01*
X208662500Y-92755000D01*
X208912500Y-92755000D01*
X208912500Y-93015000D01*
G37*
X208912500Y-93015000D02*
X208662500Y-93015000D01*
X208662500Y-92755000D01*
X208912500Y-92755000D01*
X208912500Y-93015000D01*
X209062500Y-93015000D02*
X209377500Y-93015000D01*
X209377500Y-93015000D02*
X209377500Y-92285000D01*
X209377500Y-92285000D02*
X209062500Y-92285000D01*
X209062500Y-92285000D02*
X209062500Y-93015000D01*
G36*
X209377500Y-93015000D02*
G01*
X209062500Y-93015000D01*
X209062500Y-92285000D01*
X209377500Y-92285000D01*
X209377500Y-93015000D01*
G37*
X209377500Y-93015000D02*
X209062500Y-93015000D01*
X209062500Y-92285000D01*
X209377500Y-92285000D01*
X209377500Y-93015000D01*
X208312500Y-92545000D02*
X208562500Y-92545000D01*
X208562500Y-92545000D02*
X208562500Y-92285000D01*
X208562500Y-92285000D02*
X208312500Y-92285000D01*
X208312500Y-92285000D02*
X208312500Y-92545000D01*
G36*
X208562500Y-92545000D02*
G01*
X208312500Y-92545000D01*
X208312500Y-92285000D01*
X208562500Y-92285000D01*
X208562500Y-92545000D01*
G37*
X208562500Y-92545000D02*
X208312500Y-92545000D01*
X208312500Y-92285000D01*
X208562500Y-92285000D01*
X208562500Y-92545000D01*
X207847500Y-93015000D02*
X208162500Y-93015000D01*
X208162500Y-93015000D02*
X208162500Y-92285000D01*
X208162500Y-92285000D02*
X207847500Y-92285000D01*
X207847500Y-92285000D02*
X207847500Y-93015000D01*
G36*
X208162500Y-93015000D02*
G01*
X207847500Y-93015000D01*
X207847500Y-92285000D01*
X208162500Y-92285000D01*
X208162500Y-93015000D01*
G37*
X208162500Y-93015000D02*
X207847500Y-93015000D01*
X207847500Y-92285000D01*
X208162500Y-92285000D01*
X208162500Y-93015000D01*
X208662500Y-92545000D02*
X208912500Y-92545000D01*
X208912500Y-92545000D02*
X208912500Y-92285000D01*
X208912500Y-92285000D02*
X208662500Y-92285000D01*
X208662500Y-92285000D02*
X208662500Y-92545000D01*
G36*
X208912500Y-92545000D02*
G01*
X208662500Y-92545000D01*
X208662500Y-92285000D01*
X208912500Y-92285000D01*
X208912500Y-92545000D01*
G37*
X208912500Y-92545000D02*
X208662500Y-92545000D01*
X208662500Y-92285000D01*
X208912500Y-92285000D01*
X208912500Y-92545000D01*
%TD*%
D11*
%TO.C,C31*%
X217545000Y-98025000D03*
X218505000Y-98025000D03*
%TD*%
D12*
%TO.C,C34*%
X223145000Y-96070000D03*
X223145000Y-97030000D03*
%TD*%
%TO.C,C32*%
X224075000Y-96070000D03*
X224075000Y-97030000D03*
%TD*%
D13*
%TO.C,U18*%
X225900000Y-102943500D03*
D14*
X225500000Y-102993500D03*
D15*
X224931500Y-102825000D03*
X224931500Y-102425000D03*
X224931500Y-102025000D03*
D14*
X225500000Y-101856500D03*
X225900000Y-101856500D03*
D15*
X226468500Y-102025000D03*
X226468500Y-102425000D03*
X226468500Y-102825000D03*
%TD*%
D16*
%TO.C,Q2*%
X239727500Y-90530000D03*
X239727500Y-91180000D03*
X239727500Y-91830000D03*
X237852500Y-91830000D03*
X237852500Y-91180000D03*
X237852500Y-90530000D03*
D17*
X238790000Y-90855000D03*
D18*
X238790000Y-91830000D03*
%TD*%
D19*
%TO.C,U5*%
X222416000Y-107284000D03*
X221850000Y-107284000D03*
X221284000Y-107284000D03*
X222133000Y-107567000D03*
X221567000Y-107567000D03*
X222416000Y-107850000D03*
X221284000Y-107850000D03*
X222133000Y-108133000D03*
X221567000Y-108133000D03*
X222416000Y-108416000D03*
X221850000Y-108416000D03*
X221284000Y-108416000D03*
%TD*%
D20*
%TO.C,TELEM2*%
X242624600Y-121384400D03*
X242624600Y-122634400D03*
X242624600Y-123884400D03*
X242624600Y-125134400D03*
D21*
X245824600Y-119534400D03*
X245824600Y-126984400D03*
%TD*%
D22*
%TO.C,R4*%
X218060000Y-110750000D03*
X217040000Y-110750000D03*
%TD*%
D23*
%TO.C,R23*%
X224615000Y-109200000D03*
X225635000Y-109200000D03*
%TD*%
D24*
%TO.C,C4*%
X234900000Y-123580000D03*
X234900000Y-122620000D03*
%TD*%
D22*
%TO.C,R1*%
X237733020Y-99350810D03*
X236713020Y-99350810D03*
%TD*%
D25*
%TO.C,U10*%
X215006900Y-95825000D03*
X215006900Y-95425000D03*
X215006900Y-95025000D03*
X215006900Y-94625000D03*
X215006900Y-94225000D03*
X215006900Y-93825000D03*
X215006900Y-93425000D03*
X215006900Y-93025000D03*
X215006900Y-92625000D03*
X215006900Y-92225000D03*
X215006900Y-91825000D03*
X215006900Y-91425000D03*
X215006900Y-91025000D03*
X215006900Y-90625000D03*
D26*
X215852000Y-89779900D03*
X216252000Y-89779900D03*
X216652000Y-89779900D03*
X217052000Y-89779900D03*
X217452000Y-89779900D03*
X217852000Y-89779900D03*
X218252000Y-89779900D03*
X218652000Y-89779900D03*
X219052000Y-89779900D03*
X219452000Y-89779900D03*
X219852000Y-89779900D03*
X220252000Y-89779900D03*
X220652000Y-89779900D03*
X221052000Y-89779900D03*
D25*
X221897100Y-90625000D03*
X221897100Y-91025000D03*
X221897100Y-91425000D03*
X221897100Y-91825000D03*
X221897100Y-92225000D03*
X221897100Y-92625000D03*
X221897100Y-93025000D03*
X221897100Y-93425000D03*
X221897100Y-93825000D03*
X221897100Y-94225000D03*
X221897100Y-94625000D03*
X221897100Y-95025000D03*
X221897100Y-95425000D03*
X221897100Y-95825000D03*
D26*
X221052000Y-96670100D03*
X220652000Y-96670100D03*
X220252000Y-96670100D03*
X219852000Y-96670100D03*
X219452000Y-96670100D03*
X219052000Y-96670100D03*
X218652000Y-96670100D03*
X218252000Y-96670100D03*
X217852000Y-96670100D03*
X217452000Y-96670100D03*
X217052000Y-96670100D03*
X216652000Y-96670100D03*
X216252000Y-96670100D03*
X215852000Y-96670100D03*
D27*
X218452000Y-93225000D03*
%TD*%
D28*
%TO.C,R14*%
X221000000Y-97965000D03*
X221000000Y-98985000D03*
%TD*%
D13*
%TO.C,U14*%
X221500000Y-102793500D03*
D14*
X221100000Y-102843500D03*
D15*
X220531500Y-102675000D03*
X220531500Y-102275000D03*
X220531500Y-101875000D03*
D14*
X221100000Y-101706500D03*
X221500000Y-101706500D03*
D15*
X222068500Y-101875000D03*
X222068500Y-102275000D03*
X222068500Y-102675000D03*
%TD*%
D29*
%TO.C,U2*%
X233650000Y-125925000D03*
X233150000Y-125925000D03*
X232650000Y-125925000D03*
X232150000Y-125925000D03*
X231650000Y-125925000D03*
D30*
X231425000Y-125200000D03*
X231425000Y-124700000D03*
X231425000Y-124200000D03*
D29*
X231650000Y-123475000D03*
X232150000Y-123475000D03*
X232650000Y-123475000D03*
X233150000Y-123475000D03*
X233650000Y-123475000D03*
D30*
X233875000Y-124200000D03*
X233875000Y-124700000D03*
X233875000Y-125200000D03*
%TD*%
D23*
%TO.C,R26*%
X224190000Y-110450000D03*
X225210000Y-110450000D03*
%TD*%
%TO.C,R13*%
X218240000Y-108075000D03*
X219260000Y-108075000D03*
%TD*%
D31*
%TO.C,R45*%
X221325000Y-111510000D03*
X221325000Y-110490000D03*
%TD*%
D32*
%TO.C,D7*%
X214650000Y-101150000D03*
X214650000Y-99050000D03*
%TD*%
D33*
%TO.C,C17*%
X229705000Y-128850000D03*
X228745000Y-128850000D03*
%TD*%
D34*
%TO.C,D1*%
X233725000Y-108950000D03*
X233725000Y-110450000D03*
X234825000Y-110450000D03*
X234825000Y-108950000D03*
%TD*%
D12*
%TO.C,C29*%
X210250000Y-91695000D03*
X210250000Y-92655000D03*
%TD*%
D28*
%TO.C,R24*%
X228225000Y-107090000D03*
X228225000Y-108110000D03*
%TD*%
D35*
%TO.C,C39*%
X239400000Y-94450000D03*
X236700000Y-94450000D03*
%TD*%
D28*
%TO.C,R46*%
X220350000Y-110490000D03*
X220350000Y-111510000D03*
%TD*%
D33*
%TO.C,C1*%
X221855000Y-118350000D03*
X220895000Y-118350000D03*
%TD*%
D12*
%TO.C,C33*%
X224995000Y-96070000D03*
X224995000Y-97030000D03*
%TD*%
D22*
%TO.C,R7*%
X228785000Y-109500000D03*
X227765000Y-109500000D03*
%TD*%
%TO.C,R27*%
X227110000Y-111450000D03*
X226090000Y-111450000D03*
%TD*%
D36*
%TO.C,U11*%
X231625000Y-90820000D03*
X231625000Y-92090000D03*
X231625000Y-93360000D03*
X231625000Y-94630000D03*
X224425000Y-94630000D03*
X224425000Y-93360000D03*
X224425000Y-92090000D03*
X224425000Y-90820000D03*
%TD*%
D23*
%TO.C,R12*%
X234860000Y-89640000D03*
X235880000Y-89640000D03*
%TD*%
D37*
%TO.C,Y4*%
X216350000Y-99275000D03*
X217750000Y-99275000D03*
X217750000Y-100375000D03*
X216350000Y-100375000D03*
%TD*%
D23*
%TO.C,R33*%
X231365000Y-110850000D03*
X232385000Y-110850000D03*
%TD*%
D31*
%TO.C,R41*%
X223575000Y-108460000D03*
X223575000Y-107440000D03*
%TD*%
D23*
%TO.C,R31*%
X231365000Y-108950000D03*
X232385000Y-108950000D03*
%TD*%
D38*
%TO.C,GPS1*%
X212324600Y-115584400D03*
X212324600Y-114334400D03*
X212324600Y-113084400D03*
X212324600Y-111834400D03*
X212324600Y-110584400D03*
X212324600Y-109334400D03*
D39*
X209124600Y-107484400D03*
X209124600Y-117434400D03*
%TD*%
D40*
%TO.C,Q1*%
X234450000Y-92240000D03*
X234450000Y-91590000D03*
X234450000Y-90940000D03*
X236350000Y-90940000D03*
X236350000Y-91590000D03*
X236350000Y-92240000D03*
%TD*%
D41*
%TO.C,U21*%
X232323220Y-107051600D03*
D42*
X233171080Y-96700180D03*
D43*
X231875210Y-96528000D03*
D44*
X230720200Y-96675300D03*
D45*
X234898769Y-98252760D03*
X234898769Y-99352760D03*
X234898769Y-100452760D03*
X234898769Y-101552763D03*
X234898769Y-102652762D03*
X234898769Y-103752760D03*
X234898769Y-104852760D03*
X234898769Y-105952760D03*
%TD*%
D12*
%TO.C,C26*%
X237050000Y-118445000D03*
X237050000Y-119405000D03*
%TD*%
D24*
%TO.C,C2*%
X226300000Y-118830000D03*
X226300000Y-117870000D03*
%TD*%
D22*
%TO.C,R5*%
X217260000Y-119350000D03*
X216240000Y-119350000D03*
%TD*%
D23*
%TO.C,R6*%
X236713020Y-102650810D03*
X237733020Y-102650810D03*
%TD*%
D22*
%TO.C,R3*%
X216310000Y-108800000D03*
X215290000Y-108800000D03*
%TD*%
D11*
%TO.C,C3*%
X218270000Y-107100000D03*
X219230000Y-107100000D03*
%TD*%
D24*
%TO.C,C36*%
X237175000Y-114430000D03*
X237175000Y-113470000D03*
%TD*%
%TO.C,C13*%
X235400000Y-121280000D03*
X235400000Y-120320000D03*
%TD*%
D46*
%TO.C,J5*%
X237450000Y-82925000D03*
X237450000Y-86425000D03*
%TD*%
D24*
%TO.C,C10*%
X222275000Y-111505000D03*
X222275000Y-110545000D03*
%TD*%
D20*
%TO.C,RC1*%
X242624600Y-91759400D03*
X242624600Y-93009400D03*
X242624600Y-94259400D03*
X242624600Y-95509400D03*
X242624600Y-96759400D03*
D21*
X245824600Y-98609400D03*
X245824600Y-89909400D03*
%TD*%
D22*
%TO.C,R21*%
X237733020Y-98250810D03*
X236713020Y-98250810D03*
%TD*%
%TO.C,R2*%
X237733020Y-100450810D03*
X236713020Y-100450810D03*
%TD*%
D12*
%TO.C,C16*%
X231675000Y-113220000D03*
X231675000Y-114180000D03*
%TD*%
D47*
%TO.C,U17*%
X235065000Y-115450000D03*
X235065000Y-114950000D03*
X235065000Y-114450000D03*
X235065000Y-113950000D03*
X235065000Y-113450000D03*
X235065000Y-112950000D03*
X235065000Y-112450000D03*
D48*
X233900000Y-112035000D03*
D47*
X232735000Y-112450000D03*
X232735000Y-112950000D03*
X232735000Y-113450000D03*
X232735000Y-113950000D03*
X232735000Y-114450000D03*
X232735000Y-114950000D03*
X232735000Y-115450000D03*
D48*
X233900000Y-115865000D03*
%TD*%
D23*
%TO.C,R34*%
X239465000Y-100850000D03*
X240485000Y-100850000D03*
%TD*%
%TO.C,R9*%
X236713020Y-104850810D03*
X237733020Y-104850810D03*
%TD*%
D11*
%TO.C,C18*%
X228745000Y-127900000D03*
X229705000Y-127900000D03*
%TD*%
D23*
%TO.C,R22*%
X218235432Y-109065358D03*
X219255432Y-109065358D03*
%TD*%
D49*
%TO.C,J6*%
X239050000Y-129115000D03*
X238250000Y-129115000D03*
D50*
X237050000Y-129115000D03*
X236050000Y-129115000D03*
X235550000Y-129115000D03*
X234550000Y-129115000D03*
D49*
X233350000Y-129115000D03*
X232550000Y-129115000D03*
X232550000Y-129115000D03*
X233350000Y-129115000D03*
D50*
X234050000Y-129115000D03*
X235050000Y-129115000D03*
X236550000Y-129115000D03*
X237550000Y-129115000D03*
D49*
X238250000Y-129115000D03*
X239050000Y-129115000D03*
%TD*%
D20*
%TO.C,LASER1*%
X242650000Y-111875000D03*
X242650000Y-113125000D03*
X242650000Y-114375000D03*
X242650000Y-115625000D03*
D21*
X245850000Y-117475000D03*
X245850000Y-110025000D03*
%TD*%
D38*
%TO.C,I2C1*%
X212300000Y-125075000D03*
X212300000Y-123825000D03*
X212300000Y-122575000D03*
X212300000Y-121325000D03*
D39*
X209100000Y-126925000D03*
X209100000Y-119475000D03*
%TD*%
D11*
%TO.C,C30*%
X215695000Y-98025000D03*
X216655000Y-98025000D03*
%TD*%
D28*
%TO.C,R28*%
X223250000Y-110490000D03*
X223250000Y-111510000D03*
%TD*%
D20*
%TO.C,TELEM1*%
X242624600Y-102384400D03*
X242624600Y-103634400D03*
X242624600Y-104884400D03*
X242624600Y-106134400D03*
D21*
X245824600Y-107984400D03*
X245824600Y-100534400D03*
%TD*%
D24*
%TO.C,C15*%
X236200000Y-114430000D03*
X236200000Y-113470000D03*
%TD*%
D22*
%TO.C,R32*%
X232385000Y-109900000D03*
X231365000Y-109900000D03*
%TD*%
D51*
%TO.C,U4*%
X218980000Y-117760000D03*
X217710000Y-117760000D03*
X216440000Y-117760000D03*
X215170000Y-117760000D03*
X215170000Y-112490000D03*
X216440000Y-112490000D03*
X217710000Y-112490000D03*
X218980000Y-112490000D03*
%TD*%
D38*
%TO.C,POWER1*%
X212324600Y-103584400D03*
X212324600Y-102334400D03*
X212324600Y-101084400D03*
X212324600Y-99834400D03*
X212324600Y-98584400D03*
X212324600Y-97334400D03*
D39*
X209124600Y-105434400D03*
X209124600Y-95484400D03*
%TD*%
D31*
%TO.C,R42*%
X220025000Y-98985000D03*
X220025000Y-97965000D03*
%TD*%
D12*
%TO.C,C14*%
X236375000Y-120320000D03*
X236375000Y-121280000D03*
%TD*%
D11*
%TO.C,C5*%
X218270000Y-106150000D03*
X219230000Y-106150000D03*
%TD*%
D31*
%TO.C,R40*%
X233230000Y-90930000D03*
X233230000Y-89910000D03*
%TD*%
D52*
%TO.C,U7*%
X231990000Y-121425000D03*
X231990000Y-120925000D03*
X231990000Y-120425000D03*
X231990000Y-119925000D03*
D53*
X232650000Y-119765000D03*
X233150000Y-119765000D03*
X233650000Y-119765000D03*
D52*
X234310000Y-119925000D03*
X234310000Y-120425000D03*
X234310000Y-120925000D03*
X234310000Y-121425000D03*
D53*
X233650000Y-121585000D03*
X233150000Y-121585000D03*
X232650000Y-121585000D03*
%TD*%
D54*
%TO.C,L2*%
X212260000Y-92650000D03*
X211290000Y-92650000D03*
%TD*%
D55*
%TO.C,CAM0*%
X227550000Y-130500000D03*
X227050000Y-130500000D03*
X226550000Y-130500000D03*
X226050000Y-130500000D03*
X225550000Y-130500000D03*
X225050000Y-130500000D03*
X224550000Y-130500000D03*
X224050000Y-130500000D03*
X223550000Y-130500000D03*
X223050000Y-130500000D03*
X222550000Y-130500000D03*
X222050000Y-130500000D03*
X221550000Y-130500000D03*
X221050000Y-130500000D03*
X220550000Y-130500000D03*
X220050000Y-130500000D03*
X219550000Y-130500000D03*
X219050000Y-130500000D03*
X218550000Y-130500000D03*
X218050000Y-130500000D03*
X217550000Y-130500000D03*
X217050000Y-130500000D03*
D56*
X229450000Y-133750000D03*
X215150000Y-133750000D03*
%TD*%
D23*
%TO.C,R25*%
X226090000Y-110450000D03*
X227110000Y-110450000D03*
%TD*%
%TO.C,R10*%
X236713020Y-105950810D03*
X237733020Y-105950810D03*
%TD*%
D57*
%TO.C,C28*%
X239050000Y-118450000D03*
X239050000Y-115750000D03*
%TD*%
D22*
%TO.C,R11*%
X225210000Y-111450000D03*
X224190000Y-111450000D03*
%TD*%
M02*
