M48
; DRILL file {KiCad (6.0.0-0)} date Saturday, 19 February 2022 at 21:54:05
; FORMAT={-:-/ absolute / metric / decimal}
; #@! TF.CreationDate,2022-02-19T21:54:05+03:00
; #@! TF.GenerationSoftware,Kicad,Pcbnew,(6.0.0-0)
; #@! TF.FileFunction,Plated,1,4,PTH
FMAT,2
METRIC
; #@! TA.AperFunction,Plated,PTH,ViaDrill
T1C0.200
; #@! TA.AperFunction,Plated,PTH,ViaDrill
T2C0.400
; #@! TA.AperFunction,Plated,PTH,ComponentDrill
T3C0.600
; #@! TA.AperFunction,Plated,PTH,ComponentDrill
T4C1.000
%
G90
G05
T1
X207.95Y-87.55
X207.95Y-88.55
X207.95Y-89.55
X207.95Y-90.55
X207.95Y-91.55
X208.025Y-108.6
X208.025Y-109.15
X208.025Y-110.75
X208.025Y-111.3
X208.025Y-111.85
X208.025Y-112.4
X208.025Y-112.975
X208.15Y-122.075
X208.15Y-122.675
X208.15Y-123.275
X208.2Y-109.9
X208.55Y-124.225
X208.55Y-124.875
X208.55Y-128.175
X208.55Y-128.825
X208.85Y-123.175
X209.05Y-87.55
X209.45Y-123.175
X209.644Y-113.121
X209.65Y-109.9
X209.65Y-111.5
X209.65Y-113.925
X210.05Y-87.55
X210.05Y-88.55
X210.05Y-89.55
X210.05Y-90.55
X210.05Y-97.05
X210.05Y-98.05
X210.05Y-99.05
X210.05Y-100.05
X210.05Y-101.05
X210.05Y-102.05
X210.55Y-97.55
X210.55Y-98.55
X210.55Y-99.55
X210.55Y-100.55
X210.55Y-101.55
X211.05Y-87.55
X212.05Y-87.55
X212.6Y-116.95
X212.8Y-113.7
X212.8Y-116.3
X212.8Y-119.6
X212.8Y-120.15
X212.85Y-108.1
X212.925Y-92.2
X212.932Y-104.55
X212.932Y-105.2
X212.95Y-117.6
X212.975Y-93.3
X212.975Y-93.9
X212.975Y-94.525
X212.975Y-106.0
X213.05Y-87.55
X213.15Y-95.15
X213.45Y-92.45
X213.6Y-95.65
X213.9Y-92.9
X214.05Y-93.525
X214.05Y-94.175
X214.175Y-95.9
X214.2Y-94.75
X214.55Y-82.05
X214.55Y-83.05
X214.55Y-84.05
X214.55Y-85.05
X214.55Y-86.05
X215.119Y-97.344
X215.175Y-115.175
X215.175Y-115.75
X215.175Y-116.325
X215.225Y-107.475
X215.775Y-107.95
X215.925Y-93.925
X216.15Y-90.925
X216.675Y-90.7
X216.75Y-101.3
X217.05Y-133.55
X217.05Y-134.55
X217.65Y-132.025
X217.7Y-85.975
X218.05Y-133.55
X218.05Y-134.55
X218.25Y-132.025
X218.325Y-90.825
X218.45Y-91.55
X218.45Y-92.15
X218.45Y-92.75
X218.6Y-88.65
X218.7Y-102.15
X218.8Y-105.475
X218.9Y-110.75
X218.915Y-109.775
X218.925Y-106.625
X218.972Y-99.546
X219.05Y-91.55
X219.05Y-92.15
X219.05Y-92.75
X219.05Y-133.55
X219.05Y-134.55
X219.275Y-102.15
X219.3Y-115.45
X219.3Y-116.075
X219.4Y-99.234
X219.625Y-91.55
X219.65Y-92.15
X219.65Y-92.75
X219.675Y-119.575
X219.7Y-131.625
X219.75Y-114.975
X219.772Y-106.74
X219.775Y-116.375
X219.85Y-85.4
X219.875Y-120.825
X219.898Y-109.035
X220.05Y-133.55
X220.05Y-134.55
X220.1Y-105.5
X220.1Y-109.525
X220.25Y-90.85
X220.475Y-103.2
X220.8Y-122.35
X220.925Y-117.625
X220.929Y-116.321
X220.975Y-100.425
X221.025Y-103.725
X221.05Y-133.55
X221.05Y-134.55
X221.3Y-112.3
X221.575Y-114.375
X221.575Y-116.325
X221.65Y-96.875
X221.8Y-105.35
X221.8Y-105.95
X221.8Y-110.975
X221.833Y-111.997
X222.05Y-133.55
X222.05Y-134.55
X222.125Y-112.6
X222.225Y-114.375
X222.225Y-115.025
X222.225Y-117.625
X222.225Y-120.225
X222.225Y-120.875
X222.225Y-121.525
X222.225Y-122.8
X222.236Y-118.936
X222.254Y-109.354
X222.325Y-85.4
X222.5Y-112.15
X222.725Y-90.4
X222.725Y-92.24
X222.775Y-93.125
X222.8Y-108.3
X222.875Y-115.675
X222.925Y-98.925
X222.925Y-118.95
X223.0Y-109.1
X223.05Y-133.55
X223.05Y-134.55
X223.1Y-112.15
X223.35Y-116.975
X223.4Y-101.375
X223.4Y-101.95
X223.525Y-114.375
X223.525Y-118.95
X223.525Y-119.575
X223.525Y-120.225
X223.532Y-121.525
X223.6Y-98.925
X223.7Y-112.15
X224.05Y-91.5
X224.05Y-133.55
X224.05Y-134.55
X224.175Y-94.0
X224.175Y-113.725
X224.175Y-116.325
X224.175Y-123.025
X224.275Y-98.525
X224.325Y-107.6
X224.375Y-105.075
X224.65Y-99.05
X224.75Y-115.4
X224.75Y-124.325
X224.825Y-113.075
X224.825Y-116.975
X224.825Y-117.625
X224.825Y-118.275
X224.875Y-119.3
X224.95Y-131.65
X225.0Y-105.075
X225.025Y-100.575
X225.05Y-133.55
X225.05Y-134.55
X225.475Y-113.075
X225.475Y-115.65
X225.475Y-116.975
X225.475Y-117.625
X225.475Y-118.25
X225.475Y-119.65
X225.5Y-123.47
X225.625Y-119.075
X225.775Y-92.725
X226.05Y-133.55
X226.05Y-134.55
X226.118Y-119.525
X226.125Y-113.075
X226.125Y-114.375
X226.125Y-115.025
X226.125Y-116.975
X226.275Y-125.775
X226.45Y-103.5
X226.45Y-131.455
X226.575Y-110.95
X226.668Y-122.63
X226.675Y-123.2
X226.725Y-90.65
X226.75Y-94.875
X226.775Y-120.875
X226.95Y-131.75
X226.975Y-115.625
X227.0Y-116.55
X227.05Y-133.55
X227.05Y-134.55
X227.08Y-104.72
X227.09Y-103.24
X227.09Y-103.87
X227.2Y-108.55
X227.225Y-118.275
X227.425Y-113.725
X227.5Y-127.85
X227.55Y-128.45
X227.55Y-131.825
X227.675Y-95.7
X227.675Y-98.55
X227.675Y-99.2
X227.8Y-100.35
X228.05Y-94.05
X228.05Y-133.55
X228.05Y-134.55
X228.075Y-113.075
X228.075Y-113.725
X228.075Y-115.675
X228.075Y-120.225
X228.075Y-121.525
X228.075Y-118.918
X228.15Y-112.025
X228.2Y-108.75
X228.4Y-122.5
X228.7Y-121.5
X228.725Y-112.025
X228.725Y-113.725
X228.725Y-115.025
X228.725Y-115.675
X228.725Y-116.975
X228.725Y-118.275
X228.732Y-120.225
X228.775Y-106.614
X228.875Y-105.075
X228.9Y-123.15
X229.05Y-94.05
X229.07Y-122.52
X229.375Y-92.425
X229.375Y-118.925
X229.375Y-119.568
X229.625Y-112.025
X229.875Y-125.05
X230.075Y-118.25
X230.15Y-130.975
X230.25Y-112.025
X230.25Y-112.6
X230.4Y-113.6
X230.4Y-114.375
X230.4Y-114.975
X230.46Y-118.7
X230.484Y-124.525
X230.595Y-105.195
X231.055Y-105.655
X231.07Y-100.05
X232.575Y-124.1
X232.7Y-116.875
X232.825Y-118.775
X232.9Y-111.875
X233.05Y-98.55
X233.05Y-99.55
X233.05Y-100.55
X233.05Y-101.55
X233.05Y-102.55
X233.05Y-103.55
X233.15Y-124.1
X233.3Y-105.9
X233.65Y-113.0
X233.65Y-113.725
X233.675Y-116.725
X233.775Y-122.6
X233.875Y-130.425
X234.225Y-122.325
X234.425Y-111.975
X234.5Y-93.75
X234.554Y-116.475
X234.95Y-119.444
X235.025Y-116.025
X235.05Y-107.05
X235.15Y-118.875
X235.35Y-94.15
X235.75Y-124.525
X235.85Y-111.3
X235.925Y-115.225
X236.05Y-107.05
X236.05Y-108.55
X236.05Y-109.55
X236.05Y-110.55
X236.525Y-101.55
X236.55Y-109.05
X236.55Y-110.05
X236.6Y-111.525
X236.65Y-124.55
X236.9Y-123.075
X236.925Y-127.95
X237.05Y-107.05
X237.05Y-108.55
X237.05Y-109.55
X237.05Y-110.55
X237.25Y-111.525
X237.429Y-121.025
X237.45Y-122.725
X237.475Y-120.15
X237.675Y-124.95
X238.35Y-104.85
X238.5Y-99.025
X238.5Y-99.925
X238.55Y-107.55
X238.55Y-108.55
X238.625Y-102.5
X238.725Y-120.65
X238.95Y-104.85
X239.05Y-107.05
X239.05Y-108.05
X239.8Y-120.675
X239.975Y-87.35
X240.05Y-105.575
X240.475Y-96.125
X240.5Y-102.825
X240.525Y-107.5
X240.525Y-111.35
X240.525Y-111.9
X240.85Y-96.7
X241.225Y-116.2
X241.225Y-116.825
X241.375Y-115.325
X241.7Y-97.8
X241.75Y-108.5
X241.85Y-109.225
X242.0Y-98.7
X242.0Y-100.275
X242.175Y-105.5
X242.175Y-106.9
X243.7Y-99.175
X243.7Y-99.875
X243.725Y-108.75
X243.8Y-100.675
X243.825Y-111.25
X243.825Y-112.675
X243.875Y-105.45
X244.3Y-102.4
X244.372Y-103.503
X244.375Y-104.05
X244.375Y-104.625
X245.25Y-95.95
X245.25Y-96.9
X246.175Y-88.9
X246.725Y-110.975
X246.775Y-128.2
X246.775Y-128.9
X246.775Y-129.6
T2
X208.125Y-120.75
X211.125Y-106.45
X214.55Y-100.125
X233.575Y-127.775
X234.775Y-130.9
X237.75Y-127.8
X237.87Y-92.53
X238.3Y-134.25
X241.275Y-124.8
X242.2Y-117.35
X242.35Y-90.7
X243.875Y-96.35
X243.875Y-106.575
T4
X215.975Y-103.6
X215.975Y-106.14
X216.0Y-82.2
X216.0Y-84.74
X216.0Y-87.28
X218.54Y-82.2
X218.54Y-84.74
X218.54Y-87.28
X221.08Y-82.2
X221.08Y-84.74
X221.08Y-87.28
X223.62Y-82.2
X223.62Y-84.74
X223.62Y-87.28
X226.16Y-82.2
X226.16Y-84.74
X226.16Y-87.28
X228.7Y-82.2
X228.7Y-84.74
X228.7Y-87.28
X231.24Y-82.2
X231.24Y-84.74
X231.24Y-87.28
X233.78Y-82.2
X233.78Y-84.74
X233.78Y-87.28
T3
G00X231.48Y-130.58
M15
G01X231.48Y-129.48
M16
G05
G00X231.48Y-134.51
M15
G01X231.48Y-133.91
M16
G05
G00X240.12Y-130.58
M15
G01X240.12Y-129.48
M16
G05
G00X240.12Y-134.51
M15
G01X240.12Y-133.91
M16
G05
T0
M30
