%TF.GenerationSoftware,KiCad,Pcbnew,(6.0.0-0)*%
%TF.CreationDate,2022-02-19T21:54:15+03:00*%
%TF.ProjectId,CopterCat_cm4,436f7074-6572-4436-9174-5f636d342e6b,rev?*%
%TF.SameCoordinates,Original*%
%TF.FileFunction,Other,User*%
%FSLAX46Y46*%
G04 Gerber Fmt 4.6, Leading zero omitted, Abs format (unit mm)*
G04 Created by KiCad (PCBNEW (6.0.0-0)) date 2022-02-19 21:54:15*
%MOMM*%
%LPD*%
G01*
G04 APERTURE LIST*
%ADD10C,0.050000*%
%ADD11C,0.120000*%
G04 APERTURE END LIST*
D10*
%TO.C,U9*%
X247600000Y-126600000D02*
X247600000Y-117800000D01*
X240400000Y-126600000D02*
X247600000Y-126600000D01*
X240400000Y-117800000D02*
X240400000Y-126600000D01*
X247600000Y-117800000D02*
X240400000Y-117800000D01*
%TO.C,R17*%
X232695000Y-92945000D02*
X232695000Y-94805000D01*
X232695000Y-94805000D02*
X231755000Y-94805000D01*
X231755000Y-94805000D02*
X231755000Y-92945000D01*
X231755000Y-92945000D02*
X232695000Y-92945000D01*
%TO.C,U8*%
X223050000Y-93700000D02*
X217850000Y-93700000D01*
X223050000Y-98900000D02*
X223050000Y-93700000D01*
X217850000Y-93700000D02*
X217850000Y-98900000D01*
X217850000Y-98900000D02*
X223050000Y-98900000D01*
%TO.C,IO19*%
X241700000Y-81775000D02*
G75*
G03*
X241700000Y-81775000I-1250000J0D01*
G01*
%TO.C,R38*%
X232195000Y-129005000D02*
X234055000Y-129005000D01*
X234055000Y-129005000D02*
X234055000Y-129945000D01*
X234055000Y-129945000D02*
X232195000Y-129945000D01*
X232195000Y-129945000D02*
X232195000Y-129005000D01*
%TO.C,R20*%
X241620000Y-101655000D02*
X240680000Y-101655000D01*
X241620000Y-99795000D02*
X241620000Y-101655000D01*
X240680000Y-99795000D02*
X241620000Y-99795000D01*
X240680000Y-101655000D02*
X240680000Y-99795000D01*
%TO.C,R48*%
X223420000Y-106580000D02*
X225280000Y-106580000D01*
X223420000Y-107520000D02*
X223420000Y-106580000D01*
X225280000Y-107520000D02*
X223420000Y-107520000D01*
X225280000Y-106580000D02*
X225280000Y-107520000D01*
%TO.C,R15*%
X223605000Y-90405000D02*
X223605000Y-91345000D01*
X223605000Y-91345000D02*
X221745000Y-91345000D01*
X221745000Y-90405000D02*
X223605000Y-90405000D01*
X221745000Y-91345000D02*
X221745000Y-90405000D01*
%TO.C,U19*%
X228500000Y-99270000D02*
X221300000Y-99270000D01*
X228500000Y-106470000D02*
X228500000Y-99270000D01*
X221300000Y-106470000D02*
X228500000Y-106470000D01*
X221300000Y-99270000D02*
X221300000Y-106470000D01*
%TO.C,R51*%
X229470000Y-99120000D02*
X229470000Y-100980000D01*
X229470000Y-100980000D02*
X228530000Y-100980000D01*
X228530000Y-100980000D02*
X228530000Y-99120000D01*
X228530000Y-99120000D02*
X229470000Y-99120000D01*
%TO.C,C9*%
X229465000Y-111260000D02*
X229465000Y-109440000D01*
X230385000Y-109440000D02*
X230385000Y-111260000D01*
X230385000Y-111260000D02*
X229465000Y-111260000D01*
X229465000Y-109440000D02*
X230385000Y-109440000D01*
%TO.C,GND1*%
X247425000Y-87625000D02*
G75*
G03*
X247425000Y-87625000I-1250000J0D01*
G01*
%TO.C,C25*%
X240340000Y-95810000D02*
X240340000Y-93990000D01*
X241260000Y-95810000D02*
X240340000Y-95810000D01*
X240340000Y-93990000D02*
X241260000Y-93990000D01*
X241260000Y-93990000D02*
X241260000Y-95810000D01*
%TO.C,Q8*%
X241450000Y-91250000D02*
X241450000Y-93750000D01*
X244250000Y-91250000D02*
X241450000Y-91250000D01*
X241450000Y-93750000D02*
X244250000Y-93750000D01*
X244250000Y-93750000D02*
X244250000Y-91250000D01*
%TO.C,C20*%
X228530000Y-102860000D02*
X228530000Y-101040000D01*
X228530000Y-101040000D02*
X229450000Y-101040000D01*
X229450000Y-101040000D02*
X229450000Y-102860000D01*
X229450000Y-102860000D02*
X228530000Y-102860000D01*
%TO.C,C8*%
X226340000Y-110340000D02*
X226340000Y-111260000D01*
X224520000Y-110340000D02*
X226340000Y-110340000D01*
X224520000Y-111260000D02*
X224520000Y-110340000D01*
X226340000Y-111260000D02*
X224520000Y-111260000D01*
%TO.C,R43*%
X235955000Y-118645000D02*
X236895000Y-118645000D01*
X235955000Y-120505000D02*
X235955000Y-118645000D01*
X236895000Y-118645000D02*
X236895000Y-120505000D01*
X236895000Y-120505000D02*
X235955000Y-120505000D01*
%TO.C,U13*%
X240400000Y-123300000D02*
X237600000Y-123300000D01*
X240400000Y-123300000D02*
X240400000Y-126500000D01*
X237600000Y-123300000D02*
X237600000Y-126500000D01*
X237600000Y-126500000D02*
X240400000Y-126500000D01*
%TO.C,R50*%
X238170000Y-126630000D02*
X240030000Y-126630000D01*
X240030000Y-127570000D02*
X238170000Y-127570000D01*
X238170000Y-127570000D02*
X238170000Y-126630000D01*
X240030000Y-126630000D02*
X240030000Y-127570000D01*
%TO.C,Q3*%
X217825000Y-95700000D02*
X215025000Y-95700000D01*
X215025000Y-95700000D02*
X215025000Y-98900000D01*
X215025000Y-98900000D02*
X217825000Y-98900000D01*
X217825000Y-95700000D02*
X217825000Y-98900000D01*
%TO.C,C21*%
X229450000Y-102900000D02*
X229450000Y-104720000D01*
X228530000Y-102900000D02*
X229450000Y-102900000D01*
X228530000Y-104720000D02*
X228530000Y-102900000D01*
X229450000Y-104720000D02*
X228530000Y-104720000D01*
%TO.C,Q7*%
X235900000Y-120120000D02*
X235900000Y-116280000D01*
X232500000Y-116280000D02*
X232500000Y-120120000D01*
X235900000Y-116280000D02*
X232500000Y-116280000D01*
X232500000Y-120120000D02*
X235900000Y-120120000D01*
%TO.C,C7*%
X221315000Y-108465000D02*
X222235000Y-108465000D01*
X222235000Y-108465000D02*
X222235000Y-110285000D01*
X221315000Y-110285000D02*
X221315000Y-108465000D01*
X222235000Y-110285000D02*
X221315000Y-110285000D01*
%TO.C,R29*%
X239670000Y-108495000D02*
X239670000Y-107555000D01*
X241530000Y-107555000D02*
X241530000Y-108495000D01*
X239670000Y-107555000D02*
X241530000Y-107555000D01*
X241530000Y-108495000D02*
X239670000Y-108495000D01*
%TO.C,Y1*%
X225930000Y-110300000D02*
X225930000Y-107700000D01*
X225930000Y-107700000D02*
X223130000Y-107700000D01*
X223130000Y-110300000D02*
X225930000Y-110300000D01*
X223130000Y-107700000D02*
X223130000Y-110300000D01*
%TO.C,IO14*%
X243100000Y-87625000D02*
G75*
G03*
X243100000Y-87625000I-1250000J0D01*
G01*
%TO.C,U15*%
X237550000Y-124690000D02*
X237550000Y-126510000D01*
X237550000Y-126510000D02*
X234550000Y-126510000D01*
X234550000Y-124690000D02*
X237550000Y-124690000D01*
X234550000Y-126510000D02*
X234550000Y-124690000D01*
%TO.C,R47*%
X241270000Y-93930000D02*
X240330000Y-93930000D01*
X240330000Y-93930000D02*
X240330000Y-92070000D01*
X241270000Y-92070000D02*
X241270000Y-93930000D01*
X240330000Y-92070000D02*
X241270000Y-92070000D01*
%TO.C,Q4*%
X235700000Y-134920000D02*
X239100000Y-134920000D01*
X239100000Y-131080000D02*
X235700000Y-131080000D01*
X235700000Y-131080000D02*
X235700000Y-134920000D01*
X239100000Y-134920000D02*
X239100000Y-131080000D01*
%TO.C,C22*%
X228540000Y-107735000D02*
X228540000Y-106815000D01*
X228540000Y-106815000D02*
X230360000Y-106815000D01*
X230360000Y-106815000D02*
X230360000Y-107735000D01*
X230360000Y-107735000D02*
X228540000Y-107735000D01*
D11*
%TO.C,U6*%
X212430000Y-94100000D02*
X212430000Y-116900000D01*
X242570000Y-116900000D02*
X242570000Y-94100000D01*
X246350000Y-116900000D02*
X242570000Y-116900000D01*
X208650000Y-94100000D02*
X212430000Y-94100000D01*
X212430000Y-116900000D02*
X208650000Y-116900000D01*
X208650000Y-116900000D02*
X208650000Y-94100000D01*
X242570000Y-94100000D02*
X246350000Y-94100000D01*
X246350000Y-94100000D02*
X246350000Y-116900000D01*
D10*
%TO.C,R39*%
X239180000Y-128230000D02*
X239180000Y-129170000D01*
X237320000Y-128230000D02*
X239180000Y-128230000D01*
X237320000Y-129170000D02*
X237320000Y-128230000D01*
X239180000Y-129170000D02*
X237320000Y-129170000D01*
%TO.C,R52*%
X228520000Y-105430000D02*
X230380000Y-105430000D01*
X230380000Y-106370000D02*
X228520000Y-106370000D01*
X228520000Y-106370000D02*
X228520000Y-105430000D01*
X230380000Y-105430000D02*
X230380000Y-106370000D01*
%TO.C,Y3*%
X229480000Y-101490000D02*
X229480000Y-104290000D01*
X229480000Y-104290000D02*
X232080000Y-104290000D01*
X232080000Y-104290000D02*
X232080000Y-101490000D01*
X232080000Y-101490000D02*
X229480000Y-101490000D01*
%TO.C,C42*%
X224440000Y-95490000D02*
X225360000Y-95490000D01*
X225360000Y-95490000D02*
X225360000Y-97310000D01*
X225360000Y-97310000D02*
X224440000Y-97310000D01*
X224440000Y-97310000D02*
X224440000Y-95490000D01*
%TO.C,CAM1*%
X230850000Y-129350000D02*
X213750000Y-129350000D01*
X230850000Y-137250000D02*
X230850000Y-129350000D01*
X213750000Y-137250000D02*
X230850000Y-137250000D01*
X213750000Y-129350000D02*
X213750000Y-137250000D01*
%TO.C,C19*%
X214885000Y-98910000D02*
X213965000Y-98910000D01*
X213965000Y-98910000D02*
X213965000Y-97090000D01*
X214885000Y-97090000D02*
X214885000Y-98910000D01*
X213965000Y-97090000D02*
X214885000Y-97090000D01*
%TO.C,C41*%
X245000000Y-128750000D02*
X240400000Y-128750000D01*
X240400000Y-128750000D02*
X240400000Y-126650000D01*
X240400000Y-126650000D02*
X245000000Y-126650000D01*
X245000000Y-126650000D02*
X245000000Y-128750000D01*
%TO.C,U3*%
X221310000Y-108072500D02*
X221310000Y-110492500D01*
X218890000Y-110492500D02*
X218890000Y-108072500D01*
X221310000Y-110492500D02*
X218890000Y-110492500D01*
X218890000Y-108072500D02*
X221310000Y-108072500D01*
%TO.C,U1*%
X219150000Y-123300000D02*
X231150000Y-123300000D01*
X219150000Y-111300000D02*
X219150000Y-123300000D01*
X231150000Y-111300000D02*
X219150000Y-111300000D01*
X231150000Y-123300000D02*
X231150000Y-111300000D01*
%TO.C,IO20*%
X241075000Y-84650000D02*
G75*
G03*
X241075000Y-84650000I-1250000J0D01*
G01*
%TO.C,C40*%
X227325000Y-97575000D02*
X227325000Y-95475000D01*
X231925000Y-95475000D02*
X231925000Y-97575000D01*
X231925000Y-97575000D02*
X227325000Y-97575000D01*
X227325000Y-95475000D02*
X231925000Y-95475000D01*
%TO.C,C24*%
X240340000Y-119415000D02*
X240340000Y-120335000D01*
X238520000Y-120335000D02*
X238520000Y-119415000D01*
X240340000Y-120335000D02*
X238520000Y-120335000D01*
X238520000Y-119415000D02*
X240340000Y-119415000D01*
%TO.C,C44*%
X226335000Y-97310000D02*
X225415000Y-97310000D01*
X226335000Y-95490000D02*
X226335000Y-97310000D01*
X225415000Y-95490000D02*
X226335000Y-95490000D01*
X225415000Y-97310000D02*
X225415000Y-95490000D01*
%TO.C,IC1*%
X224325000Y-90025000D02*
X231725000Y-90025000D01*
X231725000Y-95425000D02*
X224325000Y-95425000D01*
X231725000Y-90025000D02*
X231725000Y-95425000D01*
X224325000Y-95425000D02*
X224325000Y-90025000D01*
%TO.C,R30*%
X239670000Y-109495000D02*
X239670000Y-108555000D01*
X241530000Y-108555000D02*
X241530000Y-109495000D01*
X241530000Y-109495000D02*
X239670000Y-109495000D01*
X239670000Y-108555000D02*
X241530000Y-108555000D01*
%TO.C,C12*%
X226065000Y-110310000D02*
X226065000Y-108490000D01*
X226985000Y-110310000D02*
X226065000Y-110310000D01*
X226985000Y-108490000D02*
X226985000Y-110310000D01*
X226065000Y-108490000D02*
X226985000Y-108490000D01*
%TO.C,R35*%
X238655000Y-112845000D02*
X239595000Y-112845000D01*
X239595000Y-114705000D02*
X238655000Y-114705000D01*
X239595000Y-112845000D02*
X239595000Y-114705000D01*
X238655000Y-114705000D02*
X238655000Y-112845000D01*
%TO.C,R8*%
X238270000Y-122330000D02*
X240130000Y-122330000D01*
X240130000Y-123270000D02*
X238270000Y-123270000D01*
X240130000Y-122330000D02*
X240130000Y-123270000D01*
X238270000Y-123270000D02*
X238270000Y-122330000D01*
%TO.C,R54*%
X231030000Y-133230000D02*
X231030000Y-131370000D01*
X231030000Y-131370000D02*
X231970000Y-131370000D01*
X231970000Y-131370000D02*
X231970000Y-133230000D01*
X231970000Y-133230000D02*
X231030000Y-133230000D01*
%TO.C,R56*%
X240330000Y-92030000D02*
X240330000Y-90170000D01*
X241270000Y-90170000D02*
X241270000Y-92030000D01*
X240330000Y-90170000D02*
X241270000Y-90170000D01*
X241270000Y-92030000D02*
X240330000Y-92030000D01*
%TO.C,R53*%
X227180000Y-106580000D02*
X227180000Y-107520000D01*
X227180000Y-107520000D02*
X225320000Y-107520000D01*
X225320000Y-107520000D02*
X225320000Y-106580000D01*
X225320000Y-106580000D02*
X227180000Y-106580000D01*
%TO.C,C23*%
X228540000Y-108710000D02*
X228540000Y-107790000D01*
X230360000Y-107790000D02*
X230360000Y-108710000D01*
X230360000Y-108710000D02*
X228540000Y-108710000D01*
X228540000Y-107790000D02*
X230360000Y-107790000D01*
%TO.C,C6*%
X219490000Y-106965000D02*
X221310000Y-106965000D01*
X221310000Y-106965000D02*
X221310000Y-107885000D01*
X221310000Y-107885000D02*
X219490000Y-107885000D01*
X219490000Y-107885000D02*
X219490000Y-106965000D01*
%TO.C,Q5*%
X232300000Y-134920000D02*
X235700000Y-134920000D01*
X232300000Y-131080000D02*
X232300000Y-134920000D01*
X235700000Y-131080000D02*
X232300000Y-131080000D01*
X235700000Y-134920000D02*
X235700000Y-131080000D01*
%TO.C,R36*%
X241530000Y-113805000D02*
X241530000Y-114745000D01*
X239670000Y-113805000D02*
X241530000Y-113805000D01*
X241530000Y-114745000D02*
X239670000Y-114745000D01*
X239670000Y-114745000D02*
X239670000Y-113805000D01*
%TO.C,C38*%
X235675000Y-84475000D02*
X237775000Y-84475000D01*
X237775000Y-84475000D02*
X237775000Y-89075000D01*
X237775000Y-89075000D02*
X235675000Y-89075000D01*
X235675000Y-89075000D02*
X235675000Y-84475000D01*
%TO.C,R18*%
X215945000Y-94730000D02*
X217805000Y-94730000D01*
X217805000Y-95670000D02*
X215945000Y-95670000D01*
X215945000Y-95670000D02*
X215945000Y-94730000D01*
X217805000Y-94730000D02*
X217805000Y-95670000D01*
%TO.C,R19*%
X240680000Y-99755000D02*
X240680000Y-97895000D01*
X241620000Y-97895000D02*
X241620000Y-99755000D01*
X241620000Y-99755000D02*
X240680000Y-99755000D01*
X240680000Y-97895000D02*
X241620000Y-97895000D01*
%TO.C,R44*%
X235955000Y-116745000D02*
X236895000Y-116745000D01*
X236895000Y-116745000D02*
X236895000Y-118605000D01*
X236895000Y-118605000D02*
X235955000Y-118605000D01*
X235955000Y-118605000D02*
X235955000Y-116745000D01*
%TO.C,R55*%
X239180000Y-129180000D02*
X239180000Y-130120000D01*
X237320000Y-130120000D02*
X237320000Y-129180000D01*
X237320000Y-129180000D02*
X239180000Y-129180000D01*
X239180000Y-130120000D02*
X237320000Y-130120000D01*
%TO.C,C43*%
X226340000Y-97310000D02*
X226340000Y-95490000D01*
X227260000Y-95490000D02*
X227260000Y-97310000D01*
X226340000Y-95490000D02*
X227260000Y-95490000D01*
X227260000Y-97310000D02*
X226340000Y-97310000D01*
%TO.C,R16*%
X223605000Y-91380000D02*
X223605000Y-92320000D01*
X221745000Y-91380000D02*
X223605000Y-91380000D01*
X221745000Y-92320000D02*
X221745000Y-91380000D01*
X223605000Y-92320000D02*
X221745000Y-92320000D01*
%TO.C,C35*%
X239585000Y-110910000D02*
X238665000Y-110910000D01*
X238665000Y-110910000D02*
X238665000Y-109090000D01*
X238665000Y-109090000D02*
X239585000Y-109090000D01*
X239585000Y-109090000D02*
X239585000Y-110910000D01*
%TO.C,D5*%
X224500000Y-126725000D02*
X226400000Y-126725000D01*
X224500000Y-126725000D02*
X224500000Y-123525000D01*
X224500000Y-123525000D02*
X226400000Y-123525000D01*
X226400000Y-126725000D02*
X226400000Y-123525000D01*
%TO.C,R57*%
X231270000Y-121620000D02*
X231270000Y-120680000D01*
X233130000Y-120680000D02*
X233130000Y-121620000D01*
X231270000Y-120680000D02*
X233130000Y-120680000D01*
X233130000Y-121620000D02*
X231270000Y-121620000D01*
%TO.C,U16*%
X239650000Y-109550000D02*
X242250000Y-109550000D01*
X239650000Y-113750000D02*
X242250000Y-113750000D01*
X242250000Y-113750000D02*
X242250000Y-109550000D01*
X239650000Y-113750000D02*
X239650000Y-109550000D01*
%TO.C,C27*%
X221685000Y-91390000D02*
X221685000Y-92310000D01*
X221685000Y-92310000D02*
X219865000Y-92310000D01*
X219865000Y-92310000D02*
X219865000Y-91390000D01*
X219865000Y-91390000D02*
X221685000Y-91390000D01*
%TO.C,Q6*%
X240350000Y-119370000D02*
X240350000Y-115530000D01*
X240350000Y-115530000D02*
X236950000Y-115530000D01*
X236950000Y-115530000D02*
X236950000Y-119370000D01*
X236950000Y-119370000D02*
X240350000Y-119370000D01*
%TO.C,C37*%
X233240000Y-122060000D02*
X233240000Y-120240000D01*
X234160000Y-122060000D02*
X233240000Y-122060000D01*
X234160000Y-120240000D02*
X234160000Y-122060000D01*
X233240000Y-120240000D02*
X234160000Y-120240000D01*
%TO.C,C11*%
X222690000Y-111260000D02*
X222690000Y-110340000D01*
X224510000Y-111260000D02*
X222690000Y-111260000D01*
X222690000Y-110340000D02*
X224510000Y-110340000D01*
X224510000Y-110340000D02*
X224510000Y-111260000D01*
%TO.C,Y2*%
X229425000Y-109450000D02*
X227025000Y-109450000D01*
X229425000Y-111250000D02*
X229425000Y-109450000D01*
X227025000Y-109450000D02*
X227025000Y-111250000D01*
X227025000Y-111250000D02*
X229425000Y-111250000D01*
%TO.C,R37*%
X238655000Y-112805000D02*
X238655000Y-110945000D01*
X239595000Y-110945000D02*
X239595000Y-112805000D01*
X239595000Y-112805000D02*
X238655000Y-112805000D01*
X238655000Y-110945000D02*
X239595000Y-110945000D01*
%TO.C,R49*%
X228520000Y-108380000D02*
X227580000Y-108380000D01*
X227580000Y-108380000D02*
X227580000Y-106520000D01*
X228520000Y-106520000D02*
X228520000Y-108380000D01*
X227580000Y-106520000D02*
X228520000Y-106520000D01*
%TO.C,U12*%
X239950000Y-97950000D02*
X239950000Y-89150000D01*
X232750000Y-89150000D02*
X232750000Y-97950000D01*
X239950000Y-89150000D02*
X232750000Y-89150000D01*
X232750000Y-97950000D02*
X239950000Y-97950000D01*
%TD*%
M02*
