%TF.GenerationSoftware,KiCad,Pcbnew,(6.0.0-0)*%
%TF.CreationDate,2022-02-19T21:54:14+03:00*%
%TF.ProjectId,CopterCat_cm4,436f7074-6572-4436-9174-5f636d342e6b,rev?*%
%TF.SameCoordinates,Original*%
%TF.FileFunction,Legend,Top*%
%TF.FilePolarity,Positive*%
%FSLAX46Y46*%
G04 Gerber Fmt 4.6, Leading zero omitted, Abs format (unit mm)*
G04 Created by KiCad (PCBNEW (6.0.0-0)) date 2022-02-19 21:54:14*
%MOMM*%
%LPD*%
G01*
G04 APERTURE LIST*
G04 Aperture macros list*
%AMRoundRect*
0 Rectangle with rounded corners*
0 $1 Rounding radius*
0 $2 $3 $4 $5 $6 $7 $8 $9 X,Y pos of 4 corners*
0 Add a 4 corners polygon primitive as box body*
4,1,4,$2,$3,$4,$5,$6,$7,$8,$9,$2,$3,0*
0 Add four circle primitives for the rounded corners*
1,1,$1+$1,$2,$3*
1,1,$1+$1,$4,$5*
1,1,$1+$1,$6,$7*
1,1,$1+$1,$8,$9*
0 Add four rect primitives between the rounded corners*
20,1,$1+$1,$2,$3,$4,$5,0*
20,1,$1+$1,$4,$5,$6,$7,0*
20,1,$1+$1,$6,$7,$8,$9,0*
20,1,$1+$1,$8,$9,$2,$3,0*%
G04 Aperture macros list end*
%ADD10C,0.150000*%
%ADD11C,0.100000*%
%ADD12C,0.254000*%
%ADD13C,0.120000*%
%ADD14C,0.127000*%
%ADD15C,0.200000*%
%ADD16R,1.500000X2.000000*%
%ADD17R,3.800000X2.000000*%
%ADD18RoundRect,0.135000X-0.185000X0.135000X-0.185000X-0.135000X0.185000X-0.135000X0.185000X0.135000X0*%
%ADD19RoundRect,0.062500X0.350000X0.062500X-0.350000X0.062500X-0.350000X-0.062500X0.350000X-0.062500X0*%
%ADD20RoundRect,0.062500X0.062500X0.350000X-0.062500X0.350000X-0.062500X-0.350000X0.062500X-0.350000X0*%
%ADD21R,2.600000X2.600000*%
%ADD22C,1.500000*%
%ADD23RoundRect,0.135000X0.135000X0.185000X-0.135000X0.185000X-0.135000X-0.185000X0.135000X-0.185000X0*%
%ADD24RoundRect,0.135000X0.185000X-0.135000X0.185000X0.135000X-0.185000X0.135000X-0.185000X-0.135000X0*%
%ADD25RoundRect,0.135000X-0.135000X-0.185000X0.135000X-0.185000X0.135000X0.185000X-0.135000X0.185000X0*%
%ADD26RoundRect,0.062500X-0.062500X0.350000X-0.062500X-0.350000X0.062500X-0.350000X0.062500X0.350000X0*%
%ADD27RoundRect,0.062500X-0.350000X0.062500X-0.350000X-0.062500X0.350000X-0.062500X0.350000X0.062500X0*%
%ADD28R,3.700000X3.700000*%
%ADD29RoundRect,0.140000X-0.170000X0.140000X-0.170000X-0.140000X0.170000X-0.140000X0.170000X0.140000X0*%
%ADD30R,0.425000X0.400000*%
%ADD31R,1.150000X0.950000*%
%ADD32R,0.750000X0.300000*%
%ADD33RoundRect,0.140000X0.140000X0.170000X-0.140000X0.170000X-0.140000X-0.170000X0.140000X-0.170000X0*%
%ADD34R,0.400000X0.650000*%
%ADD35RoundRect,0.150000X-0.150000X0.587500X-0.150000X-0.587500X0.150000X-0.587500X0.150000X0.587500X0*%
%ADD36R,0.900000X0.800000*%
%ADD37R,0.300000X0.550000*%
%ADD38R,0.400000X0.550000*%
%ADD39C,6.100000*%
%ADD40R,0.700000X0.200000*%
%ADD41R,0.800000X0.900000*%
%ADD42R,0.300000X1.300000*%
%ADD43R,1.800000X2.200000*%
%ADD44RoundRect,0.250000X-0.450000X-0.425000X0.450000X-0.425000X0.450000X0.425000X-0.450000X0.425000X0*%
%ADD45RoundRect,0.007000X-0.183000X0.168000X-0.183000X-0.168000X0.183000X-0.168000X0.183000X0.168000X0*%
%ADD46C,0.300000*%
%ADD47RoundRect,0.140000X-0.140000X-0.170000X0.140000X-0.170000X0.140000X0.170000X-0.140000X0.170000X0*%
%ADD48R,1.500000X0.650000*%
%ADD49RoundRect,0.140000X0.170000X-0.140000X0.170000X0.140000X-0.170000X0.140000X-0.170000X-0.140000X0*%
%ADD50RoundRect,0.150000X0.150000X-0.587500X0.150000X0.587500X-0.150000X0.587500X-0.150000X-0.587500X0*%
%ADD51RoundRect,0.250000X0.425000X-0.450000X0.425000X0.450000X-0.425000X0.450000X-0.425000X-0.450000X0*%
%ADD52R,0.450000X0.600000*%
%ADD53R,0.300000X0.750000*%
%ADD54R,1.500000X1.300000*%
%ADD55R,0.600000X1.200000*%
%ADD56R,1.700000X1.700000*%
%ADD57O,1.700000X1.700000*%
%ADD58C,0.950000*%
%ADD59C,0.650000*%
%ADD60O,1.000000X2.100000*%
%ADD61O,1.000000X1.600000*%
G04 APERTURE END LIST*
D10*
%TO.C,U9*%
X243288095Y-121002380D02*
X243288095Y-121811904D01*
X243335714Y-121907142D01*
X243383333Y-121954761D01*
X243478571Y-122002380D01*
X243669047Y-122002380D01*
X243764285Y-121954761D01*
X243811904Y-121907142D01*
X243859523Y-121811904D01*
X243859523Y-121002380D01*
X244383333Y-122002380D02*
X244573809Y-122002380D01*
X244669047Y-121954761D01*
X244716666Y-121907142D01*
X244811904Y-121764285D01*
X244859523Y-121573809D01*
X244859523Y-121192857D01*
X244811904Y-121097619D01*
X244764285Y-121050000D01*
X244669047Y-121002380D01*
X244478571Y-121002380D01*
X244383333Y-121050000D01*
X244335714Y-121097619D01*
X244288095Y-121192857D01*
X244288095Y-121430952D01*
X244335714Y-121526190D01*
X244383333Y-121573809D01*
X244478571Y-121621428D01*
X244669047Y-121621428D01*
X244764285Y-121573809D01*
X244811904Y-121526190D01*
X244859523Y-121430952D01*
%TO.C,U8*%
X217578095Y-92502380D02*
X217578095Y-93311904D01*
X217625714Y-93407142D01*
X217673333Y-93454761D01*
X217768571Y-93502380D01*
X217959047Y-93502380D01*
X218054285Y-93454761D01*
X218101904Y-93407142D01*
X218149523Y-93311904D01*
X218149523Y-92502380D01*
X218768571Y-92930952D02*
X218673333Y-92883333D01*
X218625714Y-92835714D01*
X218578095Y-92740476D01*
X218578095Y-92692857D01*
X218625714Y-92597619D01*
X218673333Y-92550000D01*
X218768571Y-92502380D01*
X218959047Y-92502380D01*
X219054285Y-92550000D01*
X219101904Y-92597619D01*
X219149523Y-92692857D01*
X219149523Y-92740476D01*
X219101904Y-92835714D01*
X219054285Y-92883333D01*
X218959047Y-92930952D01*
X218768571Y-92930952D01*
X218673333Y-92978571D01*
X218625714Y-93026190D01*
X218578095Y-93121428D01*
X218578095Y-93311904D01*
X218625714Y-93407142D01*
X218673333Y-93454761D01*
X218768571Y-93502380D01*
X218959047Y-93502380D01*
X219054285Y-93454761D01*
X219101904Y-93407142D01*
X219149523Y-93311904D01*
X219149523Y-93121428D01*
X219101904Y-93026190D01*
X219054285Y-92978571D01*
X218959047Y-92930952D01*
D11*
%TO.C,IO19*%
X239046428Y-82685714D02*
X238446428Y-82685714D01*
X238446428Y-82285714D02*
X238446428Y-82171428D01*
X238475000Y-82114285D01*
X238532142Y-82057142D01*
X238646428Y-82028571D01*
X238846428Y-82028571D01*
X238960714Y-82057142D01*
X239017857Y-82114285D01*
X239046428Y-82171428D01*
X239046428Y-82285714D01*
X239017857Y-82342857D01*
X238960714Y-82400000D01*
X238846428Y-82428571D01*
X238646428Y-82428571D01*
X238532142Y-82400000D01*
X238475000Y-82342857D01*
X238446428Y-82285714D01*
X239046428Y-81457142D02*
X239046428Y-81800000D01*
X239046428Y-81628571D02*
X238446428Y-81628571D01*
X238532142Y-81685714D01*
X238589285Y-81742857D01*
X238617857Y-81800000D01*
X239046428Y-81171428D02*
X239046428Y-81057142D01*
X239017857Y-81000000D01*
X238989285Y-80971428D01*
X238903571Y-80914285D01*
X238789285Y-80885714D01*
X238560714Y-80885714D01*
X238503571Y-80914285D01*
X238475000Y-80942857D01*
X238446428Y-81000000D01*
X238446428Y-81114285D01*
X238475000Y-81171428D01*
X238503571Y-81200000D01*
X238560714Y-81228571D01*
X238703571Y-81228571D01*
X238760714Y-81200000D01*
X238789285Y-81171428D01*
X238817857Y-81114285D01*
X238817857Y-81000000D01*
X238789285Y-80942857D01*
X238760714Y-80914285D01*
X238703571Y-80885714D01*
D10*
%TO.C,U19*%
X220002380Y-105788095D02*
X220811904Y-105788095D01*
X220907142Y-105740476D01*
X220954761Y-105692857D01*
X221002380Y-105597619D01*
X221002380Y-105407142D01*
X220954761Y-105311904D01*
X220907142Y-105264285D01*
X220811904Y-105216666D01*
X220002380Y-105216666D01*
X221002380Y-104216666D02*
X221002380Y-104788095D01*
X221002380Y-104502380D02*
X220002380Y-104502380D01*
X220145238Y-104597619D01*
X220240476Y-104692857D01*
X220288095Y-104788095D01*
X221002380Y-103740476D02*
X221002380Y-103550000D01*
X220954761Y-103454761D01*
X220907142Y-103407142D01*
X220764285Y-103311904D01*
X220573809Y-103264285D01*
X220192857Y-103264285D01*
X220097619Y-103311904D01*
X220050000Y-103359523D01*
X220002380Y-103454761D01*
X220002380Y-103645238D01*
X220050000Y-103740476D01*
X220097619Y-103788095D01*
X220192857Y-103835714D01*
X220430952Y-103835714D01*
X220526190Y-103788095D01*
X220573809Y-103740476D01*
X220621428Y-103645238D01*
X220621428Y-103454761D01*
X220573809Y-103359523D01*
X220526190Y-103311904D01*
X220430952Y-103264285D01*
D11*
%TO.C,GND1*%
X244300000Y-88792857D02*
X244271428Y-88850000D01*
X244271428Y-88935714D01*
X244300000Y-89021428D01*
X244357142Y-89078571D01*
X244414285Y-89107142D01*
X244528571Y-89135714D01*
X244614285Y-89135714D01*
X244728571Y-89107142D01*
X244785714Y-89078571D01*
X244842857Y-89021428D01*
X244871428Y-88935714D01*
X244871428Y-88878571D01*
X244842857Y-88792857D01*
X244814285Y-88764285D01*
X244614285Y-88764285D01*
X244614285Y-88878571D01*
X244871428Y-88507142D02*
X244271428Y-88507142D01*
X244871428Y-88164285D01*
X244271428Y-88164285D01*
X244871428Y-87878571D02*
X244271428Y-87878571D01*
X244271428Y-87735714D01*
X244300000Y-87650000D01*
X244357142Y-87592857D01*
X244414285Y-87564285D01*
X244528571Y-87535714D01*
X244614285Y-87535714D01*
X244728571Y-87564285D01*
X244785714Y-87592857D01*
X244842857Y-87650000D01*
X244871428Y-87735714D01*
X244871428Y-87878571D01*
X244871428Y-86964285D02*
X244871428Y-87307142D01*
X244871428Y-87135714D02*
X244271428Y-87135714D01*
X244357142Y-87192857D01*
X244414285Y-87250000D01*
X244442857Y-87307142D01*
D10*
%TO.C,Q8*%
X242821047Y-90944076D02*
X242760095Y-90913600D01*
X242699142Y-90852647D01*
X242607714Y-90761219D01*
X242546761Y-90730742D01*
X242485809Y-90730742D01*
X242516285Y-90883123D02*
X242455333Y-90852647D01*
X242394380Y-90791695D01*
X242363904Y-90669790D01*
X242363904Y-90456457D01*
X242394380Y-90334552D01*
X242455333Y-90273600D01*
X242516285Y-90243123D01*
X242638190Y-90243123D01*
X242699142Y-90273600D01*
X242760095Y-90334552D01*
X242790571Y-90456457D01*
X242790571Y-90669790D01*
X242760095Y-90791695D01*
X242699142Y-90852647D01*
X242638190Y-90883123D01*
X242516285Y-90883123D01*
X243156285Y-90517409D02*
X243095333Y-90486933D01*
X243064857Y-90456457D01*
X243034380Y-90395504D01*
X243034380Y-90365028D01*
X243064857Y-90304076D01*
X243095333Y-90273600D01*
X243156285Y-90243123D01*
X243278190Y-90243123D01*
X243339142Y-90273600D01*
X243369619Y-90304076D01*
X243400095Y-90365028D01*
X243400095Y-90395504D01*
X243369619Y-90456457D01*
X243339142Y-90486933D01*
X243278190Y-90517409D01*
X243156285Y-90517409D01*
X243095333Y-90547885D01*
X243064857Y-90578361D01*
X243034380Y-90639314D01*
X243034380Y-90761219D01*
X243064857Y-90822171D01*
X243095333Y-90852647D01*
X243156285Y-90883123D01*
X243278190Y-90883123D01*
X243339142Y-90852647D01*
X243369619Y-90822171D01*
X243400095Y-90761219D01*
X243400095Y-90639314D01*
X243369619Y-90578361D01*
X243339142Y-90547885D01*
X243278190Y-90517409D01*
%TO.C,U13*%
X235311904Y-122502380D02*
X235311904Y-123311904D01*
X235359523Y-123407142D01*
X235407142Y-123454761D01*
X235502380Y-123502380D01*
X235692857Y-123502380D01*
X235788095Y-123454761D01*
X235835714Y-123407142D01*
X235883333Y-123311904D01*
X235883333Y-122502380D01*
X236883333Y-123502380D02*
X236311904Y-123502380D01*
X236597619Y-123502380D02*
X236597619Y-122502380D01*
X236502380Y-122645238D01*
X236407142Y-122740476D01*
X236311904Y-122788095D01*
X237216666Y-122502380D02*
X237835714Y-122502380D01*
X237502380Y-122883333D01*
X237645238Y-122883333D01*
X237740476Y-122930952D01*
X237788095Y-122978571D01*
X237835714Y-123073809D01*
X237835714Y-123311904D01*
X237788095Y-123407142D01*
X237740476Y-123454761D01*
X237645238Y-123502380D01*
X237359523Y-123502380D01*
X237264285Y-123454761D01*
X237216666Y-123407142D01*
D11*
%TO.C,IO14*%
X240521428Y-88560714D02*
X239921428Y-88560714D01*
X239921428Y-88160714D02*
X239921428Y-88046428D01*
X239950000Y-87989285D01*
X240007142Y-87932142D01*
X240121428Y-87903571D01*
X240321428Y-87903571D01*
X240435714Y-87932142D01*
X240492857Y-87989285D01*
X240521428Y-88046428D01*
X240521428Y-88160714D01*
X240492857Y-88217857D01*
X240435714Y-88275000D01*
X240321428Y-88303571D01*
X240121428Y-88303571D01*
X240007142Y-88275000D01*
X239950000Y-88217857D01*
X239921428Y-88160714D01*
X240521428Y-87332142D02*
X240521428Y-87675000D01*
X240521428Y-87503571D02*
X239921428Y-87503571D01*
X240007142Y-87560714D01*
X240064285Y-87617857D01*
X240092857Y-87675000D01*
X240121428Y-86817857D02*
X240521428Y-86817857D01*
X239892857Y-86960714D02*
X240321428Y-87103571D01*
X240321428Y-86732142D01*
D10*
%TO.C,U15*%
X234811904Y-127002380D02*
X234811904Y-127811904D01*
X234859523Y-127907142D01*
X234907142Y-127954761D01*
X235002380Y-128002380D01*
X235192857Y-128002380D01*
X235288095Y-127954761D01*
X235335714Y-127907142D01*
X235383333Y-127811904D01*
X235383333Y-127002380D01*
X236383333Y-128002380D02*
X235811904Y-128002380D01*
X236097619Y-128002380D02*
X236097619Y-127002380D01*
X236002380Y-127145238D01*
X235907142Y-127240476D01*
X235811904Y-127288095D01*
X237288095Y-127002380D02*
X236811904Y-127002380D01*
X236764285Y-127478571D01*
X236811904Y-127430952D01*
X236907142Y-127383333D01*
X237145238Y-127383333D01*
X237240476Y-127430952D01*
X237288095Y-127478571D01*
X237335714Y-127573809D01*
X237335714Y-127811904D01*
X237288095Y-127907142D01*
X237240476Y-127954761D01*
X237145238Y-128002380D01*
X236907142Y-128002380D01*
X236811904Y-127954761D01*
X236764285Y-127907142D01*
%TO.C,U6*%
X243698095Y-117502380D02*
X243698095Y-118311904D01*
X243745714Y-118407142D01*
X243793333Y-118454761D01*
X243888571Y-118502380D01*
X244079047Y-118502380D01*
X244174285Y-118454761D01*
X244221904Y-118407142D01*
X244269523Y-118311904D01*
X244269523Y-117502380D01*
X245174285Y-117502380D02*
X244983809Y-117502380D01*
X244888571Y-117550000D01*
X244840952Y-117597619D01*
X244745714Y-117740476D01*
X244698095Y-117930952D01*
X244698095Y-118311904D01*
X244745714Y-118407142D01*
X244793333Y-118454761D01*
X244888571Y-118502380D01*
X245079047Y-118502380D01*
X245174285Y-118454761D01*
X245221904Y-118407142D01*
X245269523Y-118311904D01*
X245269523Y-118073809D01*
X245221904Y-117978571D01*
X245174285Y-117930952D01*
X245079047Y-117883333D01*
X244888571Y-117883333D01*
X244793333Y-117930952D01*
X244745714Y-117978571D01*
X244698095Y-118073809D01*
%TO.C,CAM1*%
X221133333Y-129007142D02*
X221085714Y-129054761D01*
X220942857Y-129102380D01*
X220847619Y-129102380D01*
X220704761Y-129054761D01*
X220609523Y-128959523D01*
X220561904Y-128864285D01*
X220514285Y-128673809D01*
X220514285Y-128530952D01*
X220561904Y-128340476D01*
X220609523Y-128245238D01*
X220704761Y-128150000D01*
X220847619Y-128102380D01*
X220942857Y-128102380D01*
X221085714Y-128150000D01*
X221133333Y-128197619D01*
X221514285Y-128816666D02*
X221990476Y-128816666D01*
X221419047Y-129102380D02*
X221752380Y-128102380D01*
X222085714Y-129102380D01*
X222419047Y-129102380D02*
X222419047Y-128102380D01*
X222752380Y-128816666D01*
X223085714Y-128102380D01*
X223085714Y-129102380D01*
X224085714Y-129102380D02*
X223514285Y-129102380D01*
X223800000Y-129102380D02*
X223800000Y-128102380D01*
X223704761Y-128245238D01*
X223609523Y-128340476D01*
X223514285Y-128388095D01*
%TO.C,U3*%
X217502380Y-110311904D02*
X218311904Y-110311904D01*
X218407142Y-110264285D01*
X218454761Y-110216666D01*
X218502380Y-110121428D01*
X218502380Y-109930952D01*
X218454761Y-109835714D01*
X218407142Y-109788095D01*
X218311904Y-109740476D01*
X217502380Y-109740476D01*
X217502380Y-109359523D02*
X217502380Y-108740476D01*
X217883333Y-109073809D01*
X217883333Y-108930952D01*
X217930952Y-108835714D01*
X217978571Y-108788095D01*
X218073809Y-108740476D01*
X218311904Y-108740476D01*
X218407142Y-108788095D01*
X218454761Y-108835714D01*
X218502380Y-108930952D01*
X218502380Y-109216666D01*
X218454761Y-109311904D01*
X218407142Y-109359523D01*
%TO.C,U1*%
X220288095Y-123002380D02*
X220288095Y-123811904D01*
X220335714Y-123907142D01*
X220383333Y-123954761D01*
X220478571Y-124002380D01*
X220669047Y-124002380D01*
X220764285Y-123954761D01*
X220811904Y-123907142D01*
X220859523Y-123811904D01*
X220859523Y-123002380D01*
X221859523Y-124002380D02*
X221288095Y-124002380D01*
X221573809Y-124002380D02*
X221573809Y-123002380D01*
X221478571Y-123145238D01*
X221383333Y-123240476D01*
X221288095Y-123288095D01*
D11*
%TO.C,IO20*%
X238571428Y-85535714D02*
X237971428Y-85535714D01*
X237971428Y-85135714D02*
X237971428Y-85021428D01*
X238000000Y-84964285D01*
X238057142Y-84907142D01*
X238171428Y-84878571D01*
X238371428Y-84878571D01*
X238485714Y-84907142D01*
X238542857Y-84964285D01*
X238571428Y-85021428D01*
X238571428Y-85135714D01*
X238542857Y-85192857D01*
X238485714Y-85250000D01*
X238371428Y-85278571D01*
X238171428Y-85278571D01*
X238057142Y-85250000D01*
X238000000Y-85192857D01*
X237971428Y-85135714D01*
X238028571Y-84650000D02*
X238000000Y-84621428D01*
X237971428Y-84564285D01*
X237971428Y-84421428D01*
X238000000Y-84364285D01*
X238028571Y-84335714D01*
X238085714Y-84307142D01*
X238142857Y-84307142D01*
X238228571Y-84335714D01*
X238571428Y-84678571D01*
X238571428Y-84307142D01*
X237971428Y-83935714D02*
X237971428Y-83878571D01*
X238000000Y-83821428D01*
X238028571Y-83792857D01*
X238085714Y-83764285D01*
X238200000Y-83735714D01*
X238342857Y-83735714D01*
X238457142Y-83764285D01*
X238514285Y-83792857D01*
X238542857Y-83821428D01*
X238571428Y-83878571D01*
X238571428Y-83935714D01*
X238542857Y-83992857D01*
X238514285Y-84021428D01*
X238457142Y-84050000D01*
X238342857Y-84078571D01*
X238200000Y-84078571D01*
X238085714Y-84050000D01*
X238028571Y-84021428D01*
X238000000Y-83992857D01*
X237971428Y-83935714D01*
D12*
%TO.C,IC1*%
X228599523Y-93964761D02*
X227329523Y-93964761D01*
X228478571Y-92634285D02*
X228539047Y-92694761D01*
X228599523Y-92876190D01*
X228599523Y-92997142D01*
X228539047Y-93178571D01*
X228418095Y-93299523D01*
X228297142Y-93360000D01*
X228055238Y-93420476D01*
X227873809Y-93420476D01*
X227631904Y-93360000D01*
X227510952Y-93299523D01*
X227390000Y-93178571D01*
X227329523Y-92997142D01*
X227329523Y-92876190D01*
X227390000Y-92694761D01*
X227450476Y-92634285D01*
X228599523Y-91424761D02*
X228599523Y-92150476D01*
X228599523Y-91787619D02*
X227329523Y-91787619D01*
X227510952Y-91908571D01*
X227631904Y-92029523D01*
X227692380Y-92150476D01*
D10*
%TO.C,STM_DEBUG1*%
X233496428Y-127270238D02*
X233353571Y-127222619D01*
X233115476Y-127222619D01*
X233020238Y-127270238D01*
X232972619Y-127317857D01*
X232925000Y-127413095D01*
X232925000Y-127508333D01*
X232972619Y-127603571D01*
X233020238Y-127651190D01*
X233115476Y-127698809D01*
X233305952Y-127746428D01*
X233401190Y-127794047D01*
X233448809Y-127841666D01*
X233496428Y-127936904D01*
X233496428Y-128032142D01*
X233448809Y-128127380D01*
X233401190Y-128175000D01*
X233305952Y-128222619D01*
X233067857Y-128222619D01*
X232925000Y-128175000D01*
X232639285Y-128222619D02*
X232067857Y-128222619D01*
X232353571Y-127222619D02*
X232353571Y-128222619D01*
X231734523Y-127222619D02*
X231734523Y-128222619D01*
X231401190Y-127508333D01*
X231067857Y-128222619D01*
X231067857Y-127222619D01*
X230829761Y-127127380D02*
X230067857Y-127127380D01*
X229829761Y-127222619D02*
X229829761Y-128222619D01*
X229591666Y-128222619D01*
X229448809Y-128175000D01*
X229353571Y-128079761D01*
X229305952Y-127984523D01*
X229258333Y-127794047D01*
X229258333Y-127651190D01*
X229305952Y-127460714D01*
X229353571Y-127365476D01*
X229448809Y-127270238D01*
X229591666Y-127222619D01*
X229829761Y-127222619D01*
X228829761Y-127746428D02*
X228496428Y-127746428D01*
X228353571Y-127222619D02*
X228829761Y-127222619D01*
X228829761Y-128222619D01*
X228353571Y-128222619D01*
X227591666Y-127746428D02*
X227448809Y-127698809D01*
X227401190Y-127651190D01*
X227353571Y-127555952D01*
X227353571Y-127413095D01*
X227401190Y-127317857D01*
X227448809Y-127270238D01*
X227544047Y-127222619D01*
X227925000Y-127222619D01*
X227925000Y-128222619D01*
X227591666Y-128222619D01*
X227496428Y-128175000D01*
X227448809Y-128127380D01*
X227401190Y-128032142D01*
X227401190Y-127936904D01*
X227448809Y-127841666D01*
X227496428Y-127794047D01*
X227591666Y-127746428D01*
X227925000Y-127746428D01*
X226925000Y-128222619D02*
X226925000Y-127413095D01*
X226877380Y-127317857D01*
X226829761Y-127270238D01*
X226734523Y-127222619D01*
X226544047Y-127222619D01*
X226448809Y-127270238D01*
X226401190Y-127317857D01*
X226353571Y-127413095D01*
X226353571Y-128222619D01*
X225353571Y-128175000D02*
X225448809Y-128222619D01*
X225591666Y-128222619D01*
X225734523Y-128175000D01*
X225829761Y-128079761D01*
X225877380Y-127984523D01*
X225925000Y-127794047D01*
X225925000Y-127651190D01*
X225877380Y-127460714D01*
X225829761Y-127365476D01*
X225734523Y-127270238D01*
X225591666Y-127222619D01*
X225496428Y-127222619D01*
X225353571Y-127270238D01*
X225305952Y-127317857D01*
X225305952Y-127651190D01*
X225496428Y-127651190D01*
X224353571Y-127222619D02*
X224925000Y-127222619D01*
X224639285Y-127222619D02*
X224639285Y-128222619D01*
X224734523Y-128079761D01*
X224829761Y-127984523D01*
X224925000Y-127936904D01*
%TO.C,U16*%
X237002380Y-112888095D02*
X237811904Y-112888095D01*
X237907142Y-112840476D01*
X237954761Y-112792857D01*
X238002380Y-112697619D01*
X238002380Y-112507142D01*
X237954761Y-112411904D01*
X237907142Y-112364285D01*
X237811904Y-112316666D01*
X237002380Y-112316666D01*
X238002380Y-111316666D02*
X238002380Y-111888095D01*
X238002380Y-111602380D02*
X237002380Y-111602380D01*
X237145238Y-111697619D01*
X237240476Y-111792857D01*
X237288095Y-111888095D01*
X237002380Y-110459523D02*
X237002380Y-110650000D01*
X237050000Y-110745238D01*
X237097619Y-110792857D01*
X237240476Y-110888095D01*
X237430952Y-110935714D01*
X237811904Y-110935714D01*
X237907142Y-110888095D01*
X237954761Y-110840476D01*
X238002380Y-110745238D01*
X238002380Y-110554761D01*
X237954761Y-110459523D01*
X237907142Y-110411904D01*
X237811904Y-110364285D01*
X237573809Y-110364285D01*
X237478571Y-110411904D01*
X237430952Y-110459523D01*
X237383333Y-110554761D01*
X237383333Y-110745238D01*
X237430952Y-110840476D01*
X237478571Y-110888095D01*
X237573809Y-110935714D01*
%TO.C,U12*%
X233811904Y-92502380D02*
X233811904Y-93311904D01*
X233859523Y-93407142D01*
X233907142Y-93454761D01*
X234002380Y-93502380D01*
X234192857Y-93502380D01*
X234288095Y-93454761D01*
X234335714Y-93407142D01*
X234383333Y-93311904D01*
X234383333Y-92502380D01*
X235383333Y-93502380D02*
X234811904Y-93502380D01*
X235097619Y-93502380D02*
X235097619Y-92502380D01*
X235002380Y-92645238D01*
X234907142Y-92740476D01*
X234811904Y-92788095D01*
X235764285Y-92597619D02*
X235811904Y-92550000D01*
X235907142Y-92502380D01*
X236145238Y-92502380D01*
X236240476Y-92550000D01*
X236288095Y-92597619D01*
X236335714Y-92692857D01*
X236335714Y-92788095D01*
X236288095Y-92930952D01*
X235716666Y-93502380D01*
X236335714Y-93502380D01*
D13*
%TO.C,U9*%
X240590000Y-120350000D02*
X240590000Y-124110000D01*
X247410000Y-124110000D02*
X246150000Y-124110000D01*
X240590000Y-124110000D02*
X241850000Y-124110000D01*
X247410000Y-118100000D02*
X247410000Y-124110000D01*
%TO.C,R17*%
X231845000Y-93721359D02*
X231845000Y-94028641D01*
X232605000Y-93721359D02*
X232605000Y-94028641D01*
%TO.C,U8*%
X218815000Y-98410000D02*
X218340000Y-98410000D01*
X218815000Y-94190000D02*
X218340000Y-94190000D01*
X218340000Y-94190000D02*
X218340000Y-94665000D01*
X218340000Y-98410000D02*
X218340000Y-97935000D01*
X222560000Y-94190000D02*
X222560000Y-94665000D01*
X222085000Y-94190000D02*
X222560000Y-94190000D01*
X222085000Y-98410000D02*
X222560000Y-98410000D01*
%TO.C,IO19*%
X241400000Y-81775000D02*
G75*
G03*
X241400000Y-81775000I-950000J0D01*
G01*
%TO.C,R38*%
X233278641Y-129095000D02*
X232971359Y-129095000D01*
X233278641Y-129855000D02*
X232971359Y-129855000D01*
%TO.C,R20*%
X241530000Y-100878641D02*
X241530000Y-100571359D01*
X240770000Y-100878641D02*
X240770000Y-100571359D01*
%TO.C,R48*%
X224503641Y-107430000D02*
X224196359Y-107430000D01*
X224503641Y-106670000D02*
X224196359Y-106670000D01*
%TO.C,R15*%
X222521359Y-90495000D02*
X222828641Y-90495000D01*
X222521359Y-91255000D02*
X222828641Y-91255000D01*
%TO.C,U19*%
X221790000Y-99760000D02*
X222515000Y-99760000D01*
X228010000Y-105255000D02*
X228010000Y-105980000D01*
X221790000Y-105980000D02*
X222515000Y-105980000D01*
X228010000Y-100485000D02*
X228010000Y-99760000D01*
X221790000Y-100485000D02*
X221790000Y-99760000D01*
X228010000Y-105980000D02*
X227285000Y-105980000D01*
X221790000Y-105255000D02*
X221790000Y-105980000D01*
%TO.C,R51*%
X228620000Y-99896359D02*
X228620000Y-100203641D01*
X229380000Y-99896359D02*
X229380000Y-100203641D01*
%TO.C,C9*%
X230285000Y-110242164D02*
X230285000Y-110457836D01*
X229565000Y-110242164D02*
X229565000Y-110457836D01*
%TO.C,GND1*%
X247125000Y-87625000D02*
G75*
G03*
X247125000Y-87625000I-950000J0D01*
G01*
%TO.C,C25*%
X240440000Y-94792164D02*
X240440000Y-95007836D01*
X241160000Y-94792164D02*
X241160000Y-95007836D01*
D14*
%TO.C,Q8*%
X241850000Y-91336500D02*
X243850000Y-91336500D01*
X241850000Y-93663500D02*
X243850000Y-93663500D01*
D15*
X241200000Y-91850000D02*
G75*
G03*
X241200000Y-91850000I-100000J0D01*
G01*
D13*
%TO.C,C20*%
X229350000Y-101842164D02*
X229350000Y-102057836D01*
X228630000Y-101842164D02*
X228630000Y-102057836D01*
%TO.C,C8*%
X225537836Y-111160000D02*
X225322164Y-111160000D01*
X225537836Y-110440000D02*
X225322164Y-110440000D01*
%TO.C,R43*%
X236805000Y-119421359D02*
X236805000Y-119728641D01*
X236045000Y-119421359D02*
X236045000Y-119728641D01*
%TO.C,U13*%
X237840000Y-124200000D02*
X237840000Y-125600000D01*
X240160000Y-125600000D02*
X240160000Y-123700000D01*
%TO.C,R50*%
X238946359Y-127480000D02*
X239253641Y-127480000D01*
X238946359Y-126720000D02*
X239253641Y-126720000D01*
%TO.C,Q3*%
X215265000Y-96600000D02*
X215265000Y-98000000D01*
X217585000Y-98000000D02*
X217585000Y-96100000D01*
%TO.C,C21*%
X228630000Y-103702164D02*
X228630000Y-103917836D01*
X229350000Y-103702164D02*
X229350000Y-103917836D01*
%TO.C,Q7*%
X232640000Y-118200000D02*
X232640000Y-118850000D01*
X235760000Y-118200000D02*
X235760000Y-116525000D01*
X232640000Y-118200000D02*
X232640000Y-117550000D01*
X235760000Y-118200000D02*
X235760000Y-118850000D01*
%TO.C,C7*%
X222135000Y-109267164D02*
X222135000Y-109482836D01*
X221415000Y-109267164D02*
X221415000Y-109482836D01*
%TO.C,R29*%
X240753641Y-107645000D02*
X240446359Y-107645000D01*
X240753641Y-108405000D02*
X240446359Y-108405000D01*
%TO.C,Y1*%
X225880000Y-110150000D02*
X225880000Y-107850000D01*
X225880000Y-107850000D02*
X223180000Y-107850000D01*
%TO.C,IO14*%
X242800000Y-87625000D02*
G75*
G03*
X242800000Y-87625000I-950000J0D01*
G01*
%TO.C,U15*%
X237450000Y-126100000D02*
X237450000Y-124800000D01*
X234650000Y-126100000D02*
X234650000Y-125100000D01*
%TO.C,R47*%
X240420000Y-93153641D02*
X240420000Y-92846359D01*
X241180000Y-93153641D02*
X241180000Y-92846359D01*
%TO.C,Q4*%
X235840000Y-133000000D02*
X235840000Y-132350000D01*
X238960000Y-133000000D02*
X238960000Y-131325000D01*
X235840000Y-133000000D02*
X235840000Y-133650000D01*
X238960000Y-133000000D02*
X238960000Y-133650000D01*
%TO.C,C22*%
X229557836Y-107635000D02*
X229342164Y-107635000D01*
X229557836Y-106915000D02*
X229342164Y-106915000D01*
%TO.C,U6*%
X244000000Y-80500000D02*
X211000000Y-80500000D01*
X208650000Y-116900000D02*
X208650000Y-115900000D01*
X208650000Y-94100000D02*
X208650000Y-95100000D01*
X212430000Y-94100000D02*
X208650000Y-94100000D01*
X212430000Y-116900000D02*
X212430000Y-115900000D01*
X242570000Y-94100000D02*
X242570000Y-95100000D01*
X246350000Y-94100000D02*
X246350000Y-95100000D01*
X211000000Y-135500000D02*
X244000000Y-135500000D01*
X207500000Y-84000000D02*
X207500000Y-132000000D01*
X212430000Y-116900000D02*
X208650000Y-116900000D01*
X246350000Y-94100000D02*
X242570000Y-94100000D01*
X212430000Y-94100000D02*
X212430000Y-95100000D01*
X247500000Y-132000000D02*
X247500000Y-84000000D01*
X246350000Y-116900000D02*
X242570000Y-116900000D01*
X211000000Y-80500000D02*
G75*
G03*
X207500000Y-84000000I-1J-3499999D01*
G01*
X207500000Y-132000000D02*
G75*
G03*
X211000000Y-135500000I3499999J-1D01*
G01*
X244000000Y-135500000D02*
G75*
G03*
X247500000Y-132000000I1J3499999D01*
G01*
X247500000Y-84000000D02*
G75*
G03*
X244000000Y-80500000I-3499999J1D01*
G01*
%TO.C,R39*%
X238403641Y-128320000D02*
X238096359Y-128320000D01*
X238403641Y-129080000D02*
X238096359Y-129080000D01*
%TO.C,R52*%
X229296359Y-106280000D02*
X229603641Y-106280000D01*
X229296359Y-105520000D02*
X229603641Y-105520000D01*
%TO.C,Y3*%
X229630000Y-101540000D02*
X229630000Y-104240000D01*
X231930000Y-101540000D02*
X229630000Y-101540000D01*
%TO.C,C42*%
X224540000Y-96292164D02*
X224540000Y-96507836D01*
X225260000Y-96292164D02*
X225260000Y-96507836D01*
%TO.C,CAM1*%
X215150000Y-136850000D02*
X229450000Y-136850000D01*
X216640000Y-131050000D02*
X215150000Y-131050000D01*
X227960000Y-131050000D02*
X229450000Y-131050000D01*
X215150000Y-135110000D02*
X215150000Y-136850000D01*
X229450000Y-131050000D02*
X229450000Y-132390000D01*
X215150000Y-131050000D02*
X215150000Y-132390000D01*
X216640000Y-131050000D02*
X216640000Y-129850000D01*
X229450000Y-136850000D02*
X229450000Y-135110000D01*
%TO.C,C19*%
X214065000Y-97892164D02*
X214065000Y-98107836D01*
X214785000Y-97892164D02*
X214785000Y-98107836D01*
%TO.C,C41*%
X244300000Y-126765000D02*
X240390000Y-126765000D01*
X240390000Y-126765000D02*
X240390000Y-128635000D01*
X240390000Y-128635000D02*
X244300000Y-128635000D01*
D14*
%TO.C,U3*%
X219070000Y-110132500D02*
X219070000Y-110312500D01*
X220730000Y-108252500D02*
X221130000Y-108252500D01*
X219070000Y-108432500D02*
X219070000Y-108252500D01*
X221130000Y-108252500D02*
X221130000Y-108432500D01*
X221130000Y-110312500D02*
X220730000Y-110312500D01*
X221130000Y-110132500D02*
X221130000Y-110312500D01*
X219070000Y-110312500D02*
X219470000Y-110312500D01*
X219070000Y-108252500D02*
X219470000Y-108252500D01*
D15*
X220500000Y-107782500D02*
G75*
G03*
X220500000Y-107782500I-100000J0D01*
G01*
D13*
%TO.C,U1*%
X230275000Y-122425000D02*
X220025000Y-122425000D01*
X220025000Y-112175000D02*
X229275000Y-112175000D01*
X230275000Y-113175000D02*
X230275000Y-122425000D01*
X220025000Y-122425000D02*
X220025000Y-112175000D01*
%TO.C,IO20*%
X240775000Y-84650000D02*
G75*
G03*
X240775000Y-84650000I-950000J0D01*
G01*
%TO.C,C40*%
X227315000Y-95590000D02*
X227315000Y-97460000D01*
X231225000Y-95590000D02*
X227315000Y-95590000D01*
X227315000Y-97460000D02*
X231225000Y-97460000D01*
%TO.C,C24*%
X239322164Y-120235000D02*
X239537836Y-120235000D01*
X239322164Y-119515000D02*
X239537836Y-119515000D01*
%TO.C,C44*%
X225515000Y-96292164D02*
X225515000Y-96507836D01*
X226235000Y-96292164D02*
X226235000Y-96507836D01*
D15*
%TO.C,IC1*%
X229625000Y-95175000D02*
X226425000Y-95175000D01*
X226425000Y-95175000D02*
X226425000Y-90275000D01*
X226425000Y-90275000D02*
X229625000Y-90275000D01*
X224575000Y-90145000D02*
X226075000Y-90145000D01*
X229625000Y-90275000D02*
X229625000Y-95175000D01*
D13*
%TO.C,R30*%
X240446359Y-109405000D02*
X240753641Y-109405000D01*
X240446359Y-108645000D02*
X240753641Y-108645000D01*
%TO.C,C12*%
X226165000Y-109507836D02*
X226165000Y-109292164D01*
X226885000Y-109507836D02*
X226885000Y-109292164D01*
%TO.C,R35*%
X238745000Y-113621359D02*
X238745000Y-113928641D01*
X239505000Y-113621359D02*
X239505000Y-113928641D01*
%TO.C,R8*%
X239046359Y-123180000D02*
X239353641Y-123180000D01*
X239046359Y-122420000D02*
X239353641Y-122420000D01*
%TO.C,R54*%
X231880000Y-132146359D02*
X231880000Y-132453641D01*
X231120000Y-132146359D02*
X231120000Y-132453641D01*
%TO.C,R56*%
X240420000Y-91253641D02*
X240420000Y-90946359D01*
X241180000Y-91253641D02*
X241180000Y-90946359D01*
%TO.C,R53*%
X226403641Y-107430000D02*
X226096359Y-107430000D01*
X226403641Y-106670000D02*
X226096359Y-106670000D01*
%TO.C,C23*%
X229342164Y-107890000D02*
X229557836Y-107890000D01*
X229342164Y-108610000D02*
X229557836Y-108610000D01*
%TO.C,C6*%
X220507836Y-107065000D02*
X220292164Y-107065000D01*
X220507836Y-107785000D02*
X220292164Y-107785000D01*
%TO.C,Q5*%
X232440000Y-133000000D02*
X232440000Y-132350000D01*
X235560000Y-133000000D02*
X235560000Y-133650000D01*
X232440000Y-133000000D02*
X232440000Y-134675000D01*
X235560000Y-133000000D02*
X235560000Y-132350000D01*
%TO.C,R36*%
X240446359Y-114655000D02*
X240753641Y-114655000D01*
X240446359Y-113895000D02*
X240753641Y-113895000D01*
%TO.C,C38*%
X237660000Y-89085000D02*
X237660000Y-85175000D01*
X235790000Y-85175000D02*
X235790000Y-89085000D01*
X235790000Y-89085000D02*
X237660000Y-89085000D01*
%TO.C,R18*%
X216721359Y-95580000D02*
X217028641Y-95580000D01*
X216721359Y-94820000D02*
X217028641Y-94820000D01*
%TO.C,R19*%
X241530000Y-98978641D02*
X241530000Y-98671359D01*
X240770000Y-98978641D02*
X240770000Y-98671359D01*
%TO.C,R44*%
X236805000Y-117828641D02*
X236805000Y-117521359D01*
X236045000Y-117828641D02*
X236045000Y-117521359D01*
%TO.C,R55*%
X238096359Y-130030000D02*
X238403641Y-130030000D01*
X238096359Y-129270000D02*
X238403641Y-129270000D01*
%TO.C,C43*%
X226440000Y-96292164D02*
X226440000Y-96507836D01*
X227160000Y-96292164D02*
X227160000Y-96507836D01*
%TO.C,R16*%
X222521359Y-91470000D02*
X222828641Y-91470000D01*
X222521359Y-92230000D02*
X222828641Y-92230000D01*
%TO.C,C35*%
X239485000Y-110107836D02*
X239485000Y-109892164D01*
X238765000Y-110107836D02*
X238765000Y-109892164D01*
%TO.C,D5*%
X224600000Y-126625000D02*
X224600000Y-124075000D01*
X224600000Y-126625000D02*
X226300000Y-126625000D01*
X226300000Y-126625000D02*
X226300000Y-124075000D01*
%TO.C,R57*%
X232353641Y-120770000D02*
X232046359Y-120770000D01*
X232353641Y-121530000D02*
X232046359Y-121530000D01*
D10*
%TO.C,U16*%
X242075000Y-113150000D02*
X242075000Y-110150000D01*
X239825000Y-111650000D02*
X239825000Y-110150000D01*
D13*
%TO.C,C27*%
X220882836Y-92210000D02*
X220667164Y-92210000D01*
X220882836Y-91490000D02*
X220667164Y-91490000D01*
%TO.C,Q6*%
X237090000Y-117450000D02*
X237090000Y-116800000D01*
X237090000Y-117450000D02*
X237090000Y-119125000D01*
X240210000Y-117450000D02*
X240210000Y-116800000D01*
X240210000Y-117450000D02*
X240210000Y-118100000D01*
%TO.C,C37*%
X233340000Y-121042164D02*
X233340000Y-121257836D01*
X234060000Y-121042164D02*
X234060000Y-121257836D01*
%TO.C,C11*%
X223707836Y-111160000D02*
X223492164Y-111160000D01*
X223707836Y-110440000D02*
X223492164Y-110440000D01*
%TO.C,Y2*%
X228325000Y-111050000D02*
X228125000Y-111050000D01*
X229325000Y-110950000D02*
X229325000Y-109750000D01*
X228325000Y-109650000D02*
X228125000Y-109650000D01*
%TO.C,R37*%
X239505000Y-112028641D02*
X239505000Y-111721359D01*
X238745000Y-112028641D02*
X238745000Y-111721359D01*
%TO.C,R49*%
X228430000Y-107603641D02*
X228430000Y-107296359D01*
X227670000Y-107603641D02*
X227670000Y-107296359D01*
%TO.C,U12*%
X239760000Y-91640000D02*
X238500000Y-91640000D01*
X232940000Y-97650000D02*
X232940000Y-91640000D01*
X239760000Y-95400000D02*
X239760000Y-91640000D01*
X232940000Y-91640000D02*
X234200000Y-91640000D01*
%TD*%
%LPC*%
D16*
%TO.C,U9*%
X246300000Y-119050000D03*
X244000000Y-119050000D03*
D17*
X244000000Y-125350000D03*
D16*
X241700000Y-119050000D03*
%TD*%
D18*
%TO.C,R17*%
X232225000Y-93365000D03*
X232225000Y-94385000D03*
%TD*%
D19*
%TO.C,U8*%
X222387500Y-97550000D03*
X222387500Y-97050000D03*
X222387500Y-96550000D03*
X222387500Y-96050000D03*
X222387500Y-95550000D03*
X222387500Y-95050000D03*
D20*
X221700000Y-94362500D03*
X221200000Y-94362500D03*
X220700000Y-94362500D03*
X220200000Y-94362500D03*
X219700000Y-94362500D03*
X219200000Y-94362500D03*
D19*
X218512500Y-95050000D03*
X218512500Y-95550000D03*
X218512500Y-96050000D03*
X218512500Y-96550000D03*
X218512500Y-97050000D03*
X218512500Y-97550000D03*
D20*
X219200000Y-98237500D03*
X219700000Y-98237500D03*
X220200000Y-98237500D03*
X220700000Y-98237500D03*
X221200000Y-98237500D03*
X221700000Y-98237500D03*
D21*
X220450000Y-96300000D03*
%TD*%
D22*
%TO.C,IO19*%
X240450000Y-81775000D03*
%TD*%
D23*
%TO.C,R38*%
X233635000Y-129475000D03*
X232615000Y-129475000D03*
%TD*%
D24*
%TO.C,R20*%
X241150000Y-101235000D03*
X241150000Y-100215000D03*
%TD*%
D23*
%TO.C,R48*%
X224860000Y-107050000D03*
X223840000Y-107050000D03*
%TD*%
D25*
%TO.C,R15*%
X222165000Y-90875000D03*
X223185000Y-90875000D03*
%TD*%
D26*
%TO.C,U19*%
X226900000Y-99932500D03*
X226400000Y-99932500D03*
X225900000Y-99932500D03*
X225400000Y-99932500D03*
X224900000Y-99932500D03*
X224400000Y-99932500D03*
X223900000Y-99932500D03*
X223400000Y-99932500D03*
X222900000Y-99932500D03*
D27*
X221962500Y-100870000D03*
X221962500Y-101370000D03*
X221962500Y-101870000D03*
X221962500Y-102370000D03*
X221962500Y-102870000D03*
X221962500Y-103370000D03*
X221962500Y-103870000D03*
X221962500Y-104370000D03*
X221962500Y-104870000D03*
D26*
X222900000Y-105807500D03*
X223400000Y-105807500D03*
X223900000Y-105807500D03*
X224400000Y-105807500D03*
X224900000Y-105807500D03*
X225400000Y-105807500D03*
X225900000Y-105807500D03*
X226400000Y-105807500D03*
X226900000Y-105807500D03*
D27*
X227837500Y-104870000D03*
X227837500Y-104370000D03*
X227837500Y-103870000D03*
X227837500Y-103370000D03*
X227837500Y-102870000D03*
X227837500Y-102370000D03*
X227837500Y-101870000D03*
X227837500Y-101370000D03*
X227837500Y-100870000D03*
D28*
X224900000Y-102870000D03*
%TD*%
D18*
%TO.C,R51*%
X229000000Y-99540000D03*
X229000000Y-100560000D03*
%TD*%
D29*
%TO.C,C9*%
X229925000Y-109870000D03*
X229925000Y-110830000D03*
%TD*%
D22*
%TO.C,GND1*%
X246175000Y-87625000D03*
%TD*%
D29*
%TO.C,C25*%
X240800000Y-94420000D03*
X240800000Y-95380000D03*
%TD*%
D30*
%TO.C,Q8*%
X241912500Y-91850000D03*
X241912500Y-92500000D03*
X241912500Y-93150000D03*
X243787500Y-93150000D03*
X243787500Y-92500000D03*
X243787500Y-91850000D03*
D31*
X242850000Y-92175000D03*
D32*
X242850000Y-93150000D03*
%TD*%
D29*
%TO.C,C20*%
X228990000Y-101470000D03*
X228990000Y-102430000D03*
%TD*%
D33*
%TO.C,C8*%
X225910000Y-110800000D03*
X224950000Y-110800000D03*
%TD*%
D18*
%TO.C,R43*%
X236425000Y-119065000D03*
X236425000Y-120085000D03*
%TD*%
D34*
%TO.C,U13*%
X239650000Y-123950000D03*
X239000000Y-123950000D03*
X238350000Y-123950000D03*
X238350000Y-125850000D03*
X239650000Y-125850000D03*
%TD*%
D25*
%TO.C,R50*%
X238590000Y-127100000D03*
X239610000Y-127100000D03*
%TD*%
D34*
%TO.C,Q3*%
X217075000Y-96350000D03*
X216425000Y-96350000D03*
X215775000Y-96350000D03*
X215775000Y-98250000D03*
X216425000Y-98250000D03*
X217075000Y-98250000D03*
%TD*%
D29*
%TO.C,C21*%
X228990000Y-103330000D03*
X228990000Y-104290000D03*
%TD*%
D35*
%TO.C,Q7*%
X235150000Y-117262500D03*
X233250000Y-117262500D03*
X234200000Y-119137500D03*
%TD*%
D29*
%TO.C,C7*%
X221775000Y-108895000D03*
X221775000Y-109855000D03*
%TD*%
D23*
%TO.C,R29*%
X241110000Y-108025000D03*
X240090000Y-108025000D03*
%TD*%
D36*
%TO.C,Y1*%
X225230000Y-108450000D03*
X223830000Y-108450000D03*
X223830000Y-109550000D03*
X225230000Y-109550000D03*
%TD*%
D22*
%TO.C,IO14*%
X241850000Y-87625000D03*
%TD*%
D37*
%TO.C,U15*%
X237050000Y-125215000D03*
X236550000Y-125215000D03*
D38*
X236050000Y-125215000D03*
D37*
X235550000Y-125215000D03*
X235050000Y-125215000D03*
X235050000Y-125985000D03*
X235550000Y-125985000D03*
D38*
X236050000Y-125985000D03*
D37*
X236550000Y-125985000D03*
X237050000Y-125985000D03*
%TD*%
D24*
%TO.C,R47*%
X240800000Y-93510000D03*
X240800000Y-92490000D03*
%TD*%
D35*
%TO.C,Q4*%
X238350000Y-132062500D03*
X236450000Y-132062500D03*
X237400000Y-133937500D03*
%TD*%
D33*
%TO.C,C22*%
X229930000Y-107275000D03*
X228970000Y-107275000D03*
%TD*%
D39*
%TO.C,U6*%
X211000000Y-84000000D03*
X244000000Y-84000000D03*
X211000000Y-132000000D03*
X244000000Y-132000000D03*
D40*
X246000000Y-115300000D03*
X242920000Y-115300000D03*
X246000000Y-114900000D03*
X242920000Y-114900000D03*
X246000000Y-114500000D03*
X242920000Y-114500000D03*
X246000000Y-114100000D03*
X242920000Y-114100000D03*
X246000000Y-113700000D03*
X242920000Y-113700000D03*
X246000000Y-113300000D03*
X242920000Y-113300000D03*
X246000000Y-112900000D03*
X242920000Y-112900000D03*
X246000000Y-112500000D03*
X242920000Y-112500000D03*
X246000000Y-112100000D03*
X242920000Y-112100000D03*
X246000000Y-111700000D03*
X242920000Y-111700000D03*
X246000000Y-111300000D03*
X242920000Y-111300000D03*
X246000000Y-110900000D03*
X242920000Y-110900000D03*
X246000000Y-110500000D03*
X242920000Y-110500000D03*
X246000000Y-110100000D03*
X242920000Y-110100000D03*
X246000000Y-109700000D03*
X242920000Y-109700000D03*
X246000000Y-109300000D03*
X242920000Y-109300000D03*
X246000000Y-108900000D03*
X242920000Y-108900000D03*
X246000000Y-108500000D03*
X242920000Y-108500000D03*
X246000000Y-108100000D03*
X242920000Y-108100000D03*
X246000000Y-107700000D03*
X242920000Y-107700000D03*
X246000000Y-107300000D03*
X242920000Y-107300000D03*
X246000000Y-106900000D03*
X242920000Y-106900000D03*
X246000000Y-106500000D03*
X242920000Y-106500000D03*
X246000000Y-106100000D03*
X242920000Y-106100000D03*
X246000000Y-105700000D03*
X242920000Y-105700000D03*
X246000000Y-105300000D03*
X242920000Y-105300000D03*
X246000000Y-104900000D03*
X242920000Y-104900000D03*
X246000000Y-104500000D03*
X242920000Y-104500000D03*
X246000000Y-104100000D03*
X242920000Y-104100000D03*
X246000000Y-103700000D03*
X242920000Y-103700000D03*
X246000000Y-103300000D03*
X242920000Y-103300000D03*
X246000000Y-102900000D03*
X242920000Y-102900000D03*
X246000000Y-102500000D03*
X242920000Y-102500000D03*
X246000000Y-102100000D03*
X242920000Y-102100000D03*
X246000000Y-101700000D03*
X242920000Y-101700000D03*
X246000000Y-101300000D03*
X242920000Y-101300000D03*
X246000000Y-100900000D03*
X242920000Y-100900000D03*
X246000000Y-100500000D03*
X242920000Y-100500000D03*
X246000000Y-100100000D03*
X242920000Y-100100000D03*
X246000000Y-99700000D03*
X242920000Y-99700000D03*
X246000000Y-99300000D03*
X242920000Y-99300000D03*
X246000000Y-98900000D03*
X242920000Y-98900000D03*
X246000000Y-98500000D03*
X242920000Y-98500000D03*
X246000000Y-98100000D03*
X242920000Y-98100000D03*
X246000000Y-97700000D03*
X242920000Y-97700000D03*
X246000000Y-97300000D03*
X242920000Y-97300000D03*
X246000000Y-96900000D03*
X242920000Y-96900000D03*
X246000000Y-96500000D03*
X242920000Y-96500000D03*
X246000000Y-96100000D03*
X242920000Y-96100000D03*
X246000000Y-95700000D03*
X242920000Y-95700000D03*
X212080000Y-115300000D03*
X209000000Y-115300000D03*
X212080000Y-114900000D03*
X209000000Y-114900000D03*
X212080000Y-114500000D03*
X209000000Y-114500000D03*
X212080000Y-114100000D03*
X209000000Y-114100000D03*
X212080000Y-113700000D03*
X209000000Y-113700000D03*
X212080000Y-113300000D03*
X209000000Y-113300000D03*
X212080000Y-112900000D03*
X209000000Y-112900000D03*
X212080000Y-112500000D03*
X209000000Y-112500000D03*
X212080000Y-112100000D03*
X209000000Y-112100000D03*
X212080000Y-111700000D03*
X209000000Y-111700000D03*
X212080000Y-111300000D03*
X209000000Y-111300000D03*
X212080000Y-110900000D03*
X209000000Y-110900000D03*
X212080000Y-110500000D03*
X209000000Y-110500000D03*
X212080000Y-110100000D03*
X209000000Y-110100000D03*
X212080000Y-109700000D03*
X209000000Y-109700000D03*
X212080000Y-109300000D03*
X209000000Y-109300000D03*
X212080000Y-108900000D03*
X209000000Y-108900000D03*
X212080000Y-108500000D03*
X209000000Y-108500000D03*
X212080000Y-108100000D03*
X209000000Y-108100000D03*
X212080000Y-107700000D03*
X209000000Y-107700000D03*
X212080000Y-107300000D03*
X209000000Y-107300000D03*
X212080000Y-106900000D03*
X209000000Y-106900000D03*
X212080000Y-106500000D03*
X209000000Y-106500000D03*
X212080000Y-106100000D03*
X209000000Y-106100000D03*
X212080000Y-105700000D03*
X209000000Y-105700000D03*
X212080000Y-105300000D03*
X209000000Y-105300000D03*
X212080000Y-104900000D03*
X209000000Y-104900000D03*
X212080000Y-104500000D03*
X209000000Y-104500000D03*
X212080000Y-104100000D03*
X209000000Y-104100000D03*
X212080000Y-103700000D03*
X209000000Y-103700000D03*
X212080000Y-103300000D03*
X209000000Y-103300000D03*
X212080000Y-102900000D03*
X209000000Y-102900000D03*
X212080000Y-102500000D03*
X209000000Y-102500000D03*
X212080000Y-102100000D03*
X209000000Y-102100000D03*
X212080000Y-101700000D03*
X209000000Y-101700000D03*
X212080000Y-101300000D03*
X209000000Y-101300000D03*
X212080000Y-100900000D03*
X209000000Y-100900000D03*
X212080000Y-100500000D03*
X209000000Y-100500000D03*
X212080000Y-100100000D03*
X209000000Y-100100000D03*
X212080000Y-99700000D03*
X209000000Y-99700000D03*
X212080000Y-99300000D03*
X209000000Y-99300000D03*
X212080000Y-98900000D03*
X209000000Y-98900000D03*
X212080000Y-98500000D03*
X209000000Y-98500000D03*
X212080000Y-98100000D03*
X209000000Y-98100000D03*
X212080000Y-97700000D03*
X209000000Y-97700000D03*
X212080000Y-97300000D03*
X209000000Y-97300000D03*
X212080000Y-96900000D03*
X209000000Y-96900000D03*
X212080000Y-96500000D03*
X209000000Y-96500000D03*
X212080000Y-96100000D03*
X209000000Y-96100000D03*
X212080000Y-95700000D03*
X209000000Y-95700000D03*
%TD*%
D23*
%TO.C,R39*%
X238760000Y-128700000D03*
X237740000Y-128700000D03*
%TD*%
D25*
%TO.C,R52*%
X228940000Y-105900000D03*
X229960000Y-105900000D03*
%TD*%
D41*
%TO.C,Y3*%
X230230000Y-102190000D03*
X230230000Y-103590000D03*
X231330000Y-103590000D03*
X231330000Y-102190000D03*
%TD*%
D29*
%TO.C,C42*%
X224900000Y-95920000D03*
X224900000Y-96880000D03*
%TD*%
D42*
%TO.C,CAM1*%
X217050000Y-130500000D03*
X217550000Y-130500000D03*
X218050000Y-130500000D03*
X218550000Y-130500000D03*
X219050000Y-130500000D03*
X219550000Y-130500000D03*
X220050000Y-130500000D03*
X220550000Y-130500000D03*
X221050000Y-130500000D03*
X221550000Y-130500000D03*
X222050000Y-130500000D03*
X222550000Y-130500000D03*
X223050000Y-130500000D03*
X223550000Y-130500000D03*
X224050000Y-130500000D03*
X224550000Y-130500000D03*
X225050000Y-130500000D03*
X225550000Y-130500000D03*
X226050000Y-130500000D03*
X226550000Y-130500000D03*
X227050000Y-130500000D03*
X227550000Y-130500000D03*
D43*
X215150000Y-133750000D03*
X229450000Y-133750000D03*
%TD*%
D29*
%TO.C,C19*%
X214425000Y-97520000D03*
X214425000Y-98480000D03*
%TD*%
D44*
%TO.C,C41*%
X241350000Y-127700000D03*
X244050000Y-127700000D03*
%TD*%
D45*
%TO.C,U3*%
X220350000Y-108517500D03*
X219850000Y-108517500D03*
X219335000Y-108782500D03*
X219335000Y-109282500D03*
X219335000Y-109782500D03*
X219850000Y-110047500D03*
X220350000Y-110047500D03*
X220865000Y-109782500D03*
X220865000Y-109282500D03*
X220865000Y-108782500D03*
%TD*%
D46*
%TO.C,U1*%
X229700000Y-112750000D03*
X229700000Y-113400000D03*
X229700000Y-114050000D03*
X229700000Y-114700000D03*
X229700000Y-115350000D03*
X229700000Y-116000000D03*
X229700000Y-116650000D03*
X229700000Y-117300000D03*
X229700000Y-117950000D03*
X229700000Y-118600000D03*
X229700000Y-119250000D03*
X229700000Y-119900000D03*
X229700000Y-120550000D03*
X229700000Y-121200000D03*
X229700000Y-121850000D03*
X229050000Y-112750000D03*
X229050000Y-113400000D03*
X229050000Y-114050000D03*
X229050000Y-114700000D03*
X229050000Y-115350000D03*
X229050000Y-116000000D03*
X229050000Y-116650000D03*
X229050000Y-117300000D03*
X229050000Y-117950000D03*
X229050000Y-118600000D03*
X229050000Y-119250000D03*
X229050000Y-119900000D03*
X229050000Y-120550000D03*
X229050000Y-121200000D03*
X229050000Y-121850000D03*
X228400000Y-112750000D03*
X228400000Y-113400000D03*
X228400000Y-114050000D03*
X228400000Y-114700000D03*
X228400000Y-115350000D03*
X228400000Y-116000000D03*
X228400000Y-116650000D03*
X228400000Y-117300000D03*
X228400000Y-117950000D03*
X228400000Y-118600000D03*
X228400000Y-119250000D03*
X228400000Y-119900000D03*
X228400000Y-120550000D03*
X228400000Y-121200000D03*
X228400000Y-121850000D03*
X227750000Y-112750000D03*
X227750000Y-113400000D03*
X227750000Y-114050000D03*
X227750000Y-114700000D03*
X227750000Y-115350000D03*
X227750000Y-116000000D03*
X227750000Y-116650000D03*
X227750000Y-117300000D03*
X227750000Y-117950000D03*
X227750000Y-118600000D03*
X227750000Y-119250000D03*
X227750000Y-119900000D03*
X227750000Y-120550000D03*
X227750000Y-121200000D03*
X227750000Y-121850000D03*
X227100000Y-112750000D03*
X227100000Y-113400000D03*
X227100000Y-114050000D03*
X227100000Y-114700000D03*
X227100000Y-119900000D03*
X227100000Y-120550000D03*
X227100000Y-121200000D03*
X227100000Y-121850000D03*
X226450000Y-112750000D03*
X226450000Y-113400000D03*
X226450000Y-114050000D03*
X226450000Y-114700000D03*
X226450000Y-116000000D03*
X226450000Y-116650000D03*
X226450000Y-117300000D03*
X226450000Y-117950000D03*
X226450000Y-118600000D03*
X226450000Y-119900000D03*
X226450000Y-120550000D03*
X226450000Y-121200000D03*
X226450000Y-121850000D03*
X225800000Y-112750000D03*
X225800000Y-113400000D03*
X225800000Y-114050000D03*
X225800000Y-114700000D03*
X225800000Y-116000000D03*
X225800000Y-116650000D03*
X225800000Y-117300000D03*
X225800000Y-117950000D03*
X225800000Y-118600000D03*
X225800000Y-119900000D03*
X225800000Y-120550000D03*
X225800000Y-121200000D03*
X225800000Y-121850000D03*
X225150000Y-112750000D03*
X225150000Y-113400000D03*
X225150000Y-114050000D03*
X225150000Y-114700000D03*
X225150000Y-116000000D03*
X225150000Y-116650000D03*
X225150000Y-117300000D03*
X225150000Y-117950000D03*
X225150000Y-118600000D03*
X225150000Y-119900000D03*
X225150000Y-120550000D03*
X225150000Y-121200000D03*
X225150000Y-121850000D03*
X224500000Y-112750000D03*
X224500000Y-113400000D03*
X224500000Y-114050000D03*
X224500000Y-114700000D03*
X224500000Y-116000000D03*
X224500000Y-116650000D03*
X224500000Y-117300000D03*
X224500000Y-117950000D03*
X224500000Y-118600000D03*
X224500000Y-119900000D03*
X224500000Y-120550000D03*
X224500000Y-121200000D03*
X224500000Y-121850000D03*
X223850000Y-112750000D03*
X223850000Y-113400000D03*
X223850000Y-114050000D03*
X223850000Y-114700000D03*
X223850000Y-116000000D03*
X223850000Y-116650000D03*
X223850000Y-117300000D03*
X223850000Y-117950000D03*
X223850000Y-118600000D03*
X223850000Y-119900000D03*
X223850000Y-120550000D03*
X223850000Y-121200000D03*
X223850000Y-121850000D03*
X223200000Y-112750000D03*
X223200000Y-113400000D03*
X223200000Y-114050000D03*
X223200000Y-114700000D03*
X223200000Y-119900000D03*
X223200000Y-120550000D03*
X223200000Y-121200000D03*
X223200000Y-121850000D03*
X222550000Y-112750000D03*
X222550000Y-113400000D03*
X222550000Y-114050000D03*
X222550000Y-114700000D03*
X222550000Y-115350000D03*
X222550000Y-116000000D03*
X222550000Y-116650000D03*
X222550000Y-117300000D03*
X222550000Y-117950000D03*
X222550000Y-118600000D03*
X222550000Y-119250000D03*
X222550000Y-119900000D03*
X222550000Y-120550000D03*
X222550000Y-121200000D03*
X222550000Y-121850000D03*
X221900000Y-112750000D03*
X221900000Y-113400000D03*
X221900000Y-114050000D03*
X221900000Y-114700000D03*
X221900000Y-115350000D03*
X221900000Y-116000000D03*
X221900000Y-116650000D03*
X221900000Y-117300000D03*
X221900000Y-117950000D03*
X221900000Y-118600000D03*
X221900000Y-119250000D03*
X221900000Y-119900000D03*
X221900000Y-120550000D03*
X221900000Y-121200000D03*
X221900000Y-121850000D03*
X221250000Y-112750000D03*
X221250000Y-113400000D03*
X221250000Y-114050000D03*
X221250000Y-114700000D03*
X221250000Y-115350000D03*
X221250000Y-116000000D03*
X221250000Y-116650000D03*
X221250000Y-117300000D03*
X221250000Y-117950000D03*
X221250000Y-118600000D03*
X221250000Y-119250000D03*
X221250000Y-119900000D03*
X221250000Y-120550000D03*
X221250000Y-121200000D03*
X221250000Y-121850000D03*
X220600000Y-112750000D03*
X220600000Y-113400000D03*
X220600000Y-114050000D03*
X220600000Y-114700000D03*
X220600000Y-115350000D03*
X220600000Y-116000000D03*
X220600000Y-116650000D03*
X220600000Y-117300000D03*
X220600000Y-117950000D03*
X220600000Y-118600000D03*
X220600000Y-119250000D03*
X220600000Y-119900000D03*
X220600000Y-120550000D03*
X220600000Y-121200000D03*
X220600000Y-121850000D03*
%TD*%
D22*
%TO.C,IO20*%
X239825000Y-84650000D03*
%TD*%
D44*
%TO.C,C40*%
X228275000Y-96525000D03*
X230975000Y-96525000D03*
%TD*%
D47*
%TO.C,C24*%
X238950000Y-119875000D03*
X239910000Y-119875000D03*
%TD*%
D29*
%TO.C,C44*%
X225875000Y-95920000D03*
X225875000Y-96880000D03*
%TD*%
D48*
%TO.C,IC1*%
X225325000Y-90820000D03*
X225325000Y-92090000D03*
X225325000Y-93360000D03*
X225325000Y-94630000D03*
X230725000Y-94630000D03*
X230725000Y-93360000D03*
X230725000Y-92090000D03*
X230725000Y-90820000D03*
%TD*%
D25*
%TO.C,R30*%
X240090000Y-109025000D03*
X241110000Y-109025000D03*
%TD*%
D49*
%TO.C,C12*%
X226525000Y-109880000D03*
X226525000Y-108920000D03*
%TD*%
D18*
%TO.C,R35*%
X239125000Y-113265000D03*
X239125000Y-114285000D03*
%TD*%
D25*
%TO.C,R8*%
X238690000Y-122800000D03*
X239710000Y-122800000D03*
%TD*%
D18*
%TO.C,R54*%
X231500000Y-131790000D03*
X231500000Y-132810000D03*
%TD*%
D24*
%TO.C,R56*%
X240800000Y-91610000D03*
X240800000Y-90590000D03*
%TD*%
D23*
%TO.C,R53*%
X226760000Y-107050000D03*
X225740000Y-107050000D03*
%TD*%
D47*
%TO.C,C23*%
X228970000Y-108250000D03*
X229930000Y-108250000D03*
%TD*%
D33*
%TO.C,C6*%
X220880000Y-107425000D03*
X219920000Y-107425000D03*
%TD*%
D50*
%TO.C,Q5*%
X233050000Y-133937500D03*
X234950000Y-133937500D03*
X234000000Y-132062500D03*
%TD*%
D25*
%TO.C,R36*%
X240090000Y-114275000D03*
X241110000Y-114275000D03*
%TD*%
D51*
%TO.C,C38*%
X236725000Y-88125000D03*
X236725000Y-85425000D03*
%TD*%
D25*
%TO.C,R18*%
X216365000Y-95200000D03*
X217385000Y-95200000D03*
%TD*%
D24*
%TO.C,R19*%
X241150000Y-99335000D03*
X241150000Y-98315000D03*
%TD*%
%TO.C,R44*%
X236425000Y-118185000D03*
X236425000Y-117165000D03*
%TD*%
D25*
%TO.C,R55*%
X237740000Y-129650000D03*
X238760000Y-129650000D03*
%TD*%
D29*
%TO.C,C43*%
X226800000Y-95920000D03*
X226800000Y-96880000D03*
%TD*%
D22*
%TO.C,STM_DEBUG1*%
X231475000Y-126060000D03*
X229475000Y-126060000D03*
X227475000Y-126060000D03*
X231475000Y-124060000D03*
X229475000Y-124060000D03*
X227475000Y-124060000D03*
%TD*%
D25*
%TO.C,R16*%
X222165000Y-91850000D03*
X223185000Y-91850000D03*
%TD*%
D49*
%TO.C,C35*%
X239125000Y-110480000D03*
X239125000Y-109520000D03*
%TD*%
D52*
%TO.C,D5*%
X225450000Y-126175000D03*
X225450000Y-124075000D03*
%TD*%
D23*
%TO.C,R57*%
X232710000Y-121150000D03*
X231690000Y-121150000D03*
%TD*%
D53*
%TO.C,U16*%
X240200000Y-113100000D03*
X240700000Y-113100000D03*
X241200000Y-113100000D03*
X241700000Y-113100000D03*
X241700000Y-110200000D03*
X241200000Y-110200000D03*
X240700000Y-110200000D03*
X240200000Y-110200000D03*
D54*
X240950000Y-111650000D03*
%TD*%
D33*
%TO.C,C27*%
X221255000Y-91850000D03*
X220295000Y-91850000D03*
%TD*%
D50*
%TO.C,Q6*%
X237700000Y-118387500D03*
X239600000Y-118387500D03*
X238650000Y-116512500D03*
%TD*%
D29*
%TO.C,C37*%
X233700000Y-120670000D03*
X233700000Y-121630000D03*
%TD*%
D33*
%TO.C,C11*%
X224080000Y-110800000D03*
X223120000Y-110800000D03*
%TD*%
D55*
%TO.C,Y2*%
X228825000Y-110350000D03*
X227625000Y-110350000D03*
%TD*%
D24*
%TO.C,R37*%
X239125000Y-112385000D03*
X239125000Y-111365000D03*
%TD*%
%TO.C,R49*%
X228050000Y-107960000D03*
X228050000Y-106940000D03*
%TD*%
D16*
%TO.C,U12*%
X234050000Y-96700000D03*
D17*
X236350000Y-90400000D03*
D16*
X236350000Y-96700000D03*
X238650000Y-96700000D03*
%TD*%
D56*
%TO.C,J4*%
X216000000Y-87280000D03*
D57*
X218540000Y-87280000D03*
X221080000Y-87280000D03*
X223620000Y-87280000D03*
X226160000Y-87280000D03*
X228700000Y-87280000D03*
X231240000Y-87280000D03*
X233780000Y-87280000D03*
%TD*%
D58*
%TO.C,U21*%
X232378320Y-105401820D03*
X231377310Y-98102330D03*
%TD*%
D56*
%TO.C,J2*%
X216000000Y-82200000D03*
D57*
X218540000Y-82200000D03*
X221080000Y-82200000D03*
X223620000Y-82200000D03*
X226160000Y-82200000D03*
X228700000Y-82200000D03*
X231240000Y-82200000D03*
X233780000Y-82200000D03*
%TD*%
D59*
%TO.C,J6*%
X238690000Y-130560000D03*
X232910000Y-130560000D03*
D60*
X231480000Y-130030000D03*
D61*
X240120000Y-134210000D03*
D60*
X240120000Y-130030000D03*
D61*
X231480000Y-134210000D03*
%TD*%
D56*
%TO.C,J3*%
X216000000Y-84740000D03*
D57*
X218540000Y-84740000D03*
X221080000Y-84740000D03*
X223620000Y-84740000D03*
X226160000Y-84740000D03*
X228700000Y-84740000D03*
X231240000Y-84740000D03*
X233780000Y-84740000D03*
%TD*%
D56*
%TO.C,J7*%
X215975000Y-103600000D03*
D57*
X215975000Y-106140000D03*
%TD*%
M02*
