%TF.GenerationSoftware,KiCad,Pcbnew,(6.0.0-0)*%
%TF.CreationDate,2022-02-19T21:54:14+03:00*%
%TF.ProjectId,CopterCat_cm4,436f7074-6572-4436-9174-5f636d342e6b,rev?*%
%TF.SameCoordinates,Original*%
%TF.FileFunction,Paste,Top*%
%TF.FilePolarity,Positive*%
%FSLAX46Y46*%
G04 Gerber Fmt 4.6, Leading zero omitted, Abs format (unit mm)*
G04 Created by KiCad (PCBNEW (6.0.0-0)) date 2022-02-19 21:54:14*
%MOMM*%
%LPD*%
G01*
G04 APERTURE LIST*
G04 Aperture macros list*
%AMRoundRect*
0 Rectangle with rounded corners*
0 $1 Rounding radius*
0 $2 $3 $4 $5 $6 $7 $8 $9 X,Y pos of 4 corners*
0 Add a 4 corners polygon primitive as box body*
4,1,4,$2,$3,$4,$5,$6,$7,$8,$9,$2,$3,0*
0 Add four circle primitives for the rounded corners*
1,1,$1+$1,$2,$3*
1,1,$1+$1,$4,$5*
1,1,$1+$1,$6,$7*
1,1,$1+$1,$8,$9*
0 Add four rect primitives between the rounded corners*
20,1,$1+$1,$2,$3,$4,$5,0*
20,1,$1+$1,$4,$5,$6,$7,0*
20,1,$1+$1,$6,$7,$8,$9,0*
20,1,$1+$1,$8,$9,$2,$3,0*%
G04 Aperture macros list end*
%ADD10R,1.500000X2.000000*%
%ADD11R,3.800000X2.000000*%
%ADD12RoundRect,0.135000X-0.185000X0.135000X-0.185000X-0.135000X0.185000X-0.135000X0.185000X0.135000X0*%
%ADD13RoundRect,0.250000X0.275000X0.275000X-0.275000X0.275000X-0.275000X-0.275000X0.275000X-0.275000X0*%
%ADD14RoundRect,0.062500X0.350000X0.062500X-0.350000X0.062500X-0.350000X-0.062500X0.350000X-0.062500X0*%
%ADD15RoundRect,0.062500X0.062500X0.350000X-0.062500X0.350000X-0.062500X-0.350000X0.062500X-0.350000X0*%
%ADD16RoundRect,0.135000X0.135000X0.185000X-0.135000X0.185000X-0.135000X-0.185000X0.135000X-0.185000X0*%
%ADD17RoundRect,0.135000X0.185000X-0.135000X0.185000X0.135000X-0.185000X0.135000X-0.185000X-0.135000X0*%
%ADD18RoundRect,0.135000X-0.135000X-0.185000X0.135000X-0.185000X0.135000X0.185000X-0.135000X0.185000X0*%
%ADD19RoundRect,0.247500X-0.247500X0.247500X-0.247500X-0.247500X0.247500X-0.247500X0.247500X0.247500X0*%
%ADD20RoundRect,0.062500X-0.062500X0.350000X-0.062500X-0.350000X0.062500X-0.350000X0.062500X0.350000X0*%
%ADD21RoundRect,0.062500X-0.350000X0.062500X-0.350000X-0.062500X0.350000X-0.062500X0.350000X0.062500X0*%
%ADD22RoundRect,0.140000X-0.170000X0.140000X-0.170000X-0.140000X0.170000X-0.140000X0.170000X0.140000X0*%
%ADD23R,0.425000X0.400000*%
%ADD24R,1.150000X0.950000*%
%ADD25R,0.750000X0.300000*%
%ADD26RoundRect,0.140000X0.140000X0.170000X-0.140000X0.170000X-0.140000X-0.170000X0.140000X-0.170000X0*%
%ADD27R,0.400000X0.650000*%
%ADD28RoundRect,0.150000X-0.150000X0.587500X-0.150000X-0.587500X0.150000X-0.587500X0.150000X0.587500X0*%
%ADD29R,0.900000X0.800000*%
%ADD30R,0.300000X0.550000*%
%ADD31R,0.400000X0.550000*%
%ADD32R,0.700000X0.200000*%
%ADD33R,0.800000X0.900000*%
%ADD34R,0.300000X1.300000*%
%ADD35R,1.800000X2.200000*%
%ADD36RoundRect,0.250000X-0.450000X-0.425000X0.450000X-0.425000X0.450000X0.425000X-0.450000X0.425000X0*%
%ADD37RoundRect,0.007000X-0.183000X0.168000X-0.183000X-0.168000X0.183000X-0.168000X0.183000X0.168000X0*%
%ADD38C,0.300000*%
%ADD39RoundRect,0.140000X-0.140000X-0.170000X0.140000X-0.170000X0.140000X0.170000X-0.140000X0.170000X0*%
%ADD40R,1.500000X0.650000*%
%ADD41RoundRect,0.140000X0.170000X-0.140000X0.170000X0.140000X-0.170000X0.140000X-0.170000X-0.140000X0*%
%ADD42RoundRect,0.150000X0.150000X-0.587500X0.150000X0.587500X-0.150000X0.587500X-0.150000X-0.587500X0*%
%ADD43RoundRect,0.250000X0.425000X-0.450000X0.425000X0.450000X-0.425000X0.450000X-0.425000X-0.450000X0*%
%ADD44C,1.500000*%
%ADD45R,0.450000X0.600000*%
%ADD46R,0.600000X0.500000*%
%ADD47R,0.300000X0.750000*%
%ADD48R,0.600000X1.200000*%
G04 APERTURE END LIST*
D10*
%TO.C,U9*%
X246300000Y-119050000D03*
X244000000Y-119050000D03*
D11*
X244000000Y-125350000D03*
D10*
X241700000Y-119050000D03*
%TD*%
D12*
%TO.C,R17*%
X232225000Y-93365000D03*
X232225000Y-94385000D03*
%TD*%
D13*
%TO.C,U8*%
X221100000Y-95650000D03*
X221100000Y-96950000D03*
X219800000Y-95650000D03*
X219800000Y-96950000D03*
D14*
X222387500Y-97550000D03*
X222387500Y-97050000D03*
X222387500Y-96550000D03*
X222387500Y-96050000D03*
X222387500Y-95550000D03*
X222387500Y-95050000D03*
D15*
X221700000Y-94362500D03*
X221200000Y-94362500D03*
X220700000Y-94362500D03*
X220200000Y-94362500D03*
X219700000Y-94362500D03*
X219200000Y-94362500D03*
D14*
X218512500Y-95050000D03*
X218512500Y-95550000D03*
X218512500Y-96050000D03*
X218512500Y-96550000D03*
X218512500Y-97050000D03*
X218512500Y-97550000D03*
D15*
X219200000Y-98237500D03*
X219700000Y-98237500D03*
X220200000Y-98237500D03*
X220700000Y-98237500D03*
X221200000Y-98237500D03*
X221700000Y-98237500D03*
%TD*%
D16*
%TO.C,R38*%
X233635000Y-129475000D03*
X232615000Y-129475000D03*
%TD*%
D17*
%TO.C,R20*%
X241150000Y-101235000D03*
X241150000Y-100215000D03*
%TD*%
D16*
%TO.C,R48*%
X224860000Y-107050000D03*
X223840000Y-107050000D03*
%TD*%
D18*
%TO.C,R15*%
X222165000Y-90875000D03*
X223185000Y-90875000D03*
%TD*%
D19*
%TO.C,U19*%
X224900000Y-104100000D03*
X223670000Y-101640000D03*
X226130000Y-101640000D03*
X224900000Y-101640000D03*
X226130000Y-102870000D03*
X224900000Y-102870000D03*
X223670000Y-104100000D03*
X223670000Y-102870000D03*
X226130000Y-104100000D03*
D20*
X226900000Y-99932500D03*
X226400000Y-99932500D03*
X225900000Y-99932500D03*
X225400000Y-99932500D03*
X224900000Y-99932500D03*
X224400000Y-99932500D03*
X223900000Y-99932500D03*
X223400000Y-99932500D03*
X222900000Y-99932500D03*
D21*
X221962500Y-100870000D03*
X221962500Y-101370000D03*
X221962500Y-101870000D03*
X221962500Y-102370000D03*
X221962500Y-102870000D03*
X221962500Y-103370000D03*
X221962500Y-103870000D03*
X221962500Y-104370000D03*
X221962500Y-104870000D03*
D20*
X222900000Y-105807500D03*
X223400000Y-105807500D03*
X223900000Y-105807500D03*
X224400000Y-105807500D03*
X224900000Y-105807500D03*
X225400000Y-105807500D03*
X225900000Y-105807500D03*
X226400000Y-105807500D03*
X226900000Y-105807500D03*
D21*
X227837500Y-104870000D03*
X227837500Y-104370000D03*
X227837500Y-103870000D03*
X227837500Y-103370000D03*
X227837500Y-102870000D03*
X227837500Y-102370000D03*
X227837500Y-101870000D03*
X227837500Y-101370000D03*
X227837500Y-100870000D03*
%TD*%
D12*
%TO.C,R51*%
X229000000Y-99540000D03*
X229000000Y-100560000D03*
%TD*%
D22*
%TO.C,C9*%
X229925000Y-109870000D03*
X229925000Y-110830000D03*
%TD*%
%TO.C,C25*%
X240800000Y-94420000D03*
X240800000Y-95380000D03*
%TD*%
D23*
%TO.C,Q8*%
X241912500Y-91850000D03*
X241912500Y-92500000D03*
X241912500Y-93150000D03*
X243787500Y-93150000D03*
X243787500Y-92500000D03*
X243787500Y-91850000D03*
D24*
X242850000Y-92175000D03*
D25*
X242850000Y-93150000D03*
%TD*%
D22*
%TO.C,C20*%
X228990000Y-101470000D03*
X228990000Y-102430000D03*
%TD*%
D26*
%TO.C,C8*%
X225910000Y-110800000D03*
X224950000Y-110800000D03*
%TD*%
D12*
%TO.C,R43*%
X236425000Y-119065000D03*
X236425000Y-120085000D03*
%TD*%
D27*
%TO.C,U13*%
X239650000Y-123950000D03*
X239000000Y-123950000D03*
X238350000Y-123950000D03*
X238350000Y-125850000D03*
X239650000Y-125850000D03*
%TD*%
D18*
%TO.C,R50*%
X238590000Y-127100000D03*
X239610000Y-127100000D03*
%TD*%
D27*
%TO.C,Q3*%
X217075000Y-96350000D03*
X216425000Y-96350000D03*
X215775000Y-96350000D03*
X215775000Y-98250000D03*
X216425000Y-98250000D03*
X217075000Y-98250000D03*
%TD*%
D22*
%TO.C,C21*%
X228990000Y-103330000D03*
X228990000Y-104290000D03*
%TD*%
D28*
%TO.C,Q7*%
X235150000Y-117262500D03*
X233250000Y-117262500D03*
X234200000Y-119137500D03*
%TD*%
D22*
%TO.C,C7*%
X221775000Y-108895000D03*
X221775000Y-109855000D03*
%TD*%
D16*
%TO.C,R29*%
X241110000Y-108025000D03*
X240090000Y-108025000D03*
%TD*%
D29*
%TO.C,Y1*%
X225230000Y-108450000D03*
X223830000Y-108450000D03*
X223830000Y-109550000D03*
X225230000Y-109550000D03*
%TD*%
D30*
%TO.C,U15*%
X237050000Y-125215000D03*
X236550000Y-125215000D03*
D31*
X236050000Y-125215000D03*
D30*
X235550000Y-125215000D03*
X235050000Y-125215000D03*
X235050000Y-125985000D03*
X235550000Y-125985000D03*
D31*
X236050000Y-125985000D03*
D30*
X236550000Y-125985000D03*
X237050000Y-125985000D03*
%TD*%
D17*
%TO.C,R47*%
X240800000Y-93510000D03*
X240800000Y-92490000D03*
%TD*%
D28*
%TO.C,Q4*%
X238350000Y-132062500D03*
X236450000Y-132062500D03*
X237400000Y-133937500D03*
%TD*%
D26*
%TO.C,C22*%
X229930000Y-107275000D03*
X228970000Y-107275000D03*
%TD*%
D32*
%TO.C,U6*%
X246000000Y-115300000D03*
X242920000Y-115300000D03*
X246000000Y-114900000D03*
X242920000Y-114900000D03*
X246000000Y-114500000D03*
X242920000Y-114500000D03*
X246000000Y-114100000D03*
X242920000Y-114100000D03*
X246000000Y-113700000D03*
X242920000Y-113700000D03*
X246000000Y-113300000D03*
X242920000Y-113300000D03*
X246000000Y-112900000D03*
X242920000Y-112900000D03*
X246000000Y-112500000D03*
X242920000Y-112500000D03*
X246000000Y-112100000D03*
X242920000Y-112100000D03*
X246000000Y-111700000D03*
X242920000Y-111700000D03*
X246000000Y-111300000D03*
X242920000Y-111300000D03*
X246000000Y-110900000D03*
X242920000Y-110900000D03*
X246000000Y-110500000D03*
X242920000Y-110500000D03*
X246000000Y-110100000D03*
X242920000Y-110100000D03*
X246000000Y-109700000D03*
X242920000Y-109700000D03*
X246000000Y-109300000D03*
X242920000Y-109300000D03*
X246000000Y-108900000D03*
X242920000Y-108900000D03*
X246000000Y-108500000D03*
X242920000Y-108500000D03*
X246000000Y-108100000D03*
X242920000Y-108100000D03*
X246000000Y-107700000D03*
X242920000Y-107700000D03*
X246000000Y-107300000D03*
X242920000Y-107300000D03*
X246000000Y-106900000D03*
X242920000Y-106900000D03*
X246000000Y-106500000D03*
X242920000Y-106500000D03*
X246000000Y-106100000D03*
X242920000Y-106100000D03*
X246000000Y-105700000D03*
X242920000Y-105700000D03*
X246000000Y-105300000D03*
X242920000Y-105300000D03*
X246000000Y-104900000D03*
X242920000Y-104900000D03*
X246000000Y-104500000D03*
X242920000Y-104500000D03*
X246000000Y-104100000D03*
X242920000Y-104100000D03*
X246000000Y-103700000D03*
X242920000Y-103700000D03*
X246000000Y-103300000D03*
X242920000Y-103300000D03*
X246000000Y-102900000D03*
X242920000Y-102900000D03*
X246000000Y-102500000D03*
X242920000Y-102500000D03*
X246000000Y-102100000D03*
X242920000Y-102100000D03*
X246000000Y-101700000D03*
X242920000Y-101700000D03*
X246000000Y-101300000D03*
X242920000Y-101300000D03*
X246000000Y-100900000D03*
X242920000Y-100900000D03*
X246000000Y-100500000D03*
X242920000Y-100500000D03*
X246000000Y-100100000D03*
X242920000Y-100100000D03*
X246000000Y-99700000D03*
X242920000Y-99700000D03*
X246000000Y-99300000D03*
X242920000Y-99300000D03*
X246000000Y-98900000D03*
X242920000Y-98900000D03*
X246000000Y-98500000D03*
X242920000Y-98500000D03*
X246000000Y-98100000D03*
X242920000Y-98100000D03*
X246000000Y-97700000D03*
X242920000Y-97700000D03*
X246000000Y-97300000D03*
X242920000Y-97300000D03*
X246000000Y-96900000D03*
X242920000Y-96900000D03*
X246000000Y-96500000D03*
X242920000Y-96500000D03*
X246000000Y-96100000D03*
X242920000Y-96100000D03*
X246000000Y-95700000D03*
X242920000Y-95700000D03*
X212080000Y-115300000D03*
X209000000Y-115300000D03*
X212080000Y-114900000D03*
X209000000Y-114900000D03*
X212080000Y-114500000D03*
X209000000Y-114500000D03*
X212080000Y-114100000D03*
X209000000Y-114100000D03*
X212080000Y-113700000D03*
X209000000Y-113700000D03*
X212080000Y-113300000D03*
X209000000Y-113300000D03*
X212080000Y-112900000D03*
X209000000Y-112900000D03*
X212080000Y-112500000D03*
X209000000Y-112500000D03*
X212080000Y-112100000D03*
X209000000Y-112100000D03*
X212080000Y-111700000D03*
X209000000Y-111700000D03*
X212080000Y-111300000D03*
X209000000Y-111300000D03*
X212080000Y-110900000D03*
X209000000Y-110900000D03*
X212080000Y-110500000D03*
X209000000Y-110500000D03*
X212080000Y-110100000D03*
X209000000Y-110100000D03*
X212080000Y-109700000D03*
X209000000Y-109700000D03*
X212080000Y-109300000D03*
X209000000Y-109300000D03*
X212080000Y-108900000D03*
X209000000Y-108900000D03*
X212080000Y-108500000D03*
X209000000Y-108500000D03*
X212080000Y-108100000D03*
X209000000Y-108100000D03*
X212080000Y-107700000D03*
X209000000Y-107700000D03*
X212080000Y-107300000D03*
X209000000Y-107300000D03*
X212080000Y-106900000D03*
X209000000Y-106900000D03*
X212080000Y-106500000D03*
X209000000Y-106500000D03*
X212080000Y-106100000D03*
X209000000Y-106100000D03*
X212080000Y-105700000D03*
X209000000Y-105700000D03*
X212080000Y-105300000D03*
X209000000Y-105300000D03*
X212080000Y-104900000D03*
X209000000Y-104900000D03*
X212080000Y-104500000D03*
X209000000Y-104500000D03*
X212080000Y-104100000D03*
X209000000Y-104100000D03*
X212080000Y-103700000D03*
X209000000Y-103700000D03*
X212080000Y-103300000D03*
X209000000Y-103300000D03*
X212080000Y-102900000D03*
X209000000Y-102900000D03*
X212080000Y-102500000D03*
X209000000Y-102500000D03*
X212080000Y-102100000D03*
X209000000Y-102100000D03*
X212080000Y-101700000D03*
X209000000Y-101700000D03*
X212080000Y-101300000D03*
X209000000Y-101300000D03*
X212080000Y-100900000D03*
X209000000Y-100900000D03*
X212080000Y-100500000D03*
X209000000Y-100500000D03*
X212080000Y-100100000D03*
X209000000Y-100100000D03*
X212080000Y-99700000D03*
X209000000Y-99700000D03*
X212080000Y-99300000D03*
X209000000Y-99300000D03*
X212080000Y-98900000D03*
X209000000Y-98900000D03*
X212080000Y-98500000D03*
X209000000Y-98500000D03*
X212080000Y-98100000D03*
X209000000Y-98100000D03*
X212080000Y-97700000D03*
X209000000Y-97700000D03*
X212080000Y-97300000D03*
X209000000Y-97300000D03*
X212080000Y-96900000D03*
X209000000Y-96900000D03*
X212080000Y-96500000D03*
X209000000Y-96500000D03*
X212080000Y-96100000D03*
X209000000Y-96100000D03*
X212080000Y-95700000D03*
X209000000Y-95700000D03*
%TD*%
D16*
%TO.C,R39*%
X238760000Y-128700000D03*
X237740000Y-128700000D03*
%TD*%
D18*
%TO.C,R52*%
X228940000Y-105900000D03*
X229960000Y-105900000D03*
%TD*%
D33*
%TO.C,Y3*%
X230230000Y-102190000D03*
X230230000Y-103590000D03*
X231330000Y-103590000D03*
X231330000Y-102190000D03*
%TD*%
D22*
%TO.C,C42*%
X224900000Y-95920000D03*
X224900000Y-96880000D03*
%TD*%
D34*
%TO.C,CAM1*%
X217050000Y-130500000D03*
X217550000Y-130500000D03*
X218050000Y-130500000D03*
X218550000Y-130500000D03*
X219050000Y-130500000D03*
X219550000Y-130500000D03*
X220050000Y-130500000D03*
X220550000Y-130500000D03*
X221050000Y-130500000D03*
X221550000Y-130500000D03*
X222050000Y-130500000D03*
X222550000Y-130500000D03*
X223050000Y-130500000D03*
X223550000Y-130500000D03*
X224050000Y-130500000D03*
X224550000Y-130500000D03*
X225050000Y-130500000D03*
X225550000Y-130500000D03*
X226050000Y-130500000D03*
X226550000Y-130500000D03*
X227050000Y-130500000D03*
X227550000Y-130500000D03*
D35*
X215150000Y-133750000D03*
X229450000Y-133750000D03*
%TD*%
D22*
%TO.C,C19*%
X214425000Y-97520000D03*
X214425000Y-98480000D03*
%TD*%
D36*
%TO.C,C41*%
X241350000Y-127700000D03*
X244050000Y-127700000D03*
%TD*%
D37*
%TO.C,U3*%
X220350000Y-108517500D03*
X219850000Y-108517500D03*
X219335000Y-108782500D03*
X219335000Y-109282500D03*
X219335000Y-109782500D03*
X219850000Y-110047500D03*
X220350000Y-110047500D03*
X220865000Y-109782500D03*
X220865000Y-109282500D03*
X220865000Y-108782500D03*
%TD*%
D38*
%TO.C,U1*%
X229700000Y-112750000D03*
X229700000Y-113400000D03*
X229700000Y-114050000D03*
X229700000Y-114700000D03*
X229700000Y-115350000D03*
X229700000Y-116000000D03*
X229700000Y-116650000D03*
X229700000Y-117300000D03*
X229700000Y-117950000D03*
X229700000Y-118600000D03*
X229700000Y-119250000D03*
X229700000Y-119900000D03*
X229700000Y-120550000D03*
X229700000Y-121200000D03*
X229700000Y-121850000D03*
X229050000Y-112750000D03*
X229050000Y-113400000D03*
X229050000Y-114050000D03*
X229050000Y-114700000D03*
X229050000Y-115350000D03*
X229050000Y-116000000D03*
X229050000Y-116650000D03*
X229050000Y-117300000D03*
X229050000Y-117950000D03*
X229050000Y-118600000D03*
X229050000Y-119250000D03*
X229050000Y-119900000D03*
X229050000Y-120550000D03*
X229050000Y-121200000D03*
X229050000Y-121850000D03*
X228400000Y-112750000D03*
X228400000Y-113400000D03*
X228400000Y-114050000D03*
X228400000Y-114700000D03*
X228400000Y-115350000D03*
X228400000Y-116000000D03*
X228400000Y-116650000D03*
X228400000Y-117300000D03*
X228400000Y-117950000D03*
X228400000Y-118600000D03*
X228400000Y-119250000D03*
X228400000Y-119900000D03*
X228400000Y-120550000D03*
X228400000Y-121200000D03*
X228400000Y-121850000D03*
X227750000Y-112750000D03*
X227750000Y-113400000D03*
X227750000Y-114050000D03*
X227750000Y-114700000D03*
X227750000Y-115350000D03*
X227750000Y-116000000D03*
X227750000Y-116650000D03*
X227750000Y-117300000D03*
X227750000Y-117950000D03*
X227750000Y-118600000D03*
X227750000Y-119250000D03*
X227750000Y-119900000D03*
X227750000Y-120550000D03*
X227750000Y-121200000D03*
X227750000Y-121850000D03*
X227100000Y-112750000D03*
X227100000Y-113400000D03*
X227100000Y-114050000D03*
X227100000Y-114700000D03*
X227100000Y-119900000D03*
X227100000Y-120550000D03*
X227100000Y-121200000D03*
X227100000Y-121850000D03*
X226450000Y-112750000D03*
X226450000Y-113400000D03*
X226450000Y-114050000D03*
X226450000Y-114700000D03*
X226450000Y-116000000D03*
X226450000Y-116650000D03*
X226450000Y-117300000D03*
X226450000Y-117950000D03*
X226450000Y-118600000D03*
X226450000Y-119900000D03*
X226450000Y-120550000D03*
X226450000Y-121200000D03*
X226450000Y-121850000D03*
X225800000Y-112750000D03*
X225800000Y-113400000D03*
X225800000Y-114050000D03*
X225800000Y-114700000D03*
X225800000Y-116000000D03*
X225800000Y-116650000D03*
X225800000Y-117300000D03*
X225800000Y-117950000D03*
X225800000Y-118600000D03*
X225800000Y-119900000D03*
X225800000Y-120550000D03*
X225800000Y-121200000D03*
X225800000Y-121850000D03*
X225150000Y-112750000D03*
X225150000Y-113400000D03*
X225150000Y-114050000D03*
X225150000Y-114700000D03*
X225150000Y-116000000D03*
X225150000Y-116650000D03*
X225150000Y-117300000D03*
X225150000Y-117950000D03*
X225150000Y-118600000D03*
X225150000Y-119900000D03*
X225150000Y-120550000D03*
X225150000Y-121200000D03*
X225150000Y-121850000D03*
X224500000Y-112750000D03*
X224500000Y-113400000D03*
X224500000Y-114050000D03*
X224500000Y-114700000D03*
X224500000Y-116000000D03*
X224500000Y-116650000D03*
X224500000Y-117300000D03*
X224500000Y-117950000D03*
X224500000Y-118600000D03*
X224500000Y-119900000D03*
X224500000Y-120550000D03*
X224500000Y-121200000D03*
X224500000Y-121850000D03*
X223850000Y-112750000D03*
X223850000Y-113400000D03*
X223850000Y-114050000D03*
X223850000Y-114700000D03*
X223850000Y-116000000D03*
X223850000Y-116650000D03*
X223850000Y-117300000D03*
X223850000Y-117950000D03*
X223850000Y-118600000D03*
X223850000Y-119900000D03*
X223850000Y-120550000D03*
X223850000Y-121200000D03*
X223850000Y-121850000D03*
X223200000Y-112750000D03*
X223200000Y-113400000D03*
X223200000Y-114050000D03*
X223200000Y-114700000D03*
X223200000Y-119900000D03*
X223200000Y-120550000D03*
X223200000Y-121200000D03*
X223200000Y-121850000D03*
X222550000Y-112750000D03*
X222550000Y-113400000D03*
X222550000Y-114050000D03*
X222550000Y-114700000D03*
X222550000Y-115350000D03*
X222550000Y-116000000D03*
X222550000Y-116650000D03*
X222550000Y-117300000D03*
X222550000Y-117950000D03*
X222550000Y-118600000D03*
X222550000Y-119250000D03*
X222550000Y-119900000D03*
X222550000Y-120550000D03*
X222550000Y-121200000D03*
X222550000Y-121850000D03*
X221900000Y-112750000D03*
X221900000Y-113400000D03*
X221900000Y-114050000D03*
X221900000Y-114700000D03*
X221900000Y-115350000D03*
X221900000Y-116000000D03*
X221900000Y-116650000D03*
X221900000Y-117300000D03*
X221900000Y-117950000D03*
X221900000Y-118600000D03*
X221900000Y-119250000D03*
X221900000Y-119900000D03*
X221900000Y-120550000D03*
X221900000Y-121200000D03*
X221900000Y-121850000D03*
X221250000Y-112750000D03*
X221250000Y-113400000D03*
X221250000Y-114050000D03*
X221250000Y-114700000D03*
X221250000Y-115350000D03*
X221250000Y-116000000D03*
X221250000Y-116650000D03*
X221250000Y-117300000D03*
X221250000Y-117950000D03*
X221250000Y-118600000D03*
X221250000Y-119250000D03*
X221250000Y-119900000D03*
X221250000Y-120550000D03*
X221250000Y-121200000D03*
X221250000Y-121850000D03*
X220600000Y-112750000D03*
X220600000Y-113400000D03*
X220600000Y-114050000D03*
X220600000Y-114700000D03*
X220600000Y-115350000D03*
X220600000Y-116000000D03*
X220600000Y-116650000D03*
X220600000Y-117300000D03*
X220600000Y-117950000D03*
X220600000Y-118600000D03*
X220600000Y-119250000D03*
X220600000Y-119900000D03*
X220600000Y-120550000D03*
X220600000Y-121200000D03*
X220600000Y-121850000D03*
%TD*%
D36*
%TO.C,C40*%
X228275000Y-96525000D03*
X230975000Y-96525000D03*
%TD*%
D39*
%TO.C,C24*%
X238950000Y-119875000D03*
X239910000Y-119875000D03*
%TD*%
D22*
%TO.C,C44*%
X225875000Y-95920000D03*
X225875000Y-96880000D03*
%TD*%
D40*
%TO.C,IC1*%
X225325000Y-90820000D03*
X225325000Y-92090000D03*
X225325000Y-93360000D03*
X225325000Y-94630000D03*
X230725000Y-94630000D03*
X230725000Y-93360000D03*
X230725000Y-92090000D03*
X230725000Y-90820000D03*
%TD*%
D18*
%TO.C,R30*%
X240090000Y-109025000D03*
X241110000Y-109025000D03*
%TD*%
D41*
%TO.C,C12*%
X226525000Y-109880000D03*
X226525000Y-108920000D03*
%TD*%
D12*
%TO.C,R35*%
X239125000Y-113265000D03*
X239125000Y-114285000D03*
%TD*%
D18*
%TO.C,R8*%
X238690000Y-122800000D03*
X239710000Y-122800000D03*
%TD*%
D12*
%TO.C,R54*%
X231500000Y-131790000D03*
X231500000Y-132810000D03*
%TD*%
D17*
%TO.C,R56*%
X240800000Y-91610000D03*
X240800000Y-90590000D03*
%TD*%
D16*
%TO.C,R53*%
X226760000Y-107050000D03*
X225740000Y-107050000D03*
%TD*%
D39*
%TO.C,C23*%
X228970000Y-108250000D03*
X229930000Y-108250000D03*
%TD*%
D26*
%TO.C,C6*%
X220880000Y-107425000D03*
X219920000Y-107425000D03*
%TD*%
D42*
%TO.C,Q5*%
X233050000Y-133937500D03*
X234950000Y-133937500D03*
X234000000Y-132062500D03*
%TD*%
D18*
%TO.C,R36*%
X240090000Y-114275000D03*
X241110000Y-114275000D03*
%TD*%
D43*
%TO.C,C38*%
X236725000Y-88125000D03*
X236725000Y-85425000D03*
%TD*%
D18*
%TO.C,R18*%
X216365000Y-95200000D03*
X217385000Y-95200000D03*
%TD*%
D17*
%TO.C,R19*%
X241150000Y-99335000D03*
X241150000Y-98315000D03*
%TD*%
%TO.C,R44*%
X236425000Y-118185000D03*
X236425000Y-117165000D03*
%TD*%
D18*
%TO.C,R55*%
X237740000Y-129650000D03*
X238760000Y-129650000D03*
%TD*%
D22*
%TO.C,C43*%
X226800000Y-95920000D03*
X226800000Y-96880000D03*
%TD*%
D44*
%TO.C,STM_DEBUG1*%
X231475000Y-126060000D03*
X229475000Y-126060000D03*
X227475000Y-126060000D03*
X231475000Y-124060000D03*
X229475000Y-124060000D03*
X227475000Y-124060000D03*
%TD*%
D18*
%TO.C,R16*%
X222165000Y-91850000D03*
X223185000Y-91850000D03*
%TD*%
D41*
%TO.C,C35*%
X239125000Y-110480000D03*
X239125000Y-109520000D03*
%TD*%
D45*
%TO.C,D5*%
X225450000Y-126175000D03*
X225450000Y-124075000D03*
%TD*%
D16*
%TO.C,R57*%
X232710000Y-121150000D03*
X231690000Y-121150000D03*
%TD*%
D46*
%TO.C,U16*%
X240575000Y-111975000D03*
X240575000Y-111325000D03*
X241325000Y-111975000D03*
X241325000Y-111325000D03*
D47*
X240200000Y-113100000D03*
X240700000Y-113100000D03*
X241200000Y-113100000D03*
X241700000Y-113100000D03*
X241700000Y-110200000D03*
X241200000Y-110200000D03*
X240700000Y-110200000D03*
X240200000Y-110200000D03*
%TD*%
D26*
%TO.C,C27*%
X221255000Y-91850000D03*
X220295000Y-91850000D03*
%TD*%
D42*
%TO.C,Q6*%
X237700000Y-118387500D03*
X239600000Y-118387500D03*
X238650000Y-116512500D03*
%TD*%
D22*
%TO.C,C37*%
X233700000Y-120670000D03*
X233700000Y-121630000D03*
%TD*%
D26*
%TO.C,C11*%
X224080000Y-110800000D03*
X223120000Y-110800000D03*
%TD*%
D48*
%TO.C,Y2*%
X228825000Y-110350000D03*
X227625000Y-110350000D03*
%TD*%
D17*
%TO.C,R37*%
X239125000Y-112385000D03*
X239125000Y-111365000D03*
%TD*%
%TO.C,R49*%
X228050000Y-107960000D03*
X228050000Y-106940000D03*
%TD*%
D10*
%TO.C,U12*%
X234050000Y-96700000D03*
D11*
X236350000Y-90400000D03*
D10*
X236350000Y-96700000D03*
X238650000Y-96700000D03*
%TD*%
M02*
