%TF.GenerationSoftware,KiCad,Pcbnew,(6.0.0-0)*%
%TF.CreationDate,2022-02-19T21:54:15+03:00*%
%TF.ProjectId,CopterCat_cm4,436f7074-6572-4436-9174-5f636d342e6b,rev?*%
%TF.SameCoordinates,Original*%
%TF.FileFunction,Other,User*%
%FSLAX46Y46*%
G04 Gerber Fmt 4.6, Leading zero omitted, Abs format (unit mm)*
G04 Created by KiCad (PCBNEW (6.0.0-0)) date 2022-02-19 21:54:15*
%MOMM*%
%LPD*%
G01*
G04 APERTURE LIST*
%ADD10C,0.050000*%
G04 APERTURE END LIST*
D10*
%TO.C,J4*%
X214200000Y-85480000D02*
X235550000Y-85480000D01*
X235550000Y-85480000D02*
X235550000Y-89080000D01*
X235550000Y-89080000D02*
X214200000Y-89080000D01*
X214200000Y-89080000D02*
X214200000Y-85480000D01*
%TO.C,C31*%
X218935000Y-98485000D02*
X218935000Y-97565000D01*
X217115000Y-97565000D02*
X217115000Y-98485000D01*
X218935000Y-97565000D02*
X217115000Y-97565000D01*
X217115000Y-98485000D02*
X218935000Y-98485000D01*
%TO.C,C34*%
X223605000Y-97460000D02*
X223605000Y-95640000D01*
X222685000Y-95640000D02*
X222685000Y-97460000D01*
X223605000Y-95640000D02*
X222685000Y-95640000D01*
X222685000Y-97460000D02*
X223605000Y-97460000D01*
%TO.C,C32*%
X224535000Y-95640000D02*
X223615000Y-95640000D01*
X223615000Y-95640000D02*
X223615000Y-97460000D01*
X223615000Y-97460000D02*
X224535000Y-97460000D01*
X224535000Y-97460000D02*
X224535000Y-95640000D01*
%TO.C,U18*%
X224400000Y-103525000D02*
X227000000Y-103525000D01*
X227000000Y-101325000D02*
X224400000Y-101325000D01*
X224400000Y-103525000D02*
X224400000Y-101325000D01*
X227000000Y-101325000D02*
X227000000Y-103525000D01*
%TO.C,Q2*%
X237390000Y-92430000D02*
X237390000Y-89930000D01*
X237390000Y-89930000D02*
X240190000Y-89930000D01*
X240190000Y-89930000D02*
X240190000Y-92430000D01*
X240190000Y-92430000D02*
X237390000Y-92430000D01*
%TO.C,U5*%
X222880000Y-106820000D02*
X222880000Y-108880000D01*
X220820000Y-106820000D02*
X220820000Y-108880000D01*
X222880000Y-106820000D02*
X220820000Y-106820000D01*
X222880000Y-108880000D02*
X220820000Y-108880000D01*
%TO.C,TELEM2*%
X247674600Y-118539400D02*
X247674600Y-127979400D01*
X241274600Y-127979400D02*
X241274600Y-118539400D01*
X241274600Y-118539400D02*
X247674600Y-118539400D01*
X247674600Y-127979400D02*
X241274600Y-127979400D01*
%TO.C,R4*%
X218480000Y-110280000D02*
X216620000Y-110280000D01*
X216620000Y-110280000D02*
X216620000Y-111220000D01*
X218480000Y-111220000D02*
X218480000Y-110280000D01*
X216620000Y-111220000D02*
X218480000Y-111220000D01*
%TO.C,R23*%
X224195000Y-109670000D02*
X226055000Y-109670000D01*
X224195000Y-108730000D02*
X224195000Y-109670000D01*
X226055000Y-109670000D02*
X226055000Y-108730000D01*
X226055000Y-108730000D02*
X224195000Y-108730000D01*
%TO.C,ANT1*%
X209662500Y-92000000D02*
X207562500Y-92000000D01*
X207562500Y-92000000D02*
X207562500Y-93300000D01*
X207562500Y-93300000D02*
X209662500Y-93300000D01*
X209662500Y-93300000D02*
X209662500Y-92000000D01*
%TO.C,JP1*%
X227700000Y-106200000D02*
X227700000Y-108700000D01*
X227700000Y-106200000D02*
X224400000Y-106200000D01*
X224400000Y-108700000D02*
X227700000Y-108700000D01*
X224400000Y-108700000D02*
X224400000Y-106200000D01*
%TO.C,C4*%
X235360000Y-124010000D02*
X235360000Y-122190000D01*
X234440000Y-122190000D02*
X234440000Y-124010000D01*
X234440000Y-124010000D02*
X235360000Y-124010000D01*
X235360000Y-122190000D02*
X234440000Y-122190000D01*
%TO.C,R1*%
X238153020Y-99820810D02*
X238153020Y-98880810D01*
X236293020Y-98880810D02*
X236293020Y-99820810D01*
X238153020Y-98880810D02*
X236293020Y-98880810D01*
X236293020Y-99820810D02*
X238153020Y-99820810D01*
%TO.C,R14*%
X221470000Y-99405000D02*
X221470000Y-97545000D01*
X220530000Y-97545000D02*
X220530000Y-99405000D01*
X221470000Y-97545000D02*
X220530000Y-97545000D01*
X220530000Y-99405000D02*
X221470000Y-99405000D01*
%TO.C,U14*%
X222600000Y-101175000D02*
X222600000Y-103375000D01*
X220000000Y-103375000D02*
X220000000Y-101175000D01*
X220000000Y-103375000D02*
X222600000Y-103375000D01*
X222600000Y-101175000D02*
X220000000Y-101175000D01*
%TO.C,U2*%
X230900000Y-126450000D02*
X230900000Y-122950000D01*
X234400000Y-126450000D02*
X230900000Y-126450000D01*
X230900000Y-122950000D02*
X234400000Y-122950000D01*
X234400000Y-122950000D02*
X234400000Y-126450000D01*
%TO.C,R26*%
X225630000Y-110920000D02*
X225630000Y-109980000D01*
X225630000Y-109980000D02*
X223770000Y-109980000D01*
X223770000Y-109980000D02*
X223770000Y-110920000D01*
X223770000Y-110920000D02*
X225630000Y-110920000D01*
%TO.C,R13*%
X217820000Y-107605000D02*
X217820000Y-108545000D01*
X219680000Y-107605000D02*
X217820000Y-107605000D01*
X217820000Y-108545000D02*
X219680000Y-108545000D01*
X219680000Y-108545000D02*
X219680000Y-107605000D01*
%TO.C,R45*%
X221795000Y-111930000D02*
X221795000Y-110070000D01*
X220855000Y-111930000D02*
X221795000Y-111930000D01*
X221795000Y-110070000D02*
X220855000Y-110070000D01*
X220855000Y-110070000D02*
X220855000Y-111930000D01*
%TO.C,D7*%
X215600000Y-98500000D02*
X213700000Y-98500000D01*
X215600000Y-101700000D02*
X215600000Y-98500000D01*
X215600000Y-101700000D02*
X213700000Y-101700000D01*
X213700000Y-101700000D02*
X213700000Y-98500000D01*
%TO.C,C17*%
X230135000Y-128390000D02*
X228315000Y-128390000D01*
X228315000Y-129310000D02*
X230135000Y-129310000D01*
X230135000Y-129310000D02*
X230135000Y-128390000D01*
X228315000Y-128390000D02*
X228315000Y-129310000D01*
%TO.C,D1*%
X235675000Y-111400000D02*
X232875000Y-111400000D01*
X232875000Y-108000000D02*
X235675000Y-108000000D01*
X235675000Y-108000000D02*
X235675000Y-111400000D01*
X232875000Y-111400000D02*
X232875000Y-108000000D01*
%TO.C,C29*%
X210710000Y-93085000D02*
X210710000Y-91265000D01*
X209790000Y-91265000D02*
X209790000Y-93085000D01*
X210710000Y-91265000D02*
X209790000Y-91265000D01*
X209790000Y-93085000D02*
X210710000Y-93085000D01*
%TO.C,IO13*%
X243100000Y-87625000D02*
G75*
G03*
X243100000Y-87625000I-1250000J0D01*
G01*
%TO.C,R24*%
X227755000Y-106670000D02*
X227755000Y-108530000D01*
X228695000Y-106670000D02*
X227755000Y-106670000D01*
X228695000Y-108530000D02*
X228695000Y-106670000D01*
X227755000Y-108530000D02*
X228695000Y-108530000D01*
%TO.C,C39*%
X240350000Y-93400000D02*
X235750000Y-93400000D01*
X235750000Y-95500000D02*
X240350000Y-95500000D01*
X240350000Y-95500000D02*
X240350000Y-93400000D01*
X235750000Y-93400000D02*
X235750000Y-95500000D01*
%TO.C,R46*%
X219880000Y-110070000D02*
X219880000Y-111930000D01*
X219880000Y-111930000D02*
X220820000Y-111930000D01*
X220820000Y-110070000D02*
X219880000Y-110070000D01*
X220820000Y-111930000D02*
X220820000Y-110070000D01*
%TO.C,C1*%
X222285000Y-118810000D02*
X222285000Y-117890000D01*
X220465000Y-118810000D02*
X222285000Y-118810000D01*
X222285000Y-117890000D02*
X220465000Y-117890000D01*
X220465000Y-117890000D02*
X220465000Y-118810000D01*
%TO.C,C33*%
X224535000Y-95640000D02*
X224535000Y-97460000D01*
X224535000Y-97460000D02*
X225455000Y-97460000D01*
X225455000Y-95640000D02*
X224535000Y-95640000D01*
X225455000Y-97460000D02*
X225455000Y-95640000D01*
%TO.C,R7*%
X227345000Y-109030000D02*
X227345000Y-109970000D01*
X229205000Y-109970000D02*
X229205000Y-109030000D01*
X229205000Y-109030000D02*
X227345000Y-109030000D01*
X227345000Y-109970000D02*
X229205000Y-109970000D01*
%TO.C,R27*%
X225670000Y-111920000D02*
X227530000Y-111920000D01*
X227530000Y-110980000D02*
X225670000Y-110980000D01*
X227530000Y-111920000D02*
X227530000Y-110980000D01*
X225670000Y-110980000D02*
X225670000Y-111920000D01*
%TO.C,U11*%
X232675000Y-95585000D02*
X223375000Y-95585000D01*
X223375000Y-89865000D02*
X232675000Y-89865000D01*
X223375000Y-95585000D02*
X223375000Y-89865000D01*
X232675000Y-89865000D02*
X232675000Y-95585000D01*
%TO.C,R12*%
X234440000Y-90110000D02*
X236300000Y-90110000D01*
X234440000Y-89170000D02*
X234440000Y-90110000D01*
X236300000Y-90110000D02*
X236300000Y-89170000D01*
X236300000Y-89170000D02*
X234440000Y-89170000D01*
%TO.C,LED1*%
X247425000Y-87625000D02*
G75*
G03*
X247425000Y-87625000I-1250000J0D01*
G01*
%TO.C,Y4*%
X218450000Y-101125000D02*
X215650000Y-101125000D01*
X218450000Y-98525000D02*
X218450000Y-101125000D01*
X215650000Y-101125000D02*
X215650000Y-98525000D01*
X215650000Y-98525000D02*
X218450000Y-98525000D01*
%TO.C,R33*%
X230945000Y-110380000D02*
X230945000Y-111320000D01*
X230945000Y-111320000D02*
X232805000Y-111320000D01*
X232805000Y-111320000D02*
X232805000Y-110380000D01*
X232805000Y-110380000D02*
X230945000Y-110380000D01*
%TO.C,R41*%
X223105000Y-108880000D02*
X224045000Y-108880000D01*
X224045000Y-107020000D02*
X223105000Y-107020000D01*
X224045000Y-108880000D02*
X224045000Y-107020000D01*
X223105000Y-107020000D02*
X223105000Y-108880000D01*
%TO.C,R31*%
X232805000Y-109420000D02*
X232805000Y-108480000D01*
X230945000Y-108480000D02*
X230945000Y-109420000D01*
X232805000Y-108480000D02*
X230945000Y-108480000D01*
X230945000Y-109420000D02*
X232805000Y-109420000D01*
%TO.C,GPS1*%
X207274600Y-106479400D02*
X213674600Y-106479400D01*
X213674600Y-118439400D02*
X207274600Y-118439400D01*
X213674600Y-106479400D02*
X213674600Y-118439400D01*
X207274600Y-118439400D02*
X207274600Y-106479400D01*
%TO.C,Q1*%
X233800000Y-90190000D02*
X237000000Y-90190000D01*
X233800000Y-92990000D02*
X233800000Y-90190000D01*
X233800000Y-92990000D02*
X237000000Y-92990000D01*
X237000000Y-90190000D02*
X237000000Y-92990000D01*
%TO.C,C26*%
X236590000Y-118015000D02*
X236590000Y-119835000D01*
X237510000Y-118015000D02*
X236590000Y-118015000D01*
X236590000Y-119835000D02*
X237510000Y-119835000D01*
X237510000Y-119835000D02*
X237510000Y-118015000D01*
%TO.C,C2*%
X225840000Y-119260000D02*
X226760000Y-119260000D01*
X226760000Y-119260000D02*
X226760000Y-117440000D01*
X226760000Y-117440000D02*
X225840000Y-117440000D01*
X225840000Y-117440000D02*
X225840000Y-119260000D01*
%TO.C,R5*%
X217680000Y-118880000D02*
X215820000Y-118880000D01*
X215820000Y-118880000D02*
X215820000Y-119820000D01*
X215820000Y-119820000D02*
X217680000Y-119820000D01*
X217680000Y-119820000D02*
X217680000Y-118880000D01*
%TO.C,J2*%
X214200000Y-80400000D02*
X235550000Y-80400000D01*
X235550000Y-80400000D02*
X235550000Y-84000000D01*
X235550000Y-84000000D02*
X214200000Y-84000000D01*
X214200000Y-84000000D02*
X214200000Y-80400000D01*
%TO.C,R6*%
X236293020Y-102180810D02*
X236293020Y-103120810D01*
X238153020Y-102180810D02*
X236293020Y-102180810D01*
X236293020Y-103120810D02*
X238153020Y-103120810D01*
X238153020Y-103120810D02*
X238153020Y-102180810D01*
%TO.C,R3*%
X216730000Y-109270000D02*
X216730000Y-108330000D01*
X216730000Y-108330000D02*
X214870000Y-108330000D01*
X214870000Y-108330000D02*
X214870000Y-109270000D01*
X214870000Y-109270000D02*
X216730000Y-109270000D01*
%TO.C,C3*%
X217840000Y-106640000D02*
X217840000Y-107560000D01*
X219660000Y-106640000D02*
X217840000Y-106640000D01*
X219660000Y-107560000D02*
X219660000Y-106640000D01*
X217840000Y-107560000D02*
X219660000Y-107560000D01*
%TO.C,C36*%
X237635000Y-114860000D02*
X237635000Y-113040000D01*
X237635000Y-113040000D02*
X236715000Y-113040000D01*
X236715000Y-113040000D02*
X236715000Y-114860000D01*
X236715000Y-114860000D02*
X237635000Y-114860000D01*
%TO.C,C13*%
X234940000Y-121710000D02*
X235860000Y-121710000D01*
X234940000Y-119890000D02*
X234940000Y-121710000D01*
X235860000Y-119890000D02*
X234940000Y-119890000D01*
X235860000Y-121710000D02*
X235860000Y-119890000D01*
%TO.C,C10*%
X222735000Y-111935000D02*
X222735000Y-110115000D01*
X221815000Y-110115000D02*
X221815000Y-111935000D01*
X221815000Y-111935000D02*
X222735000Y-111935000D01*
X222735000Y-110115000D02*
X221815000Y-110115000D01*
%TO.C,RC1*%
X247674600Y-99609400D02*
X241274600Y-99609400D01*
X247674600Y-88909400D02*
X247674600Y-99609400D01*
X241274600Y-99609400D02*
X241274600Y-88909400D01*
X241274600Y-88909400D02*
X247674600Y-88909400D01*
%TO.C,R21*%
X236293020Y-97780810D02*
X236293020Y-98720810D01*
X238153020Y-98720810D02*
X238153020Y-97780810D01*
X236293020Y-98720810D02*
X238153020Y-98720810D01*
X238153020Y-97780810D02*
X236293020Y-97780810D01*
%TO.C,R2*%
X238153020Y-100920810D02*
X238153020Y-99980810D01*
X236293020Y-99980810D02*
X236293020Y-100920810D01*
X238153020Y-99980810D02*
X236293020Y-99980810D01*
X236293020Y-100920810D02*
X238153020Y-100920810D01*
%TO.C,C16*%
X232135000Y-114610000D02*
X232135000Y-112790000D01*
X231215000Y-112790000D02*
X231215000Y-114610000D01*
X232135000Y-112790000D02*
X231215000Y-112790000D01*
X231215000Y-114610000D02*
X232135000Y-114610000D01*
%TO.C,U17*%
X235650000Y-111450000D02*
X232150000Y-111450000D01*
X232150000Y-116450000D02*
X235650000Y-116450000D01*
X232150000Y-111450000D02*
X232150000Y-116450000D01*
X235650000Y-116450000D02*
X235650000Y-111450000D01*
%TO.C,R34*%
X240905000Y-101320000D02*
X240905000Y-100380000D01*
X240905000Y-100380000D02*
X239045000Y-100380000D01*
X239045000Y-101320000D02*
X240905000Y-101320000D01*
X239045000Y-100380000D02*
X239045000Y-101320000D01*
%TO.C,R9*%
X236293020Y-105320810D02*
X238153020Y-105320810D01*
X236293020Y-104380810D02*
X236293020Y-105320810D01*
X238153020Y-104380810D02*
X236293020Y-104380810D01*
X238153020Y-105320810D02*
X238153020Y-104380810D01*
%TO.C,C18*%
X230135000Y-128360000D02*
X230135000Y-127440000D01*
X228315000Y-127440000D02*
X228315000Y-128360000D01*
X230135000Y-127440000D02*
X228315000Y-127440000D01*
X228315000Y-128360000D02*
X230135000Y-128360000D01*
%TO.C,R22*%
X219675432Y-108595358D02*
X217815432Y-108595358D01*
X219675432Y-109535358D02*
X219675432Y-108595358D01*
X217815432Y-108595358D02*
X217815432Y-109535358D01*
X217815432Y-109535358D02*
X219675432Y-109535358D01*
%TO.C,J6*%
X230480000Y-127890000D02*
X230480000Y-137310000D01*
X241120000Y-127890000D02*
X241120000Y-137310000D01*
X241120000Y-137310000D02*
X230480000Y-137310000D01*
X241120000Y-127890000D02*
X230480000Y-127890000D01*
%TO.C,LASER1*%
X241300000Y-109030000D02*
X247700000Y-109030000D01*
X247700000Y-109030000D02*
X247700000Y-118470000D01*
X247700000Y-118470000D02*
X241300000Y-118470000D01*
X241300000Y-118470000D02*
X241300000Y-109030000D01*
%TO.C,I2C1*%
X213650000Y-118480000D02*
X213650000Y-127920000D01*
X213650000Y-127920000D02*
X207250000Y-127920000D01*
X207250000Y-127920000D02*
X207250000Y-118480000D01*
X207250000Y-118480000D02*
X213650000Y-118480000D01*
%TO.C,C30*%
X215265000Y-97565000D02*
X215265000Y-98485000D01*
X215265000Y-98485000D02*
X217085000Y-98485000D01*
X217085000Y-98485000D02*
X217085000Y-97565000D01*
X217085000Y-97565000D02*
X215265000Y-97565000D01*
%TO.C,R28*%
X223720000Y-110070000D02*
X222780000Y-110070000D01*
X222780000Y-110070000D02*
X222780000Y-111930000D01*
X223720000Y-111930000D02*
X223720000Y-110070000D01*
X222780000Y-111930000D02*
X223720000Y-111930000D01*
%TO.C,J3*%
X235550000Y-86540000D02*
X214200000Y-86540000D01*
X214200000Y-82940000D02*
X235550000Y-82940000D01*
X235550000Y-82940000D02*
X235550000Y-86540000D01*
X214200000Y-86540000D02*
X214200000Y-82940000D01*
%TO.C,TELEM1*%
X247674600Y-99539400D02*
X247674600Y-108979400D01*
X247674600Y-108979400D02*
X241274600Y-108979400D01*
X241274600Y-108979400D02*
X241274600Y-99539400D01*
X241274600Y-99539400D02*
X247674600Y-99539400D01*
%TO.C,GND2*%
X241700000Y-81775000D02*
G75*
G03*
X241700000Y-81775000I-1250000J0D01*
G01*
%TO.C,C15*%
X236660000Y-113040000D02*
X235740000Y-113040000D01*
X236660000Y-114860000D02*
X236660000Y-113040000D01*
X235740000Y-114860000D02*
X236660000Y-114860000D01*
X235740000Y-113040000D02*
X235740000Y-114860000D01*
%TO.C,R32*%
X230945000Y-110370000D02*
X232805000Y-110370000D01*
X232805000Y-109430000D02*
X230945000Y-109430000D01*
X230945000Y-109430000D02*
X230945000Y-110370000D01*
X232805000Y-110370000D02*
X232805000Y-109430000D01*
%TO.C,U4*%
X219814000Y-118830000D02*
X214336000Y-118830000D01*
X219814000Y-111420000D02*
X214336000Y-111420000D01*
X219814000Y-118830000D02*
X219814000Y-111420000D01*
X214336000Y-118830000D02*
X214336000Y-111420000D01*
%TO.C,POWER1*%
X213674600Y-94479400D02*
X213674600Y-106439400D01*
X207274600Y-94479400D02*
X213674600Y-94479400D01*
X207274600Y-106439400D02*
X207274600Y-94479400D01*
X213674600Y-106439400D02*
X207274600Y-106439400D01*
%TO.C,R42*%
X220495000Y-97545000D02*
X219555000Y-97545000D01*
X219555000Y-99405000D02*
X220495000Y-99405000D01*
X220495000Y-99405000D02*
X220495000Y-97545000D01*
X219555000Y-97545000D02*
X219555000Y-99405000D01*
%TO.C,C14*%
X236835000Y-119890000D02*
X235915000Y-119890000D01*
X235915000Y-121710000D02*
X236835000Y-121710000D01*
X236835000Y-121710000D02*
X236835000Y-119890000D01*
X235915000Y-119890000D02*
X235915000Y-121710000D01*
%TO.C,C5*%
X217840000Y-105690000D02*
X217840000Y-106610000D01*
X217840000Y-106610000D02*
X219660000Y-106610000D01*
X219660000Y-106610000D02*
X219660000Y-105690000D01*
X219660000Y-105690000D02*
X217840000Y-105690000D01*
%TO.C,J7*%
X217775000Y-101800000D02*
X217775000Y-107950000D01*
X214175000Y-101800000D02*
X217775000Y-101800000D01*
X217775000Y-107950000D02*
X214175000Y-107950000D01*
X214175000Y-107950000D02*
X214175000Y-101800000D01*
%TO.C,R40*%
X233700000Y-89490000D02*
X232760000Y-89490000D01*
X232760000Y-89490000D02*
X232760000Y-91350000D01*
X232760000Y-91350000D02*
X233700000Y-91350000D01*
X233700000Y-91350000D02*
X233700000Y-89490000D01*
%TO.C,JP2*%
X241250000Y-100325000D02*
X241250000Y-97025000D01*
X241250000Y-100325000D02*
X238750000Y-100325000D01*
X238750000Y-97025000D02*
X238750000Y-100325000D01*
X238750000Y-97025000D02*
X241250000Y-97025000D01*
%TO.C,U7*%
X231430000Y-122145000D02*
X234870000Y-122145000D01*
X234870000Y-122145000D02*
X234870000Y-119205000D01*
X234870000Y-119205000D02*
X231430000Y-119205000D01*
X231430000Y-119205000D02*
X231430000Y-122145000D01*
%TO.C,L2*%
X210845000Y-92180000D02*
X210845000Y-93120000D01*
X212705000Y-93120000D02*
X212705000Y-92180000D01*
X212705000Y-92180000D02*
X210845000Y-92180000D01*
X210845000Y-93120000D02*
X212705000Y-93120000D01*
%TO.C,CAM0*%
X213750000Y-137250000D02*
X213750000Y-129350000D01*
X230850000Y-129350000D02*
X230850000Y-137250000D01*
X230850000Y-137250000D02*
X213750000Y-137250000D01*
X213750000Y-129350000D02*
X230850000Y-129350000D01*
%TO.C,R25*%
X225670000Y-110920000D02*
X227530000Y-110920000D01*
X225670000Y-109980000D02*
X225670000Y-110920000D01*
X227530000Y-109980000D02*
X225670000Y-109980000D01*
X227530000Y-110920000D02*
X227530000Y-109980000D01*
%TO.C,R10*%
X238153020Y-105480810D02*
X236293020Y-105480810D01*
X236293020Y-106420810D02*
X238153020Y-106420810D01*
X238153020Y-106420810D02*
X238153020Y-105480810D01*
X236293020Y-105480810D02*
X236293020Y-106420810D01*
%TO.C,C28*%
X238000000Y-114800000D02*
X238000000Y-119400000D01*
X240100000Y-114800000D02*
X238000000Y-114800000D01*
X238000000Y-119400000D02*
X240100000Y-119400000D01*
X240100000Y-119400000D02*
X240100000Y-114800000D01*
%TO.C,R11*%
X223770000Y-111920000D02*
X225630000Y-111920000D01*
X223770000Y-110980000D02*
X223770000Y-111920000D01*
X225630000Y-111920000D02*
X225630000Y-110980000D01*
X225630000Y-110980000D02*
X223770000Y-110980000D01*
%TD*%
M02*
